<svg width="24" height="25" viewBox="0 0 24 25" fill="none" xmlns="http://www.w3.org/2000/svg">
<path d="M20.0068 18.4725V10.38C20.0068 9.80328 19.7578 9.25463 19.3238 8.87485L13.3238 3.62485C12.5698 2.96506 11.4438 2.96506 10.6898 3.62485L4.68983 8.87485C4.2558 9.25463 4.00684 9.80328 4.00684 10.38V18.4725C4.00684 19.5771 4.90227 20.4725 6.00684 20.4725H9.00684C9.55912 20.4725 10.0068 20.0248 10.0068 19.4725V16.4725C10.0068 15.3679 10.9022 14.4725 12.0068 14.4725C13.1114 14.4725 14.0068 15.3679 14.0068 16.4725V19.4725C14.0068 20.0248 14.4545 20.4725 15.0068 20.4725H18.0068C19.1114 20.4725 20.0068 19.5771 20.0068 18.4725Z" stroke="black" stroke-width="2" stroke-linejoin="round"/>
</svg>
