<svg width="59" height="95" viewBox="0 0 59 95" fill="none" xmlns="http://www.w3.org/2000/svg">
<path d="M58.4218 0C54.09 24.7646 43.3914 36.0316 32.3544 43.6073L31.8768 43.0592C31.7616 42.8972 31.6392 42.7375 31.5144 42.5802C35.3638 38.8293 36.7894 33.5842 35.6902 28.2319C34.7207 22.9582 28.2506 16.3453 19.3231 18.0373C29.9545 19 33.084 32.2712 24.7036 37.7927C18.8743 41.596 11.6459 39.0628 9.03248 33.9488C6.04705 29.0445 8.10374 21.5594 14.3578 18.8785C15.1737 18.5282 16.5417 17.9133 17.372 17.7298C23.0453 16.7051 25.0852 15.6208 27.0411 13.1997C28.9418 10.7666 28.7546 8.78151 28.1906 7.29211C27.7275 6.06484 27.1443 5.54057 27.1395 5.56441C26.4075 7.02521 23.8181 10.5188 18.68 10.5521C16.1409 10.5807 13.4794 11.0192 10.7484 12.2679C1.04092 16.8529 -2.65967 28.363 2.00567 37.49C6.49822 46.2787 17.6168 49.7412 26.6427 45.8497C26.7339 45.9617 26.8251 46.0737 26.9139 46.1929C2.53124 58.4251 -5.03074 80.2442 5.65587 90.4579C12.0371 96.7444 24.1805 95.2669 30.8617 85.9635C40.0508 73.1713 39.422 60.0503 37.0869 49.0573L37.0125 48.9715C48.7935 39.7182 58.4362 26.1301 58.4218 0ZM12.9971 81.5024C7.90695 76.3146 11.6555 61.7256 30.7849 52.975C34.5287 74.6297 21.0366 88.7326 12.9971 81.5024Z" fill="black"/>
</svg>
