<svg width="246" height="129" viewBox="0 0 246 129" fill="none" xmlns="http://www.w3.org/2000/svg">
<g filter="url(#filter0_d_976_1352)">
<rect x="6.34375" y="14.4082" width="229.542" height="107.827" rx="9.57869" transform="rotate(-2.02163 6.34375 14.4082)" fill="white" shape-rendering="crispEdges"/>
<rect x="6.76634" y="14.802" width="228.725" height="107.011" rx="9.17025" transform="rotate(-2.02163 6.76634 14.802)" stroke="#CACACA" stroke-width="0.816874" shape-rendering="crispEdges"/>
<mask id="path-3-inside-1_976_1352" fill="white">
<path d="M6.34375 14.4082L235.743 6.3107L239.544 114.004L10.1452 122.101L6.34375 14.4082Z"/>
</mask>
<path d="M239.523 113.406L10.1241 121.503L10.1663 122.7L239.565 114.602L239.523 113.406Z" fill="#ECECEC" mask="url(#path-3-inside-1_976_1352)"/>
<rect x="13.1719" y="38.1289" width="28.7361" height="28.7361" rx="4.78935" transform="rotate(-2.02163 13.1719 38.1289)" fill="#F5F5F5" fill-opacity="0.36"/>
<path d="M23.8554 50.2966L24.8131 50.9117L26.2923 48.7002M28.8385 49.69L31.3314 49.602M24.0613 56.1308L25.0191 56.7459L26.4982 54.5345M34.6833 51.6468L34.5156 46.8938C34.4819 45.9392 33.7105 45.1917 32.7926 45.2241L21.9901 45.6054C21.0722 45.6378 20.3554 46.4379 20.3891 47.3924L20.7857 58.6268C20.8194 59.5814 21.5908 60.329 22.5086 60.2966L27.4944 60.1206M31.8667 60.251C32.1023 60.5928 32.4925 60.8097 32.9262 60.7944C33.3601 60.7791 33.7339 60.5352 33.9449 60.1776M35.8041 59.8272L35.6973 56.8026C35.6384 55.1321 34.2884 53.8239 32.6822 53.8806C31.0759 53.9373 29.8216 55.3374 29.8806 57.0079L29.9873 60.0326L35.8041 59.8272Z" stroke="#42AB00" stroke-width="0.299334" stroke-linecap="round" stroke-linejoin="round"/>
<path d="M54.4252 48.0164C54.3231 48.02 54.2394 48.0006 54.174 47.9582C54.1148 47.9092 54.0774 47.8466 54.0619 47.7705C54.0526 47.6877 54.0685 47.5945 54.1096 47.4908L56.5305 41.4054C56.5835 41.2757 56.6473 41.184 56.7221 41.1303C56.803 41.0699 56.8914 41.038 56.9871 41.0346C57.0828 41.0313 57.17 41.0569 57.2486 41.1117C57.3334 41.1598 57.4035 41.2468 57.4591 41.3726L60.3127 47.2719C60.3674 47.3722 60.3898 47.464 60.3799 47.5475C60.3765 47.6306 60.3468 47.6956 60.291 47.7423C60.2351 47.789 60.1561 47.8141 60.054 47.8177C59.9391 47.8218 59.8456 47.7964 59.7734 47.7414C59.7009 47.6801 59.6403 47.5927 59.5916 47.4794L58.8254 45.8675L59.2154 46.055L55.0992 46.2003L55.4845 45.9854L54.8435 47.647C54.7904 47.7703 54.7329 47.8618 54.6711 47.9215C54.6093 47.9812 54.5274 48.0128 54.4252 48.0164ZM57.0123 42.021L55.5992 45.7034L55.363 45.5297L58.9049 45.4046L58.7008 45.594L57.0315 42.0203L57.0123 42.021ZM61.8203 47.7554C61.6927 47.7599 61.5957 47.7282 61.5294 47.6602C61.4631 47.5923 61.4277 47.4945 61.4232 47.3669L61.2083 41.2786C61.2038 41.151 61.2323 41.0541 61.2939 40.988C61.3552 40.9156 61.4497 40.8771 61.5774 40.8726C61.6986 40.8683 61.7956 40.9 61.8683 40.9678C61.9407 41.0291 61.9792 41.1236 61.9837 41.2512L62.0827 44.056L61.9583 44.0604C62.0792 43.6856 62.2864 43.4003 62.5798 43.2046C62.8794 43.0024 63.227 42.8942 63.6227 42.8803C63.9928 42.8672 64.3015 42.9234 64.5488 43.0489C64.8024 43.1741 64.9947 43.3718 65.1256 43.6419C65.2563 43.9057 65.329 44.245 65.3436 44.6598L65.4342 47.2253C65.4387 47.3529 65.4071 47.4531 65.3394 47.5258C65.278 47.5982 65.1867 47.6366 65.0655 47.6409C64.9378 47.6454 64.8377 47.6137 64.765 47.546C64.6987 47.4781 64.6633 47.3803 64.6588 47.2526L64.5699 44.735C64.5546 44.3011 64.4573 43.9882 64.278 43.7964C64.1049 43.5981 63.8332 43.5054 63.4631 43.5185C63.0355 43.5336 62.6988 43.6797 62.453 43.9567C62.2134 44.2272 62.1013 44.5825 62.1168 45.0229L62.1986 47.3395C62.2081 47.6075 62.082 47.7462 61.8203 47.7554ZM67.2802 47.5627C67.1526 47.5672 67.0556 47.5355 66.9893 47.4675C66.923 47.3996 66.8876 47.3018 66.8831 47.1741L66.7422 43.1823C66.7377 43.0547 66.7662 42.9578 66.8278 42.8917C66.8891 42.8193 66.9804 42.7809 67.1017 42.7766C67.223 42.7724 67.3167 42.8042 67.383 42.8721C67.4555 42.9335 67.494 43.028 67.4985 43.1556L67.5282 43.998L67.4182 43.8677C67.5268 43.506 67.7118 43.2248 67.973 43.0238C68.2405 42.8163 68.5625 42.7059 68.939 42.6926C69.3347 42.6787 69.6571 42.7631 69.9064 42.946C70.1618 43.1223 70.338 43.4068 70.4349 43.7996L70.2913 43.8046C70.3936 43.4432 70.5879 43.1552 70.8743 42.9406C71.1668 42.7194 71.5109 42.6018 71.9065 42.5879C72.2575 42.5755 72.5471 42.6324 72.7752 42.7585C73.0097 42.8844 73.1892 43.0825 73.3137 43.3529C73.4381 43.6169 73.5076 43.9563 73.5222 44.3711L73.6128 46.9366C73.6173 47.0642 73.5856 47.1644 73.5179 47.2371C73.4566 47.3095 73.3621 47.348 73.2345 47.3525C73.1132 47.3568 73.0162 47.3251 72.9436 47.2573C72.8773 47.1894 72.8419 47.0916 72.8374 46.964L72.7482 44.4368C72.7331 44.0092 72.6486 43.6991 72.4949 43.5064C72.3409 43.3074 72.0884 43.214 71.7374 43.2264C71.3545 43.2399 71.0561 43.3847 70.8422 43.6606C70.6344 43.9299 70.5385 44.2911 70.5545 44.7442L70.6356 47.0417C70.6401 47.1693 70.6085 47.2695 70.5408 47.3421C70.4795 47.4146 70.385 47.4531 70.2573 47.4576C70.1361 47.4619 70.0391 47.4301 69.9664 47.3624C69.9001 47.2945 69.8647 47.1967 69.8602 47.069L69.771 44.5418C69.7559 44.1143 69.6683 43.8043 69.5082 43.6118C69.3542 43.4128 69.1049 43.3194 68.7603 43.3315C68.3774 43.345 68.0789 43.4898 67.865 43.7657C67.6573 44.035 67.5614 44.3962 67.5774 44.8493L67.6585 47.1468C67.668 47.4148 67.5419 47.5534 67.2802 47.5627ZM77.1738 47.2326C76.6824 47.25 76.2546 47.1692 75.8905 46.9904C75.5325 46.8049 75.2483 46.537 75.0378 46.1866C74.8338 45.836 74.7229 45.4118 74.7054 44.914C74.6882 44.429 74.7691 44.0044 74.9479 43.6403C75.1266 43.2697 75.3782 42.9765 75.7028 42.7606C76.0339 42.5444 76.4196 42.4286 76.8599 42.413C77.1726 42.402 77.4553 42.4463 77.708 42.546C77.9605 42.6393 78.1764 42.7819 78.3557 42.9736C78.5414 43.1652 78.6839 43.3998 78.7831 43.6774C78.8888 43.9548 78.9478 44.269 78.9602 44.62C78.9638 44.7221 78.9378 44.7997 78.8821 44.8528C78.8263 44.8995 78.7441 44.9248 78.6356 44.9286L75.3043 45.0462L75.2864 44.5389L78.4358 44.4277L78.287 44.5575C78.2749 44.2129 78.2136 43.9243 78.1031 43.6918C77.9925 43.4529 77.8359 43.2731 77.6336 43.1525C77.4376 43.0316 77.1929 42.9763 76.8993 42.9867C76.5738 42.9982 76.2989 43.0846 76.0746 43.2459C75.8564 43.4005 75.6946 43.6139 75.5892 43.886C75.4836 44.1517 75.4369 44.4601 75.4493 44.8111L75.4514 44.8685C75.4721 45.4556 75.6283 45.8974 75.9199 46.1938C76.2179 46.49 76.6285 46.6289 77.1518 46.6104C77.3688 46.6027 77.5816 46.5665 77.7902 46.5016C78.0051 46.4365 78.2123 46.3333 78.4118 46.1921C78.4991 46.1315 78.578 46.1032 78.6484 46.1071C78.725 46.1044 78.7864 46.1246 78.8327 46.1677C78.8787 46.2044 78.9092 46.2544 78.9242 46.3178C78.9454 46.3745 78.9413 46.4386 78.9119 46.5099C78.8888 46.581 78.8367 46.6436 78.7555 46.6975C78.5504 46.8581 78.3056 46.985 78.0214 47.0781C77.7371 47.1712 77.4546 47.2227 77.1738 47.2326ZM81.9432 47.0643C81.5284 47.0789 81.1611 46.9928 80.8414 46.806C80.5281 46.619 80.279 46.3498 80.0941 45.9985C79.9153 45.6406 79.8172 45.216 79.7999 44.7246C79.7823 44.2268 79.8502 43.7963 80.0035 43.433C80.163 43.0632 80.3925 42.7771 80.6921 42.5749C80.9978 42.366 81.3581 42.2542 81.7729 42.2396C82.1941 42.2247 82.5584 42.3173 82.8657 42.5173C83.1731 42.7173 83.3842 42.9942 83.4989 43.348L83.3936 43.3517L83.2929 40.499C83.2884 40.3714 83.3169 40.2746 83.3785 40.2085C83.4462 40.1358 83.5439 40.0972 83.6715 40.0927C83.7928 40.0884 83.8866 40.1203 83.9529 40.1882C84.0253 40.2496 84.0638 40.344 84.0683 40.4717L84.2832 46.5599C84.2877 46.6876 84.2593 46.7876 84.198 46.8601C84.1366 46.9325 84.0421 46.971 83.9145 46.9755C83.7932 46.9798 83.6963 46.9481 83.6236 46.8803C83.5573 46.8124 83.5219 46.7146 83.5174 46.587L83.4853 45.6776L83.5953 45.8079C83.506 46.1752 83.3121 46.4728 83.0134 46.7006C82.7211 46.9282 82.3644 47.0494 81.9432 47.0643ZM82.084 46.4363C82.3711 46.4261 82.6207 46.3471 82.8328 46.199C83.0448 46.0509 83.2035 45.8409 83.3089 45.5688C83.4207 45.2964 83.47 44.972 83.4567 44.5955C83.4362 44.0148 83.2897 43.5758 83.0172 43.2787C82.7511 42.9814 82.3979 42.8405 81.9576 42.8561C81.664 42.8664 81.4112 42.9457 81.1992 43.0937C80.9933 43.2352 80.8345 43.4421 80.7227 43.7144C80.6171 43.9801 80.5711 44.3076 80.5849 44.6969C80.6051 45.2712 80.7516 45.7102 81.0243 46.0136C81.2968 46.3107 81.65 46.4516 82.084 46.4363ZM88.8523 46.8012C88.731 46.8055 88.6341 46.7738 88.5614 46.706C88.4951 46.6381 88.4597 46.5403 88.4552 46.4127L88.3241 42.6984L87.7114 42.7201C87.6093 42.7237 87.5255 42.7011 87.4598 42.6523C87.4004 42.5969 87.369 42.5213 87.3656 42.4256C87.3622 42.3298 87.3883 42.2554 87.444 42.2024C87.506 42.1491 87.588 42.1206 87.6901 42.117L88.5134 42.0879L88.3099 42.2964L88.2971 41.9326C88.2759 41.3327 88.4033 40.8682 88.6792 40.5389C88.9615 40.2095 89.3858 40.0124 89.9522 39.9477L90.2384 39.9088C90.3339 39.8991 90.411 39.9123 90.4698 39.9486C90.5284 39.9785 90.5651 40.0219 90.5799 40.0789C90.601 40.1356 90.6064 40.1962 90.5959 40.2604C90.5853 40.3247 90.5585 40.38 90.5154 40.4262C90.4787 40.4722 90.4318 40.4994 90.3746 40.5079L90.0881 40.5371C89.7124 40.576 89.4454 40.7036 89.2869 40.9201C89.1282 41.1301 89.0556 41.4266 89.0691 41.8095L89.0833 42.2116L88.9633 42.072L91.5671 41.9801C91.6884 41.9759 91.7821 42.0077 91.8484 42.0756C91.9211 42.1434 91.9598 42.2442 91.9645 42.3783L92.1011 46.2456C92.1058 46.3797 92.0776 46.4861 92.0165 46.5649C91.9551 46.6374 91.8606 46.6758 91.733 46.6803C91.6054 46.6849 91.5052 46.6532 91.4325 46.5855C91.366 46.5112 91.3304 46.407 91.3257 46.273L91.1959 42.5971L89.0995 42.6711L89.2306 46.3853C89.24 46.6533 89.114 46.792 88.8523 46.8012ZM91.5371 40.8598C91.3776 40.8654 91.2517 40.8283 91.1594 40.7485C91.0733 40.6621 91.0276 40.5455 91.0225 40.3987C91.0171 40.2456 91.0545 40.1292 91.1347 40.0497C91.2212 39.9636 91.3441 39.9177 91.5037 39.9121C91.6632 39.9065 91.7859 39.9437 91.8718 40.0237C91.9639 40.0971 92.0126 40.2104 92.018 40.3636C92.0232 40.5104 91.9827 40.63 91.8965 40.7225C91.8165 40.8084 91.6967 40.8542 91.5371 40.8598ZM93.9507 46.6212C93.823 46.6257 93.7261 46.594 93.6598 46.5261C93.5935 46.4581 93.5581 46.3603 93.5536 46.2327L93.4127 42.2409C93.4082 42.1132 93.4367 42.0164 93.4983 41.9503C93.5596 41.8779 93.6509 41.8395 93.7721 41.8352C93.8934 41.8309 93.9872 41.8628 94.0535 41.9307C94.1259 41.9921 94.1644 42.0865 94.1689 42.2142L94.198 43.0374L94.0886 42.9263C94.2096 42.5514 94.4168 42.2661 94.7102 42.0705C95.0097 41.8682 95.3574 41.7601 95.753 41.7461C96.1232 41.7331 96.4319 41.7892 96.6791 41.9147C96.9327 42.0399 97.125 42.2376 97.2559 42.5078C97.3867 42.7715 97.4593 43.1108 97.474 43.5256L97.5645 46.0911C97.5691 46.2188 97.5374 46.3189 97.4697 46.3916C97.4084 46.464 97.3171 46.5024 97.1958 46.5067C97.0682 46.5112 96.968 46.4796 96.8954 46.4119C96.8291 46.3439 96.7937 46.2461 96.7892 46.1185L96.7003 43.6009C96.685 43.1669 96.5877 42.854 96.4084 42.6623C96.2352 42.4639 95.9636 42.3713 95.5934 42.3843C95.1659 42.3994 94.8292 42.5455 94.5834 42.8225C94.3437 43.093 94.2316 43.4484 94.2472 43.8887L94.329 46.2053C94.3384 46.4734 94.2123 46.612 93.9507 46.6212ZM99.3907 46.41C99.2631 46.4145 99.1661 46.3828 99.0998 46.3149C99.0333 46.2405 98.9977 46.1364 98.993 46.0024L98.8548 42.0871C98.85 41.9531 98.8783 41.8499 98.9397 41.7774C99.001 41.705 99.0955 41.6665 99.2231 41.662C99.3444 41.6577 99.4414 41.6894 99.514 41.7571C99.5867 41.8249 99.6254 41.9257 99.6302 42.0597L99.7684 45.975C99.7731 46.109 99.7417 46.2155 99.6742 46.2946C99.6129 46.3671 99.5184 46.4055 99.3907 46.41ZM99.1853 40.5898C99.0258 40.5955 98.8998 40.5584 98.8076 40.4786C98.7151 40.3924 98.6662 40.2759 98.661 40.1291C98.6556 39.9759 98.6963 39.8595 98.7829 39.7797C98.8693 39.6936 98.9923 39.6478 99.1518 39.6421C99.3178 39.6363 99.4437 39.6734 99.5296 39.7534C99.6216 39.8268 99.6704 39.9401 99.6758 40.0933C99.6809 40.2401 99.6404 40.3597 99.5542 40.4522C99.4742 40.5381 99.3512 40.584 99.1853 40.5898ZM102.804 46.3279C102.517 46.338 102.225 46.3132 101.929 46.2533C101.64 46.1933 101.367 46.0815 101.112 45.918C101.047 45.8755 101 45.8261 100.973 45.7695C100.945 45.7066 100.933 45.6463 100.938 45.5887C100.948 45.5244 100.972 45.4692 101.009 45.4232C101.052 45.377 101.102 45.3496 101.159 45.3412C101.222 45.3262 101.293 45.3365 101.371 45.3721C101.625 45.5165 101.868 45.6165 102.1 45.6722C102.339 45.7213 102.572 45.7418 102.802 45.7337C103.166 45.7209 103.438 45.6442 103.618 45.5036C103.799 45.3631 103.885 45.1779 103.877 44.9482C103.87 44.7695 103.805 44.6312 103.68 44.5334C103.555 44.4292 103.361 44.353 103.097 44.3048L102.219 44.1441C101.814 44.0753 101.509 43.9423 101.304 43.7451C101.105 43.5476 101 43.2861 100.989 42.9607C100.979 42.6735 101.043 42.4252 101.183 42.2158C101.329 41.9998 101.537 41.8295 101.807 41.7049C102.077 41.5804 102.394 41.5117 102.758 41.4988C103.039 41.4889 103.305 41.5179 103.557 41.5857C103.815 41.6469 104.048 41.7536 104.258 41.906C104.324 41.9484 104.367 42.0012 104.388 42.0643C104.416 42.1208 104.421 42.1814 104.404 42.2458C104.394 42.3037 104.367 42.3558 104.324 42.4021C104.28 42.4419 104.227 42.4662 104.163 42.4748C104.1 42.4834 104.032 42.4667 103.96 42.4245C103.764 42.3036 103.566 42.2179 103.366 42.1675C103.166 42.1106 102.971 42.0856 102.779 42.0924C102.422 42.105 102.153 42.1847 101.973 42.3317C101.793 42.4786 101.707 42.6669 101.715 42.8967C101.721 43.0754 101.784 43.2201 101.903 43.331C102.022 43.4418 102.203 43.5184 102.448 43.5609L103.325 43.7121C103.743 43.7868 104.058 43.9194 104.269 44.1101C104.486 44.2941 104.601 44.552 104.612 44.8839C104.627 45.3051 104.47 45.6461 104.141 45.9069C103.811 46.1677 103.366 46.3081 102.804 46.3279ZM106.225 46.188C106.097 46.1925 106 46.1608 105.934 46.0928C105.868 46.0249 105.832 45.9271 105.828 45.7994L105.613 39.7112C105.609 39.5835 105.637 39.4867 105.699 39.4206C105.76 39.3482 105.854 39.3097 105.982 39.3052C106.103 39.3009 106.2 39.3326 106.273 39.4003C106.345 39.4617 106.384 39.5562 106.388 39.6838L106.487 42.4886L106.363 42.493C106.484 42.1181 106.691 41.8329 106.985 41.6372C107.284 41.4349 107.632 41.3268 108.027 41.3128C108.398 41.2998 108.706 41.356 108.954 41.4814C109.207 41.6067 109.399 41.8044 109.53 42.0745C109.661 42.3382 109.734 42.6775 109.748 43.0924L109.839 45.6578C109.843 45.7855 109.812 45.8856 109.744 45.9583C109.683 46.0308 109.591 46.0691 109.47 46.0734C109.343 46.0779 109.242 46.0463 109.17 45.9786C109.103 45.9106 109.068 45.8129 109.064 45.6852L108.975 43.1676C108.959 42.7336 108.862 42.4208 108.683 42.229C108.51 42.0306 108.238 41.938 107.868 41.9511C107.44 41.9662 107.104 42.1122 106.858 42.3893C106.618 42.6597 106.506 43.0151 106.522 43.4555L106.603 45.7721C106.613 46.0401 106.487 46.1787 106.225 46.188ZM113.38 45.9546C112.889 45.9719 112.461 45.8912 112.097 45.7123C111.739 45.5269 111.455 45.259 111.244 44.9086C111.04 44.5579 110.929 44.1337 110.912 43.636C110.894 43.1509 110.975 42.7264 111.154 42.3622C111.333 41.9917 111.584 41.6985 111.909 41.4825C112.24 41.2664 112.626 41.1505 113.066 41.135C113.379 41.1239 113.662 41.1683 113.914 41.268C114.167 41.3613 114.383 41.5039 114.562 41.6956C114.748 41.8871 114.89 42.1217 114.989 42.3994C115.095 42.6768 115.154 42.991 115.166 43.342C115.17 43.4441 115.144 43.5217 115.088 43.5748C115.032 43.6215 114.95 43.6468 114.842 43.6506L111.511 43.7682L111.493 43.2608L114.642 43.1496L114.493 43.2795C114.481 42.9349 114.42 42.6463 114.309 42.4138C114.199 42.1749 114.042 41.9951 113.84 41.8744C113.644 41.7536 113.399 41.6983 113.106 41.7087C112.78 41.7202 112.505 41.8065 112.281 41.9678C112.063 42.1225 111.901 42.3359 111.795 42.608C111.69 42.8737 111.643 43.182 111.656 43.533L111.658 43.5905C111.678 44.1776 111.834 44.6194 112.126 44.9158C112.424 45.212 112.835 45.3508 113.358 45.3323C113.575 45.3247 113.788 45.2884 113.996 45.2236C114.211 45.1585 114.419 45.0553 114.618 44.9141C114.705 44.8535 114.784 44.8251 114.855 44.829C114.931 44.8263 114.993 44.8465 115.039 44.8896C115.085 44.9263 115.115 44.9764 115.13 45.0398C115.152 45.0965 115.148 45.1606 115.118 45.2319C115.095 45.303 115.043 45.3655 114.962 45.4195C114.757 45.5801 114.512 45.707 114.228 45.8001C113.943 45.8932 113.661 45.9447 113.38 45.9546ZM117.948 45.7933C117.661 45.8035 117.37 45.7786 117.074 45.7188C116.784 45.6587 116.512 45.5469 116.257 45.3834C116.191 45.341 116.145 45.2915 116.117 45.235C116.089 45.172 116.078 45.1117 116.082 45.0541C116.093 44.9898 116.116 44.9347 116.153 44.8886C116.196 44.8424 116.246 44.8151 116.303 44.8067C116.367 44.7916 116.437 44.8019 116.515 44.8375C116.77 44.9819 117.013 45.0819 117.245 45.1376C117.483 45.1867 117.717 45.2072 117.947 45.1991C118.31 45.1863 118.582 45.1096 118.763 44.969C118.943 44.8285 119.029 44.6433 119.021 44.4136C119.015 44.2349 118.949 44.0966 118.824 43.9988C118.699 43.8946 118.505 43.8184 118.241 43.7702L117.363 43.6095C116.958 43.5407 116.653 43.4077 116.448 43.2105C116.25 43.013 116.145 42.7516 116.133 42.4261C116.123 42.1389 116.188 41.8906 116.327 41.6812C116.473 41.4652 116.681 41.2949 116.951 41.1704C117.222 41.0458 117.539 40.9771 117.903 40.9643C118.183 40.9544 118.45 40.9833 118.701 41.0511C118.959 41.1123 119.193 41.219 119.403 41.3714C119.468 41.4138 119.511 41.4666 119.533 41.5297C119.56 41.5863 119.566 41.6468 119.549 41.7113C119.538 41.7692 119.511 41.8212 119.468 41.8675C119.425 41.9073 119.371 41.9316 119.308 41.9402C119.244 41.9489 119.176 41.9321 119.105 41.8899C118.909 41.769 118.711 41.6833 118.511 41.6329C118.311 41.5761 118.115 41.551 117.923 41.5578C117.566 41.5704 117.297 41.6502 117.117 41.7971C116.937 41.944 116.851 42.1324 116.859 42.3621C116.866 42.5408 116.928 42.6856 117.047 42.7964C117.166 42.9072 117.348 42.9839 117.592 43.0263L118.469 43.1775C118.887 43.2522 119.202 43.3848 119.413 43.5755C119.631 43.7595 119.745 44.0174 119.757 44.3493C119.772 44.7705 119.614 45.1115 119.285 45.3723C118.956 45.6332 118.51 45.7735 117.948 45.7933ZM123.837 45.5663C123.71 45.5708 123.613 45.5391 123.547 45.4711C123.48 45.4032 123.445 45.3054 123.44 45.1777L123.225 39.0895C123.221 38.9618 123.249 38.865 123.311 38.7989C123.372 38.7265 123.467 38.688 123.594 38.6835C123.716 38.6792 123.813 38.7109 123.885 38.7786C123.958 38.84 123.996 38.9345 124.001 39.0621L124.1 41.8669L123.975 41.8713C124.096 41.4964 124.303 41.2112 124.597 41.0155C124.896 40.8132 125.244 40.7051 125.64 40.6912C126.01 40.6781 126.319 40.7343 126.566 40.8597C126.819 40.985 127.012 41.1827 127.143 41.4528C127.273 41.7166 127.346 42.0558 127.361 42.4707L127.451 45.0362C127.456 45.1638 127.424 45.2639 127.356 45.3366C127.295 45.4091 127.204 45.4474 127.083 45.4517C126.955 45.4562 126.855 45.4246 126.782 45.3569C126.716 45.289 126.68 45.1912 126.676 45.0635L126.587 42.5459C126.572 42.1119 126.474 41.7991 126.295 41.6073C126.122 41.409 125.85 41.3163 125.48 41.3294C125.053 41.3445 124.716 41.4905 124.47 41.7676C124.23 42.038 124.118 42.3934 124.134 42.8338L124.216 45.1504C124.225 45.4184 124.099 45.557 123.837 45.5663ZM129.277 45.3551C129.15 45.3596 129.053 45.3279 128.987 45.2599C128.92 45.1856 128.884 45.0814 128.88 44.9474L128.741 41.0321C128.737 40.8981 128.765 40.7949 128.826 40.7224C128.888 40.65 128.982 40.6115 129.11 40.607C129.231 40.6027 129.328 40.6344 129.401 40.7022C129.473 40.7699 129.512 40.8708 129.517 41.0048L129.655 44.92C129.66 45.054 129.628 45.1606 129.561 45.2396C129.5 45.3121 129.405 45.3506 129.277 45.3551ZM129.072 39.5349C128.912 39.5405 128.787 39.5034 128.694 39.4236C128.602 39.3374 128.553 39.2209 128.548 39.0741C128.542 38.921 128.583 38.8045 128.67 38.7248C128.756 38.6387 128.879 38.5928 129.039 38.5872C129.205 38.5813 129.33 38.6184 129.416 38.6984C129.508 38.7719 129.557 38.8851 129.562 39.0383C129.568 39.1851 129.527 39.3047 129.441 39.3972C129.361 39.4831 129.238 39.529 129.072 39.5349ZM132.691 45.2729C132.404 45.2831 132.112 45.2582 131.816 45.1984C131.526 45.1383 131.254 45.0265 130.999 44.863C130.934 44.8206 130.887 44.7711 130.86 44.7146C130.832 44.6516 130.82 44.5914 130.824 44.5337C130.835 44.4694 130.859 44.4143 130.895 44.3683C130.938 44.322 130.988 44.2947 131.046 44.2863C131.109 44.2713 131.18 44.2815 131.258 44.3171C131.512 44.4615 131.755 44.5615 131.987 44.6173C132.225 44.6664 132.459 44.6869 132.689 44.6787C133.053 44.6659 133.325 44.5892 133.505 44.4487C133.685 44.3081 133.772 44.123 133.763 43.8932C133.757 43.7145 133.692 43.5763 133.567 43.4784C133.442 43.3742 133.247 43.298 132.984 43.2498L132.106 43.0891C131.701 43.0203 131.396 42.8873 131.191 42.6901C130.992 42.4926 130.887 42.2312 130.875 41.9057C130.865 41.6185 130.93 41.3702 131.07 41.1608C131.215 40.9448 131.423 40.7745 131.694 40.65C131.964 40.5254 132.281 40.4567 132.645 40.4439C132.926 40.434 133.192 40.4629 133.443 40.5307C133.701 40.5919 133.935 40.6987 134.145 40.851C134.21 40.8934 134.254 40.9462 134.275 41.0093C134.303 41.0659 134.308 41.1264 134.291 41.1909C134.28 41.2488 134.253 41.3008 134.21 41.3471C134.167 41.387 134.114 41.4112 134.05 41.4198C133.986 41.4285 133.919 41.4117 133.847 41.3695C133.651 41.2486 133.453 41.163 133.253 41.1125C133.053 41.0557 132.857 41.0306 132.666 41.0374C132.308 41.05 132.04 41.1298 131.86 41.2767C131.679 41.4236 131.593 41.612 131.602 41.8417C131.608 42.0204 131.671 42.1652 131.789 42.276C131.908 42.3868 132.09 42.4635 132.334 42.506L133.212 42.6571C133.63 42.7318 133.944 42.8645 134.156 43.0551C134.373 43.2391 134.487 43.497 134.499 43.8289C134.514 44.2501 134.357 44.5911 134.027 44.8519C133.698 45.1128 133.252 45.2531 132.691 45.2729ZM140.064 45.0127C139.7 45.0255 139.392 44.9725 139.138 44.8536C138.891 44.7282 138.703 44.5431 138.573 44.2985C138.442 44.0475 138.371 43.7402 138.358 43.3764L138.272 40.9354L137.63 40.958C137.522 40.9618 137.438 40.9392 137.379 40.8902C137.319 40.8348 137.288 40.7592 137.285 40.6635C137.281 40.5678 137.307 40.4934 137.363 40.4403C137.419 40.3872 137.501 40.3587 137.609 40.3549L138.25 40.3323L138.212 39.2314C138.207 39.1038 138.239 39.0068 138.307 38.9405C138.374 38.8678 138.469 38.8294 138.59 38.8251C138.711 38.8208 138.805 38.8526 138.872 38.9206C138.944 38.9819 138.982 39.0764 138.987 39.204L139.026 40.3049L140.232 40.2623C140.34 40.2585 140.424 40.2811 140.484 40.3301C140.543 40.3791 140.574 40.4515 140.578 40.5473C140.581 40.643 140.555 40.7206 140.499 40.78C140.444 40.8331 140.362 40.8616 140.253 40.8654L139.047 40.908L139.131 43.2724C139.143 43.6362 139.23 43.9111 139.39 44.0972C139.549 44.2768 139.802 44.3606 140.146 44.3484C140.267 44.3441 140.369 44.3278 140.451 44.2993C140.54 44.2706 140.613 44.2553 140.67 44.2533C140.727 44.2448 140.776 44.2623 140.816 44.3056C140.855 44.3489 140.877 44.4248 140.881 44.5333C140.884 44.6099 140.87 44.6807 140.841 44.7456C140.817 44.8103 140.771 44.8567 140.702 44.8847C140.626 44.9129 140.525 44.9389 140.398 44.9625C140.278 44.9923 140.166 45.0091 140.064 45.0127ZM143.009 44.9087C142.69 44.92 142.4 44.8695 142.141 44.7572C141.888 44.6384 141.684 44.4731 141.529 44.2613C141.375 44.0495 141.293 43.8095 141.283 43.5415C141.271 43.1969 141.348 42.9226 141.513 42.7187C141.685 42.5146 141.97 42.3639 142.369 42.2668C142.775 42.1694 143.329 42.1083 144.031 42.0835L144.461 42.0683L144.479 42.5757L144.058 42.5905C143.541 42.6088 143.134 42.6487 142.835 42.7104C142.543 42.7654 142.339 42.8525 142.222 42.9716C142.111 43.0906 142.059 43.2553 142.067 43.4659C142.076 43.7276 142.173 43.9382 142.357 44.0978C142.548 44.2572 142.8 44.3314 143.113 44.3204C143.368 44.3114 143.589 44.2429 143.776 44.1148C143.97 43.9866 144.117 43.8153 144.218 43.6008C144.326 43.3862 144.375 43.1417 144.365 42.8672L144.326 41.7759C144.312 41.3803 144.223 41.0991 144.057 40.9324C143.891 40.7594 143.626 40.6793 143.263 40.6921C143.039 40.7 142.817 40.7366 142.596 40.8019C142.374 40.8672 142.141 40.9681 141.897 41.1045C141.809 41.1523 141.733 41.171 141.669 41.1605C141.604 41.1436 141.552 41.1103 141.512 41.0606C141.472 41.0109 141.448 40.9542 141.439 40.8906C141.43 40.8207 141.44 40.7532 141.47 40.6883C141.506 40.6231 141.562 40.57 141.637 40.529C141.913 40.3787 142.187 40.2668 142.459 40.1933C142.731 40.1198 142.992 40.0786 143.241 40.0699C143.643 40.0557 143.977 40.111 144.243 40.2357C144.509 40.3541 144.711 40.5451 144.848 40.8086C144.985 41.0658 145.061 41.4018 145.075 41.8166L145.167 44.4108C145.172 44.5384 145.143 44.6385 145.082 44.7109C145.027 44.7832 144.942 44.8213 144.827 44.8254C144.706 44.8296 144.612 44.7978 144.546 44.7299C144.479 44.6619 144.444 44.5641 144.439 44.4365L144.413 43.6898L144.499 43.6868C144.457 43.9311 144.365 44.142 144.225 44.3195C144.09 44.4967 143.919 44.637 143.712 44.7401C143.505 44.8433 143.271 44.8995 143.009 44.9087ZM148.19 44.7258C147.903 44.7359 147.612 44.7111 147.316 44.6513C147.026 44.5912 146.754 44.4794 146.499 44.3159C146.433 44.2735 146.387 44.224 146.359 44.1674C146.331 44.1045 146.32 44.0442 146.324 43.9866C146.335 43.9223 146.358 43.8672 146.395 43.8211C146.438 43.7749 146.488 43.7476 146.545 43.7392C146.609 43.7241 146.679 43.7344 146.757 43.77C147.012 43.9144 147.255 44.0144 147.487 44.0701C147.725 44.1192 147.959 44.1397 148.189 44.1316C148.552 44.1188 148.824 44.0421 149.005 43.9015C149.185 43.761 149.271 43.5758 149.263 43.3461C149.257 43.1674 149.191 43.0291 149.066 42.9313C148.941 42.8271 148.747 42.7509 148.483 42.7027L147.605 42.542C147.2 42.4732 146.895 42.3402 146.69 42.143C146.492 41.9455 146.386 41.6841 146.375 41.3586C146.365 41.0714 146.43 40.8231 146.569 40.6137C146.715 40.3977 146.923 40.2274 147.193 40.1029C147.464 39.9783 147.781 39.9096 148.144 39.8968C148.425 39.8869 148.691 39.9158 148.943 39.9836C149.201 40.0448 149.435 40.1515 149.644 40.3039C149.71 40.3463 149.753 40.3991 149.775 40.4622C149.802 40.5188 149.808 40.5793 149.791 40.6438C149.78 40.7017 149.753 40.7537 149.71 40.8C149.667 40.8398 149.613 40.8641 149.55 40.8727C149.486 40.8814 149.418 40.8646 149.346 40.8224C149.151 40.7015 148.953 40.6158 148.753 40.5654C148.553 40.5086 148.357 40.4835 148.165 40.4903C147.808 40.5029 147.539 40.5827 147.359 40.7296C147.179 40.8765 147.093 41.0649 147.101 41.2946C147.107 41.4733 147.17 41.6181 147.289 41.7289C147.408 41.8397 147.59 41.9163 147.834 41.9588L148.711 42.11C149.129 42.1847 149.444 42.3173 149.655 42.508C149.873 42.692 149.987 42.9499 149.999 43.2818C150.014 43.703 149.856 44.044 149.527 44.3048C149.197 44.5657 148.752 44.706 148.19 44.7258ZM151.611 44.5859C151.484 44.5904 151.387 44.5587 151.321 44.4907C151.254 44.4228 151.219 44.325 151.214 44.1973L150.999 38.1091C150.995 37.9815 151.023 37.8846 151.085 37.8185C151.146 37.7461 151.241 37.7076 151.368 37.7031C151.49 37.6988 151.587 37.7305 151.659 37.7983C151.732 37.8596 151.77 37.9541 151.775 38.0817L151.91 41.9204L151.929 41.9197L153.826 39.9742C153.912 39.8881 153.986 39.8215 154.049 39.7746C154.117 39.7275 154.209 39.7019 154.324 39.6978C154.426 39.6942 154.507 39.7201 154.566 39.7755C154.625 39.8245 154.653 39.8907 154.65 39.9738C154.653 40.0504 154.617 40.1347 154.544 40.2268L152.527 42.282L152.512 41.8608L154.856 43.9154C154.949 44.0016 154.996 44.0862 154.999 44.1692C155.002 44.2521 154.973 44.3235 154.911 44.3832C154.856 44.4426 154.78 44.474 154.684 44.4774C154.569 44.4815 154.476 44.4624 154.404 44.4202C154.332 44.3716 154.244 44.3013 154.138 44.2092L151.944 42.3218L151.924 42.3224L151.99 44.17C151.999 44.438 151.873 44.5766 151.611 44.5859Z" fill="black"/>
<path d="M56.3232 61.1607C56.036 61.1709 55.7569 61.1567 55.486 61.1184C55.2151 61.08 54.9613 61.0171 54.7246 60.9296C54.4936 60.8359 54.2829 60.7206 54.0923 60.5835C54.031 60.5437 53.9875 60.4974 53.9616 60.4444C53.9416 60.3852 53.9367 60.3314 53.947 60.2831C53.963 60.2287 53.9883 60.1828 54.023 60.1457C54.0636 60.1083 54.1108 60.0887 54.1647 60.0867C54.2183 60.0789 54.2758 60.0948 54.3371 60.1346C54.6195 60.3283 54.9149 60.4676 55.2234 60.5526C55.5379 60.6373 55.8986 60.6725 56.3054 60.6581C56.8738 60.6381 57.2947 60.5124 57.5681 60.2811C57.8475 60.0496 57.9808 59.7544 57.9681 59.3954C57.9576 59.0962 57.8446 58.8666 57.6293 58.7065C57.42 58.5461 57.0773 58.4264 56.6013 58.3474L55.6882 58.1909C55.1158 58.0973 54.6872 57.9207 54.4025 57.6612C54.1178 57.4017 53.9675 57.0476 53.9517 56.5989C53.942 56.3236 53.9871 56.0735 54.0869 55.8483C54.1866 55.6171 54.3323 55.4173 54.524 55.2488C54.7158 55.0803 54.9448 54.9494 55.2111 54.8561C55.4831 54.7567 55.7837 54.7011 56.1127 54.6895C56.5016 54.6758 56.8595 54.7171 57.1864 54.8134C57.5192 54.9094 57.8244 55.0694 58.1019 55.2932C58.1572 55.3332 58.1949 55.3828 58.215 55.442C58.2348 55.4952 58.2367 55.549 58.2207 55.6035C58.2044 55.652 58.1789 55.6919 58.144 55.723C58.1092 55.7542 58.0649 55.7738 58.0113 55.7816C57.9574 55.7835 57.8998 55.7616 57.8382 55.7159C57.5798 55.5213 57.3114 55.384 57.033 55.304C56.7604 55.2178 56.4595 55.1805 56.1305 55.1921C55.7954 55.2039 55.5042 55.2681 55.2567 55.3847C55.0152 55.501 54.8291 55.6603 54.6985 55.8626C54.5678 56.0649 54.5073 56.3007 54.5168 56.5699C54.5277 56.881 54.6322 57.126 54.8302 57.3047C55.0282 57.4834 55.3411 57.6071 55.7689 57.6759L56.6909 57.832C57.2996 57.9364 57.755 58.109 58.057 58.3499C58.3588 58.5849 58.5174 58.9177 58.5326 59.3485C58.5416 59.6058 58.4961 59.844 58.3961 60.0632C58.3017 60.2762 58.1586 60.4639 57.9667 60.6265C57.7747 60.789 57.5396 60.9171 57.2614 61.0108C56.9889 61.0983 56.6762 61.1483 56.3232 61.1607ZM61.3347 60.9838C61.0116 60.9952 60.7403 60.9449 60.5207 60.8328C60.301 60.7208 60.1335 60.556 60.018 60.3384C59.9023 60.1148 59.8386 59.8385 59.827 59.5095L59.7402 57.0505L59.0761 57.0739C58.9983 57.0767 58.9348 57.0609 58.8857 57.0267C58.8364 56.9865 58.8104 56.9305 58.8079 56.8588C58.8056 56.7929 58.8277 56.7412 58.8743 56.7037C58.9207 56.6601 58.9828 56.6369 59.0606 56.6342L59.7247 56.6107L59.6851 55.4889C59.6817 55.3932 59.7032 55.3236 59.7496 55.28C59.7957 55.2304 59.8637 55.2041 59.9534 55.2009C60.0372 55.1979 60.1039 55.2196 60.1534 55.2657C60.2028 55.3059 60.2291 55.3739 60.2325 55.4696L60.2721 56.5914L61.4836 56.5486C61.5674 56.5457 61.631 56.5644 61.6743 56.6048C61.7175 56.6392 61.7402 56.6894 61.7425 56.7552C61.7451 56.827 61.7261 56.8845 61.6857 56.9279C61.6451 56.9653 61.5829 56.9854 61.4992 56.9884L60.2876 57.0312L60.3719 59.4184C60.3848 59.7833 60.4694 60.0589 60.6257 60.2451C60.782 60.4312 61.0337 60.5182 61.3807 60.506C61.5004 60.5017 61.5987 60.4863 61.6756 60.4596C61.7583 60.4267 61.8266 60.4093 61.8804 60.4074C61.9223 60.406 61.9589 60.4226 61.99 60.4575C62.0272 60.4921 62.0472 60.5483 62.0499 60.6261C62.0516 60.674 62.0413 60.7223 62.0191 60.771C62.0028 60.8195 61.968 60.8506 61.9145 60.8645C61.8496 60.8908 61.7606 60.9149 61.6475 60.9368C61.5347 60.9648 61.4304 60.9804 61.3347 60.9838ZM64.2331 60.8815C63.8861 60.8938 63.5937 60.8412 63.3559 60.7238C63.1241 60.6062 62.947 60.4237 62.8244 60.1764C62.7019 59.9292 62.634 59.6201 62.621 59.2491L62.5323 56.7363C62.5289 56.6405 62.5503 56.5679 62.5964 56.5184C62.6426 56.4688 62.7106 56.4424 62.8003 56.4393C62.8841 56.4363 62.9507 56.4579 63.0003 56.5041C63.0498 56.5503 63.0763 56.6212 63.0797 56.717L63.1674 59.2029C63.1822 59.6217 63.2801 59.9327 63.461 60.136C63.6417 60.3333 63.9175 60.4254 64.2884 60.4123C64.6952 60.3979 65.0196 60.2517 65.2613 59.9736C65.5029 59.6895 65.6159 59.3261 65.6003 58.8834L65.5207 56.6308C65.5174 56.5351 65.5388 56.4624 65.5849 56.4129C65.6311 56.3633 65.6991 56.3369 65.7888 56.3338C65.8726 56.3308 65.9392 56.3524 65.9888 56.3986C66.0383 56.4448 66.0648 56.5157 66.0682 56.6115L66.206 60.5153C66.2125 60.7008 66.129 60.7966 65.9555 60.8027C65.8718 60.8057 65.8051 60.7841 65.7556 60.7379C65.706 60.6917 65.6797 60.6238 65.6765 60.534L65.6451 59.6456L65.755 59.7046C65.6542 60.0736 65.4666 60.3587 65.1922 60.5601C64.9177 60.7615 64.598 60.8686 64.2331 60.8815ZM69.3192 60.702C68.9303 60.7157 68.5861 60.638 68.2866 60.4689C67.9929 60.2935 67.7593 60.0412 67.586 59.7118C67.4184 59.3763 67.3265 58.9782 67.3102 58.5175C67.2939 58.0568 67.3577 57.6562 67.5014 57.3157C67.6451 56.9751 67.8573 56.7071 68.1379 56.5114C68.4246 56.3156 68.7653 56.2107 69.1602 56.1968C69.567 56.1824 69.9177 56.2749 70.2123 56.4742C70.5069 56.6734 70.7083 56.9479 70.8164 57.2975L70.7177 57.301L70.6179 54.474C70.6146 54.3783 70.6361 54.3086 70.6824 54.2651C70.7286 54.2155 70.7936 54.1893 70.8773 54.1863C70.9671 54.1831 71.0367 54.2046 71.0863 54.2508C71.1356 54.291 71.162 54.359 71.1654 54.4547L71.3729 60.333C71.376 60.4227 71.3545 60.4923 71.3084 60.5419C71.2622 60.5915 71.1972 60.6177 71.1135 60.6207C71.0237 60.6238 70.9541 60.6023 70.9045 60.5562C70.855 60.51 70.8286 60.442 70.8254 60.3523L70.7928 59.4279L70.8937 59.4872C70.8105 59.8436 70.6289 60.1316 70.3492 60.3511C70.0694 60.5707 69.726 60.6876 69.3192 60.702ZM69.3748 60.2417C69.674 60.2312 69.9288 60.1533 70.1394 60.0081C70.3557 59.8567 70.5159 59.6444 70.6201 59.3711C70.7302 59.0977 70.7787 58.7725 70.7653 58.3955C70.7453 57.8272 70.5981 57.3921 70.3239 57.0902C70.0557 56.7882 69.6972 56.6451 69.2484 56.6609C68.9553 56.6713 68.7005 56.7522 68.4842 56.9036C68.2737 57.0488 68.1134 57.2581 68.0032 57.5316C67.8988 57.7988 67.8533 58.1209 67.8666 58.4979C67.8869 59.0722 68.0341 59.5103 68.3084 59.8121C68.5826 60.114 68.9381 60.2572 69.3748 60.2417ZM73.0979 60.5326C73.0082 60.5358 72.9384 60.5113 72.8887 60.4592C72.8389 60.407 72.8124 60.3361 72.8093 60.2463L72.6737 56.4053C72.6703 56.3095 72.6917 56.2369 72.7379 56.1873C72.784 56.1378 72.852 56.1114 72.9418 56.1082C73.0255 56.1053 73.0922 56.1269 73.1417 56.1731C73.1913 56.2192 73.2177 56.2902 73.2211 56.3859L73.3567 60.227C73.3599 60.3167 73.3385 60.3894 73.2925 60.4449C73.2525 60.5002 73.1877 60.5295 73.0979 60.5326ZM72.9034 55.0223C72.7778 55.0268 72.6779 54.9974 72.6038 54.9341C72.5356 54.8706 72.4995 54.779 72.4952 54.6594C72.491 54.5397 72.5208 54.4488 72.5845 54.3866C72.6539 54.3183 72.7515 54.2819 72.8771 54.2775C73.0028 54.273 73.0997 54.3026 73.1678 54.366C73.2417 54.4233 73.2808 54.5118 73.285 54.6315C73.2892 54.7511 73.2566 54.8451 73.1871 54.9135C73.1236 54.9816 73.0291 55.0179 72.9034 55.0223ZM75.088 60.4804C74.9983 60.4835 74.9286 60.462 74.8791 60.4159C74.8295 60.3697 74.8032 60.3017 74.8 60.212L74.6622 56.3081C74.6588 56.2124 74.6802 56.1397 74.7264 56.0902C74.7725 56.0406 74.8405 56.0143 74.9303 56.0111C75.014 56.0081 75.0777 56.0299 75.1212 56.0762C75.1708 56.1224 75.1973 56.1934 75.2006 56.2891L75.2304 57.1327L75.1298 57.0823C75.2368 56.7191 75.4306 56.4397 75.7112 56.2441C75.9979 56.0483 76.3296 55.9437 76.7066 55.9304C77.0536 55.9182 77.343 55.9709 77.5748 56.0885C77.8123 56.1999 77.9924 56.3792 78.1149 56.6265C78.2375 56.8738 78.3054 57.1859 78.3187 57.5628L78.4077 60.0846C78.4109 60.1744 78.3894 60.244 78.3432 60.2936C78.297 60.3431 78.2321 60.3694 78.1483 60.3723C78.0585 60.3755 77.9889 60.354 77.9393 60.3078C77.8898 60.2617 77.8634 60.1937 77.8603 60.104L77.7728 57.627C77.7574 57.1903 77.6595 56.8762 77.479 56.6849C77.2983 56.4876 77.0195 56.3956 76.6426 56.4089C76.2118 56.4241 75.8695 56.571 75.6158 56.8495C75.3678 57.1219 75.2518 57.4824 75.2676 57.9311L75.3474 60.1927C75.354 60.3781 75.2675 60.474 75.088 60.4804ZM81.7829 61.8794C81.4598 61.8908 81.1442 61.86 80.8361 61.787C80.5342 61.7198 80.2575 61.6008 80.0058 61.43C79.9569 61.4018 79.9226 61.364 79.903 61.3168C79.8894 61.2694 79.8877 61.2215 79.8979 61.1732C79.9084 61.1309 79.928 61.0913 79.9566 61.0543C79.9913 61.0172 80.0294 60.9948 80.0711 60.9874C80.1187 60.9797 80.1669 60.987 80.2156 61.0092C80.485 61.1734 80.7405 61.2842 80.9822 61.3416C81.23 61.4047 81.4855 61.4317 81.7488 61.4224C82.1855 61.4069 82.5133 61.2726 82.732 61.0193C82.9509 60.7719 83.0524 60.4239 83.0366 59.9752L82.9973 58.8623L83.087 58.8592C83.0104 59.2333 82.8292 59.5302 82.5434 59.75C82.2576 59.9697 81.9143 60.0867 81.5134 60.1008C81.1126 60.115 80.7624 60.0375 80.4629 59.8683C80.1632 59.6932 79.9269 59.4469 79.7539 59.1296C79.5867 58.806 79.4956 58.4288 79.4803 57.998C79.4689 57.675 79.5035 57.3802 79.5839 57.1138C79.6644 56.8474 79.785 56.6155 79.9457 56.4181C80.1125 56.2205 80.3137 56.0667 80.5495 55.9565C80.785 55.8404 81.0553 55.7769 81.3604 55.7662C81.7613 55.752 82.1121 55.8474 82.4129 56.0525C82.7134 56.2515 82.9119 56.5291 83.0084 56.8851L82.9205 56.9421L82.8879 56.0177C82.8845 55.922 82.9059 55.8494 82.9521 55.7998C82.9982 55.7503 83.0632 55.724 83.147 55.7211C83.2367 55.7179 83.3034 55.7395 83.3469 55.7859C83.3965 55.8321 83.423 55.903 83.4263 55.9987L83.5632 59.8757C83.5858 60.5159 83.4472 61.003 83.1475 61.337C82.848 61.6771 82.3932 61.8579 81.7829 61.8794ZM81.5598 59.6319C81.8589 59.6214 82.1138 59.5435 82.3243 59.3983C82.5406 59.2469 82.7041 59.0434 82.8149 58.7879C82.9255 58.5264 82.9747 58.2221 82.9624 57.8751C82.9441 57.3546 82.7979 56.9464 82.5238 56.6506C82.2498 56.3548 81.8884 56.2148 81.4397 56.2306C81.1406 56.2412 80.8827 56.3192 80.6662 56.4646C80.4497 56.61 80.2862 56.8135 80.1756 57.0749C80.0708 57.3302 80.0245 57.6314 80.0368 57.9784C80.0551 58.4989 80.2014 58.9101 80.4757 59.2119C80.7497 59.5078 81.1111 59.6478 81.5598 59.6319Z" fill="#888888"/>
<rect x="20.7109" y="86.9844" width="98.1816" height="21.5521" rx="5.98668" transform="rotate(-2.02163 20.7109 86.9844)" fill="#42AB00"/>
<circle cx="52.6857" cy="96.654" r="3.49428" transform="rotate(-2.02163 52.6857 96.654)" fill="white"/>
<path d="M48.4582 98.5971L48.4582 98.5971C48.1953 98.0429 48.0521 97.4452 48.0295 96.8026C48.0068 96.1599 48.1074 95.5537 48.3306 94.9823L48.3306 94.9822C48.5546 94.4079 48.8677 93.9057 49.2699 93.4741C49.672 93.0425 50.1509 92.6946 50.708 92.4304C51.2622 92.1678 51.8599 92.0248 52.5026 92.0021C53.1452 91.9794 53.7515 92.0799 54.3229 92.3028C54.8972 92.5271 55.3995 92.8404 55.831 93.2425C56.2626 93.6446 56.6104 94.1236 56.8743 94.6807L56.8743 94.6807C57.1372 95.2349 57.2804 95.8326 57.303 96.4752C57.3257 97.1179 57.2251 97.7241 57.0019 98.2955L57.0019 98.2956C56.7779 98.8699 56.4648 99.3721 56.0626 99.8037C55.6605 100.235 55.1816 100.583 54.6245 100.847L54.6244 100.847C54.0702 101.11 53.4726 101.253 52.8299 101.276C52.1873 101.298 51.581 101.198 51.0097 100.975L51.0096 100.975C50.4353 100.751 49.933 100.437 49.5015 100.035C49.0699 99.6331 48.7221 99.1542 48.4582 98.5971ZM52.0191 97.3126L51.0508 96.4103C50.93 96.2977 50.7818 96.2442 50.6158 96.25C50.4459 96.256 50.2992 96.3268 50.1816 96.453C50.0672 96.5757 50.0157 96.7287 50.0217 96.9C50.0278 97.0712 50.09 97.2202 50.2127 97.3346L51.625 98.6506C51.7477 98.7649 51.9008 98.8165 52.072 98.8104C52.2432 98.8044 52.3922 98.7422 52.5066 98.6194L55.127 95.8073C55.2395 95.6865 55.2931 95.5383 55.2873 95.3723C55.2813 95.2024 55.2105 95.0556 55.0843 94.9381C54.9616 94.8237 54.8085 94.7721 54.6373 94.7782C54.4661 94.7842 54.3171 94.8465 54.2027 94.9692L52.0191 97.3126Z" fill="#42AB00" stroke="white" stroke-width="0.299334"/>
<path d="M64.36 98.2699C64.2882 98.2724 64.2298 98.2585 64.1848 98.2281C64.1438 98.1976 64.1183 98.1546 64.1083 98.099C64.0984 98.0435 64.1082 97.9812 64.1377 97.9123L65.6405 94.1572C65.6735 94.0721 65.7172 94.0107 65.7718 93.9728C65.8262 93.931 65.8873 93.9088 65.9551 93.9064C66.0229 93.9041 66.0835 93.9219 66.1367 93.9599C66.1939 93.9939 66.2438 94.052 66.2867 94.1344L68.0505 97.7742C68.0848 97.8409 68.0991 97.9043 68.0932 97.9644C68.0912 98.0203 68.0708 98.065 68.032 98.0983C67.9931 98.1276 67.9378 98.1436 67.866 98.1461C67.7862 98.1489 67.7217 98.1312 67.6724 98.093C67.623 98.0508 67.5789 97.9905 67.5402 97.912L67.0804 96.9338L67.3427 97.0683L64.782 97.1587L65.0342 97.006L64.6445 98.0142C64.6117 98.1032 64.574 98.1685 64.5316 98.2099C64.489 98.2473 64.4318 98.2673 64.36 98.2699ZM65.9668 94.577L65.1114 96.8176L64.9634 96.697L67.1292 96.6206L66.996 96.7511L65.9788 94.5765L65.9668 94.577ZM69.0829 98.1031C68.9952 98.1062 68.9265 98.0847 68.8769 98.0385C68.8273 97.9884 68.8008 97.9174 68.7975 97.8257L68.6672 94.1342C68.664 94.0425 68.6855 93.9718 68.7316 93.9223C68.7818 93.8726 68.8508 93.8462 68.9385 93.8431L70.3625 93.7928C70.8172 93.7768 71.1701 93.8761 71.4213 94.0909C71.6765 94.3055 71.8112 94.6143 71.8254 95.0171C71.8398 95.424 71.7272 95.7434 71.4878 95.9755C71.2524 96.2075 70.9073 96.3315 70.4526 96.3475L69.3039 96.3881L69.354 97.806C69.3572 97.8978 69.3358 97.9704 69.2898 98.024C69.2476 98.0734 69.1786 98.0998 69.0829 98.1031ZM69.2881 95.9394L70.365 95.9013C70.6761 95.8904 70.907 95.8123 71.0576 95.6672C71.2121 95.518 71.2845 95.3078 71.275 95.0366C71.2654 94.7653 71.1784 94.5647 71.0141 94.4347C70.8536 94.3006 70.6178 94.2391 70.3067 94.25L69.2298 94.2881L69.2881 95.9394ZM72.8924 97.9687C72.8046 97.9718 72.736 97.9502 72.6864 97.9041C72.6367 97.8539 72.6102 97.783 72.607 97.6912L72.4767 93.9997C72.4735 93.908 72.4949 93.8373 72.5411 93.7878C72.5913 93.7381 72.6602 93.7117 72.748 93.7086L74.1719 93.6583C74.6266 93.6423 74.9796 93.7417 75.2308 93.9564C75.4859 94.1711 75.6206 94.4798 75.6349 94.8827C75.6492 95.2895 75.5367 95.609 75.2973 95.8411C75.0619 96.073 74.7168 96.197 74.2621 96.2131L73.1134 96.2536L73.1634 97.6716C73.1667 97.7633 73.1453 97.836 73.0992 97.8895C73.057 97.9389 72.9881 97.9653 72.8924 97.9687ZM73.0975 95.8049L74.1745 95.7669C74.4856 95.7559 74.7164 95.6779 74.8671 95.5328C75.0216 95.3835 75.094 95.1733 75.0844 94.9021C75.0749 94.6309 74.9879 94.4303 74.8236 94.3003C74.6631 94.1662 74.4273 94.1046 74.1162 94.1156L73.0392 94.1536L73.0975 95.8049ZM76.7018 97.8342C76.6141 97.8373 76.5454 97.8158 76.4959 97.7696C76.4462 97.7194 76.4197 97.6485 76.4165 97.5567L76.2862 93.8653C76.2829 93.7735 76.3044 93.7029 76.3506 93.6533C76.4007 93.6036 76.4697 93.5772 76.5574 93.5741L77.9814 93.5239C78.4361 93.5078 78.7889 93.6032 79.0398 93.81C79.2946 94.0127 79.4288 94.3094 79.4426 94.7003C79.4516 94.9556 79.4035 95.1769 79.2983 95.3644C79.193 95.5478 79.0363 95.6911 78.8283 95.7943C78.6203 95.8975 78.3667 95.9544 78.0675 95.9649L78.1244 95.879L78.256 95.8744C78.4156 95.8688 78.5546 95.9038 78.6731 95.9795C78.7956 96.055 78.9058 96.1789 79.0037 96.3512L79.5898 97.3429C79.628 97.4054 79.6461 97.4667 79.6442 97.5267C79.6424 97.5866 79.6222 97.6373 79.5837 97.6786C79.5451 97.7159 79.4879 97.7359 79.4121 97.7385C79.3323 97.7414 79.2679 97.7277 79.219 97.6974C79.1698 97.6632 79.1261 97.6129 79.0878 97.5463L78.3998 96.3845C78.3062 96.2201 78.2026 96.1139 78.0891 96.066C77.9754 96.0141 77.8249 95.9915 77.6374 95.9981L76.9195 96.0234L76.9729 97.5371C76.9761 97.6288 76.9547 97.7015 76.9087 97.755C76.8665 97.8044 76.7976 97.8308 76.7018 97.8342ZM76.9042 95.5926L77.9632 95.5553C78.2823 95.544 78.5193 95.4697 78.6742 95.3325C78.829 95.1912 78.9018 94.991 78.8926 94.7317C78.8835 94.4725 78.7968 94.2798 78.6326 94.1538C78.4684 94.0278 78.2268 93.9705 77.9077 93.9817L76.8487 94.0191L76.9042 95.5926ZM82.2243 97.6513C81.8255 97.6653 81.4773 97.5898 81.18 97.4245C80.8825 97.2553 80.6463 97.0121 80.4713 96.6948C80.3002 96.3733 80.2069 95.9932 80.1914 95.5545C80.1798 95.2234 80.2151 94.9247 80.2976 94.6582C80.3799 94.3877 80.5015 94.1558 80.6624 93.9624C80.8272 93.7649 81.0274 93.612 81.2632 93.5039C81.503 93.3956 81.7725 93.3361 82.0716 93.3256C82.4705 93.3115 82.8186 93.3871 83.116 93.5523C83.4133 93.7175 83.6475 93.9588 83.8185 94.2763C83.9894 94.5937 84.0826 94.9718 84.0981 95.4106C84.1098 95.7416 84.0745 96.0424 83.9922 96.3129C83.9099 96.5834 83.7863 96.8174 83.6216 97.0149C83.4608 97.2122 83.2625 97.365 83.0267 97.4732C82.7909 97.5813 82.5235 97.6407 82.2243 97.6513ZM82.207 97.1607C82.4942 97.1505 82.7372 97.076 82.9359 96.9372C83.1347 96.7984 83.2835 96.6015 83.3823 96.3464C83.4852 96.0912 83.5304 95.7881 83.518 95.4371C83.4992 94.9066 83.3651 94.5 83.1155 94.2172C82.8699 93.9344 82.5277 93.8007 82.089 93.8162C81.8018 93.8263 81.5568 93.9009 81.354 94.0398C81.1551 94.1746 81.0063 94.3696 80.9074 94.6247C80.8085 94.8758 80.7652 95.1788 80.7778 95.5338C80.7964 96.0603 80.9305 96.4669 81.1803 96.7536C81.43 97.0403 81.7722 97.176 82.207 97.1607ZM86.513 97.4879C86.4292 97.4908 86.3608 97.4753 86.3077 97.4412C86.2544 97.4032 86.2084 97.3449 86.1697 97.2664L84.4176 93.6202C84.383 93.5455 84.3708 93.482 84.3809 93.4298C84.3949 93.3734 84.4233 93.3304 84.4662 93.301C84.513 93.2674 84.5682 93.2494 84.6321 93.2472C84.7158 93.2442 84.7783 93.26 84.8194 93.2945C84.8646 93.3288 84.9044 93.3813 84.9388 93.452L86.6089 96.9813L86.3995 96.9887L87.8106 93.3506C87.84 93.2777 87.876 93.2225 87.9186 93.1851C87.9612 93.1476 88.0224 93.1275 88.1022 93.1247C88.166 93.1224 88.2184 93.1366 88.2594 93.1671C88.3044 93.1974 88.3319 93.2404 88.3418 93.2959C88.3556 93.3474 88.3498 93.4095 88.3245 93.4823L86.8278 97.2431C86.7987 97.324 86.759 97.3854 86.7085 97.4271C86.6619 97.4647 86.5967 97.4849 86.513 97.4879ZM89.3913 97.3444C89.2956 97.3477 89.2209 97.3244 89.1672 97.2744C89.1135 97.2244 89.085 97.1515 89.0816 97.0558L88.9538 93.4361C88.9505 93.3403 88.9738 93.2656 89.0238 93.212C89.0738 93.1583 89.1467 93.1297 89.2424 93.1264L91.4442 93.0487C91.5199 93.046 91.5785 93.0639 91.6198 93.1024C91.6649 93.1367 91.6888 93.1898 91.6913 93.2616C91.694 93.3374 91.6741 93.396 91.6316 93.4374C91.5931 93.4787 91.536 93.5007 91.4602 93.5034L89.4978 93.5726L89.547 94.9667L91.3838 94.9018C91.4596 94.8991 91.5181 94.917 91.5594 94.9555C91.6007 94.994 91.6226 95.0491 91.6251 95.1209C91.6278 95.1967 91.6099 95.2553 91.5714 95.2966C91.5328 95.3339 91.4756 95.3538 91.3998 95.3565L89.5631 95.4214L89.6146 96.8812L91.577 96.8119C91.6528 96.8093 91.7113 96.8272 91.7526 96.8656C91.7978 96.9 91.8217 96.9551 91.8243 97.0308C91.827 97.1066 91.8071 97.1652 91.7646 97.2067C91.726 97.244 91.6688 97.264 91.593 97.2666L89.3913 97.3444Z" fill="white"/>
<rect x="128.406" y="83.1836" width="98.1816" height="21.5521" rx="5.98668" transform="rotate(-2.02163 128.406 83.1836)" fill="#EB4335" fill-opacity="0.08"/>
<ellipse cx="163.168" cy="92.7381" rx="4.45936" ry="4.67171" transform="rotate(-2.02163 163.168 92.7381)" fill="#EB4335"/>
<path d="M159.892 96.0454C158.071 94.3486 157.97 91.4968 159.667 89.6757C161.364 87.8547 164.215 87.754 166.037 89.4509C167.858 91.1477 167.958 93.9996 166.261 95.8206C164.564 97.6416 161.713 97.7423 159.892 96.0454ZM161.337 93.9328C161.193 94.0873 161.202 94.3294 161.356 94.4734C161.511 94.6174 161.753 94.6088 161.897 94.4543L162.983 93.2887L164.149 94.3748C164.303 94.5188 164.545 94.5102 164.689 94.3557C164.833 94.2012 164.825 93.9592 164.67 93.8151L163.505 92.7291L164.591 91.5636C164.735 91.409 164.726 91.1669 164.572 91.023C164.417 90.879 164.175 90.8875 164.031 91.042L162.945 92.2076L161.779 91.1215C161.625 90.9775 161.383 90.9861 161.239 91.1406C161.095 91.2951 161.103 91.5372 161.258 91.6812L162.423 92.7672L161.337 93.9328Z" fill="#F9E8E6" stroke="#EB4335" stroke-width="0.299334"/>
<path d="M175.31 94.3118C175.214 94.3152 175.139 94.2918 175.085 94.2418C175.032 94.1918 175.003 94.1189 175 94.0232L174.872 90.4035C174.869 90.3078 174.892 90.2331 174.942 90.1794C174.992 90.1257 175.065 90.0972 175.161 90.0938L176.315 90.053C177.005 90.0287 177.542 90.1914 177.926 90.5413C178.314 90.8871 178.52 91.401 178.544 92.083C178.556 92.422 178.518 92.7249 178.432 92.9915C178.345 93.2581 178.214 93.4844 178.037 93.6704C177.859 93.8524 177.639 93.9959 177.375 94.1011C177.115 94.2021 176.811 94.2588 176.464 94.271L175.31 94.3118ZM175.55 93.8301L176.412 93.7996C176.683 93.7901 176.917 93.7479 177.114 93.673C177.311 93.5982 177.473 93.4906 177.6 93.3503C177.731 93.2099 177.826 93.0368 177.887 92.831C177.948 92.6212 177.973 92.3787 177.963 92.1035C177.944 91.5571 177.794 91.153 177.513 90.8914C177.236 90.6296 176.831 90.5081 176.296 90.527L175.435 90.5574L175.55 93.8301ZM179.779 94.154C179.684 94.1574 179.609 94.1341 179.555 94.084C179.501 94.034 179.473 93.9611 179.47 93.8654L179.342 90.2457C179.338 90.15 179.362 90.0753 179.412 90.0216C179.462 89.9679 179.535 89.9394 179.63 89.936L181.832 89.8583C181.908 89.8556 181.966 89.8735 182.008 89.912C182.053 89.9464 182.077 89.9994 182.079 90.0712C182.082 90.147 182.062 90.2056 182.02 90.2471C181.981 90.2884 181.924 90.3103 181.848 90.313L179.886 90.3823L179.935 91.7763L181.772 91.7115C181.847 91.7088 181.906 91.7267 181.947 91.7652C181.989 91.8037 182.011 91.8588 182.013 91.9306C182.016 92.0064 181.998 92.0649 181.959 92.1062C181.921 92.1435 181.864 92.1635 181.788 92.1662L179.951 92.231L180.003 93.6909L181.965 93.6216C182.041 93.6189 182.099 93.6368 182.141 93.6753C182.186 93.7096 182.21 93.7647 182.212 93.8405C182.215 93.9163 182.195 93.9749 182.153 94.0163C182.114 94.0536 182.057 94.0736 181.981 94.0763L179.779 94.154ZM184.825 94.0298C184.406 94.0446 184.044 93.9695 183.739 93.8046C183.433 93.6396 183.193 93.3985 183.018 93.0812C182.847 92.7598 182.754 92.3777 182.738 91.935C182.726 91.6039 182.762 91.3051 182.844 91.0386C182.927 90.7682 183.05 90.5362 183.215 90.3426C183.38 90.1451 183.584 89.9922 183.828 89.8837C184.076 89.7751 184.357 89.7153 184.672 89.7041C184.911 89.6957 185.142 89.7215 185.364 89.7816C185.59 89.8415 185.784 89.9305 185.948 90.0485C186.014 90.0901 186.057 90.1385 186.079 90.1936C186.101 90.2488 186.105 90.3025 186.091 90.3549C186.081 90.4032 186.056 90.446 186.018 90.4833C185.983 90.5165 185.938 90.5361 185.882 90.542C185.826 90.544 185.765 90.5242 185.7 90.4826C185.557 90.3798 185.4 90.3074 185.231 90.2655C185.066 90.2194 184.889 90.1997 184.702 90.2063C184.395 90.2171 184.136 90.2922 183.925 90.4314C183.718 90.5665 183.563 90.7597 183.46 91.0109C183.361 91.258 183.318 91.5591 183.33 91.914C183.343 92.265 183.407 92.5643 183.524 92.8118C183.644 93.0551 183.812 93.2389 184.029 93.363C184.248 93.4831 184.512 93.5377 184.819 93.5268C185.007 93.5202 185.183 93.488 185.349 93.4303C185.518 93.3723 185.673 93.287 185.813 93.1743C185.875 93.1281 185.932 93.1061 185.984 93.1083C186.04 93.1103 186.087 93.1266 186.124 93.1573C186.161 93.1839 186.186 93.223 186.2 93.2744C186.218 93.3217 186.219 93.3716 186.205 93.424C186.191 93.4764 186.157 93.5235 186.102 93.5654C185.944 93.7108 185.752 93.8234 185.527 93.9032C185.306 93.9789 185.072 94.0211 184.825 94.0298ZM187.287 93.889C187.199 93.8921 187.128 93.8686 187.075 93.8186C187.025 93.7685 186.999 93.6995 186.995 93.6117L186.866 89.9382C186.862 89.8465 186.884 89.7758 186.93 89.7263C186.976 89.6767 187.043 89.6504 187.131 89.6473C187.223 89.6441 187.293 89.6655 187.343 89.7117C187.393 89.7579 187.419 89.8268 187.422 89.9186L187.545 93.4007L189.448 93.3335C189.531 93.3305 189.594 93.3483 189.635 93.3868C189.681 93.4251 189.704 93.4822 189.707 93.558C189.71 93.6377 189.69 93.7003 189.648 93.7458C189.609 93.787 189.548 93.8092 189.465 93.8121L187.287 93.889ZM190.56 93.8154C190.472 93.8185 190.404 93.797 190.354 93.7508C190.304 93.7006 190.278 93.6297 190.275 93.5379L190.143 89.8105C190.14 89.7148 190.161 89.6422 190.207 89.5926C190.253 89.5431 190.32 89.5167 190.408 89.5137C190.5 89.5104 190.571 89.5319 190.62 89.5781C190.67 89.6242 190.696 89.6952 190.7 89.7909L190.831 93.5183C190.834 93.61 190.813 93.6827 190.767 93.7362C190.725 93.7856 190.656 93.812 190.56 93.8154ZM192.108 93.7608C192.028 93.7636 191.963 93.7419 191.914 93.6957C191.868 93.6494 191.844 93.5844 191.841 93.5006L191.709 89.7493C191.705 89.6576 191.725 89.587 191.767 89.5376C191.809 89.4882 191.866 89.4622 191.938 89.4596C192.006 89.4573 192.058 89.4674 192.095 89.4901C192.132 89.5127 192.173 89.5532 192.219 89.6115L194.875 92.8843L194.725 92.8896L194.61 89.6349C194.607 89.5471 194.627 89.4806 194.669 89.4351C194.715 89.3856 194.78 89.3593 194.864 89.3564C194.948 89.3534 195.012 89.3751 195.058 89.4214C195.103 89.4637 195.127 89.5288 195.131 89.6165L195.263 93.3798C195.266 93.4636 195.247 93.5302 195.205 93.5796C195.166 93.6288 195.113 93.6547 195.046 93.6571C194.982 93.6593 194.927 93.6473 194.883 93.6209C194.842 93.5984 194.798 93.558 194.752 93.4997L192.103 90.2266L192.241 90.2217L192.356 93.4824C192.359 93.5662 192.339 93.6328 192.297 93.6822C192.255 93.7316 192.192 93.7578 192.108 93.7608ZM196.583 93.5609C196.487 93.5642 196.413 93.5409 196.359 93.4909C196.305 93.4409 196.277 93.368 196.273 93.2723L196.145 89.6526C196.142 89.5569 196.165 89.4822 196.215 89.4285C196.265 89.3748 196.338 89.3463 196.434 89.3429L198.636 89.2652C198.712 89.2625 198.77 89.2804 198.811 89.3189C198.857 89.3532 198.88 89.4063 198.883 89.4781C198.886 89.5539 198.866 89.6125 198.823 89.6539C198.785 89.6952 198.728 89.7172 198.652 89.7199L196.689 89.7891L196.739 91.1832L198.575 91.1183C198.651 91.1157 198.71 91.1336 198.751 91.172C198.792 91.2105 198.814 91.2656 198.817 91.3374C198.819 91.4132 198.802 91.4718 198.763 91.5131C198.724 91.5504 198.667 91.5704 198.591 91.573L196.755 91.6379L196.806 93.0977L198.769 93.0284C198.844 93.0258 198.903 93.0437 198.944 93.0821C198.989 93.1165 199.013 93.1716 199.016 93.2473C199.019 93.3231 198.999 93.3817 198.956 93.4232C198.918 93.4605 198.86 93.4805 198.785 93.4831L196.583 93.5609Z" fill="#EB4335"/>
</g>
<defs>
<filter id="filter0_d_976_1352" x="0.0538173" y="0.0206141" width="245.783" height="128.437" filterUnits="userSpaceOnUse" color-interpolation-filters="sRGB">
<feFlood flood-opacity="0" result="BackgroundImageFix"/>
<feColorMatrix in="SourceAlpha" type="matrix" values="0 0 0 0 0 0 0 0 0 0 0 0 0 0 0 0 0 0 127 0" result="hardAlpha"/>
<feOffset/>
<feGaussianBlur stdDeviation="3.14497"/>
<feComposite in2="hardAlpha" operator="out"/>
<feColorMatrix type="matrix" values="0 0 0 0 0 0 0 0 0 0 0 0 0 0 0 0 0 0 0.15 0"/>
<feBlend mode="normal" in2="BackgroundImageFix" result="effect1_dropShadow_976_1352"/>
<feBlend mode="normal" in="SourceGraphic" in2="effect1_dropShadow_976_1352" result="shape"/>
</filter>
</defs>
</svg>
