<svg width="232" height="302" viewBox="0 0 232 302" fill="none" xmlns="http://www.w3.org/2000/svg">
<g filter="url(#filter0_d_1366_1084)">
<g clip-path="url(#clip0_1366_1084)">
<rect x="6" y="25.1477" width="193.753" height="272.836" rx="11.8624" transform="rotate(-5.75045 6 25.1477)" fill="white"/>
<path d="M124.387 31.8745C125.768 77.8405 151.598 102.122 194.698 111.091C144.608 110.599 111.652 129.344 95.9155 167.476C96.1201 118.912 71.3818 93.7413 25.605 88.2588C72.2513 87.9033 108.123 73.0553 124.387 31.8745Z" fill="#888888" fill-opacity="0.07"/>
<path d="M147.951 51.4795C148.131 57.5714 151.5 60.7895 157.122 61.9781C150.588 61.9129 146.29 64.3971 144.237 69.4507C144.264 63.0146 141.037 59.6787 135.066 58.9521C141.15 58.905 145.829 56.9372 147.951 51.4795Z" fill="#888888" fill-opacity="0.07"/>
<path d="M167.022 58.8313C167.309 68.7998 172.675 74.0658 181.628 76.0109C171.223 75.9041 164.377 79.9692 161.108 88.2388C161.151 77.7069 156.012 72.2482 146.502 71.0592C156.192 70.9821 163.644 67.7621 167.022 58.8313Z" fill="#888888" fill-opacity="0.07"/>
<path d="M77.9832 133.167C78.27 143.135 83.6356 148.401 92.5887 150.346C82.1835 150.24 75.3376 154.305 72.0687 162.574C72.1112 152.042 66.9723 146.584 57.4631 145.395C67.153 145.318 74.6045 142.098 77.9832 133.167Z" fill="#888888" fill-opacity="0.07"/>
<path d="M84.6627 198.559C84.3766 198.588 84.1454 198.53 83.969 198.386C83.8041 198.241 83.7072 198.025 83.6784 197.739L82.6895 187.919L79.05 188.286C78.8096 188.31 78.6144 188.266 78.4644 188.154C78.3132 188.03 78.2256 187.849 78.2013 187.608C78.1771 187.368 78.2274 187.178 78.352 187.038C78.4767 186.898 78.6592 186.816 78.8996 186.792L87.9469 185.881C88.1987 185.856 88.3996 185.899 88.5496 186.011C88.6996 186.123 88.7867 186.299 88.8109 186.54C88.8351 186.78 88.7855 186.976 88.662 187.127C88.5373 187.267 88.3491 187.349 88.0973 187.375L84.4578 187.741L85.4466 197.561C85.4755 197.847 85.4235 198.078 85.2909 198.253C85.1697 198.427 84.9603 198.529 84.6627 198.559ZM92.4977 197.805C91.914 197.864 91.376 197.802 90.8837 197.621C90.4029 197.438 90.0112 197.165 89.7088 196.802C89.4064 196.44 89.2304 196.012 89.1808 195.52C89.1186 194.902 89.2241 194.4 89.4974 194.014C89.781 193.616 90.2758 193.306 90.9819 193.084C91.6982 192.85 92.6744 192.671 93.9105 192.547L94.7174 192.465L94.8245 193.53L94.0348 193.609C93.2108 193.692 92.5625 193.798 92.0898 193.927C91.6172 194.055 91.2877 194.227 91.1013 194.442C90.9251 194.645 90.8538 194.912 90.8872 195.244C90.931 195.679 91.1155 196.019 91.4408 196.264C91.7648 196.497 92.1901 196.587 92.7166 196.534C93.1401 196.492 93.5022 196.357 93.8031 196.13C94.1028 195.892 94.3269 195.592 94.4755 195.23C94.6355 194.867 94.693 194.462 94.648 194.016L94.4492 192.042C94.3835 191.389 94.1989 190.934 93.8954 190.675C93.5919 190.417 93.1255 190.319 92.496 190.383C92.1297 190.42 91.7509 190.504 91.3596 190.636C90.9797 190.767 90.5889 190.962 90.1874 191.222C90.002 191.333 89.8389 191.379 89.6981 191.358C89.5573 191.338 89.4411 191.274 89.3495 191.168C89.2567 191.05 89.1977 190.923 89.1724 190.787C89.1574 190.638 89.1773 190.491 89.2322 190.347C89.2984 190.202 89.4197 190.086 89.5959 189.998C90.0753 189.707 90.5558 189.486 91.0376 189.333C91.5194 189.18 91.9777 189.082 92.4126 189.038C93.1795 188.961 93.821 189.018 94.3374 189.209C94.8652 189.398 95.274 189.727 95.5639 190.195C95.8538 190.663 96.038 191.286 96.1163 192.064L96.5606 196.477C96.5883 196.751 96.5415 196.976 96.4203 197.15C96.298 197.312 96.1052 197.407 95.8419 197.433C95.5901 197.459 95.3824 197.404 95.2186 197.271C95.0537 197.125 94.9574 196.915 94.9297 196.641L94.8173 195.525L94.9719 195.509C94.9229 195.942 94.7881 196.326 94.5675 196.66C94.3571 196.982 94.0768 197.241 93.7267 197.438C93.3766 197.635 92.967 197.758 92.4977 197.805ZM101.993 196.849C101.49 196.899 100.963 196.895 100.414 196.834C99.8757 196.773 99.3697 196.627 98.8957 196.397C98.7366 196.309 98.622 196.205 98.5521 196.085C98.4822 195.965 98.4466 195.842 98.4454 195.714C98.4545 195.575 98.4944 195.455 98.5653 195.356C98.6465 195.243 98.7489 195.169 98.8725 195.134C99.0075 195.097 99.1535 195.111 99.3103 195.176C99.7821 195.383 100.229 195.518 100.652 195.579C101.073 195.629 101.484 195.634 101.884 195.594C102.491 195.533 102.938 195.378 103.225 195.129C103.512 194.881 103.637 194.573 103.6 194.207C103.57 193.909 103.444 193.691 103.222 193.551C102.999 193.4 102.676 193.3 102.255 193.25L100.591 193.088C99.8668 193.011 99.3024 192.801 98.8981 192.461C98.4938 192.12 98.2623 191.658 98.2035 191.074C98.1505 190.547 98.2475 190.075 98.4944 189.657C98.7414 189.239 99.112 188.901 99.6063 188.644C100.099 188.374 100.684 188.206 101.359 188.138C101.862 188.087 102.344 188.102 102.803 188.183C103.262 188.264 103.693 188.411 104.096 188.625C104.253 188.69 104.361 188.789 104.421 188.922C104.479 189.043 104.497 189.168 104.476 189.298C104.466 189.426 104.42 189.546 104.339 189.658C104.256 189.759 104.148 189.828 104.013 189.865C103.888 189.889 103.741 189.869 103.573 189.805C103.208 189.622 102.849 189.502 102.496 189.445C102.155 189.387 101.819 189.375 101.487 189.408C100.88 189.469 100.434 189.63 100.148 189.89C99.8723 190.137 99.7534 190.45 99.7915 190.827C99.8203 191.113 99.9355 191.339 100.137 191.504C100.339 191.668 100.638 191.771 101.035 191.812L102.699 191.974C103.458 192.048 104.044 192.243 104.457 192.56C104.882 192.875 105.125 193.337 105.186 193.943C105.266 194.733 105.014 195.388 104.431 195.909C103.847 196.431 103.035 196.744 101.993 196.849ZM108.245 196.184C107.971 196.212 107.751 196.159 107.588 196.025C107.423 195.88 107.326 195.67 107.299 195.395L106.232 184.803C106.203 184.517 106.256 184.292 106.39 184.128C106.523 183.964 106.728 183.868 107.002 183.841C107.277 183.813 107.496 183.866 107.66 184C107.835 184.133 107.937 184.342 107.966 184.628L108.633 191.255L108.668 191.251L111.556 187.735C111.721 187.533 111.873 187.374 112.011 187.256C112.149 187.138 112.339 187.067 112.579 187.042C112.82 187.018 113.009 187.063 113.148 187.176C113.286 187.289 113.365 187.437 113.383 187.62C113.4 187.792 113.332 187.978 113.179 188.178L110.119 191.886L110.038 191.079L114.117 194.396C114.319 194.561 114.423 194.736 114.43 194.92C114.437 195.104 114.378 195.266 114.254 195.406C114.128 195.534 113.962 195.609 113.756 195.629C113.493 195.656 113.276 195.626 113.105 195.539C112.946 195.451 112.753 195.314 112.526 195.129L108.758 192.144L108.723 192.148L109.033 195.221C109.091 195.804 108.829 196.126 108.245 196.184ZM121.938 194.684C121.629 194.715 121.381 194.659 121.193 194.516C121.015 194.361 120.911 194.128 120.88 193.819L119.855 183.639C119.824 183.33 119.88 183.087 120.024 182.911C120.178 182.722 120.41 182.612 120.719 182.581L124.033 182.247C126.024 182.047 127.61 182.413 128.791 183.346C129.982 184.267 130.676 185.706 130.873 187.663C130.971 188.635 130.921 189.513 130.722 190.296C130.523 191.079 130.181 191.756 129.695 192.325C129.219 192.881 128.612 193.336 127.873 193.688C127.132 194.028 126.259 194.249 125.251 194.35L121.938 194.684ZM122.612 193.107L124.998 192.867C125.753 192.791 126.397 192.634 126.927 192.395C127.469 192.144 127.909 191.811 128.249 191.395C128.588 190.98 128.821 190.476 128.946 189.886C129.072 189.295 129.096 188.616 129.019 187.849C128.866 186.327 128.373 185.226 127.542 184.547C126.722 183.867 125.568 183.601 124.08 183.751L121.694 183.991L122.612 193.107ZM137.353 193.288C136.506 193.373 135.755 193.269 135.102 192.977C134.459 192.683 133.934 192.227 133.524 191.61C133.115 190.992 132.867 190.242 132.778 189.361C132.71 188.686 132.747 188.075 132.888 187.529C133.03 186.983 133.259 186.503 133.576 186.09C133.903 185.664 134.308 185.328 134.792 185.083C135.286 184.825 135.848 184.664 136.478 184.601C137.313 184.517 138.052 184.622 138.694 184.915C139.348 185.208 139.88 185.663 140.289 186.281C140.697 186.887 140.945 187.637 141.035 188.529C141.102 189.193 141.065 189.804 140.925 190.361C140.785 190.919 140.55 191.405 140.222 191.82C139.905 192.233 139.5 192.569 139.006 192.827C138.522 193.072 137.971 193.226 137.353 193.288ZM137.218 191.949C137.687 191.901 138.087 191.746 138.419 191.481C138.751 191.216 138.992 190.851 139.141 190.385C139.302 189.918 139.35 189.358 139.284 188.706C139.185 187.722 138.893 187 138.407 186.54C137.922 186.08 137.324 185.886 136.614 185.957C136.134 186.006 135.727 186.162 135.396 186.427C135.063 186.68 134.816 187.04 134.655 187.507C134.505 187.973 134.463 188.532 134.529 189.185C134.627 190.158 134.919 190.88 135.406 191.351C135.893 191.822 136.497 192.021 137.218 191.949ZM144.292 192.554C144.018 192.582 143.798 192.529 143.635 192.395C143.47 192.25 143.373 192.04 143.346 191.765L142.654 184.898C142.625 184.612 142.678 184.387 142.812 184.223C142.945 184.06 143.144 183.964 143.407 183.938C143.682 183.91 143.895 183.964 144.048 184.099C144.211 184.233 144.308 184.443 144.337 184.729L144.471 186.068L144.251 185.778C144.439 185.112 144.785 184.591 145.291 184.216C145.795 183.83 146.397 183.602 147.095 183.532C147.759 183.465 148.321 183.536 148.781 183.744C149.251 183.939 149.621 184.278 149.889 184.759C150.156 185.229 150.328 185.842 150.404 186.598L150.848 191.01C150.876 191.284 150.823 191.509 150.69 191.685C150.557 191.848 150.352 191.944 150.078 191.972C149.792 192 149.567 191.948 149.403 191.814C149.238 191.669 149.142 191.459 149.114 191.184L148.68 186.875C148.607 186.154 148.411 185.642 148.092 185.339C147.784 185.035 147.332 184.913 146.737 184.973C146.039 185.043 145.5 185.317 145.12 185.794C144.752 186.271 144.605 186.875 144.678 187.608L145.08 191.591C145.138 192.174 144.876 192.496 144.292 192.554ZM157.277 191.281C156.362 191.374 155.555 191.281 154.856 191.005C154.168 190.716 153.609 190.269 153.178 189.665C152.758 189.049 152.502 188.294 152.412 187.401C152.325 186.531 152.426 185.752 152.715 185.064C153.004 184.376 153.439 183.818 154.02 183.389C154.601 182.961 155.287 182.707 156.076 182.627C156.66 182.569 157.191 182.613 157.668 182.762C158.144 182.899 158.561 183.134 158.918 183.468C159.286 183.79 159.576 184.2 159.788 184.699C160.012 185.197 160.156 185.766 160.22 186.407C160.24 186.601 160.197 186.756 160.093 186.87C159.988 186.974 159.821 187.037 159.592 187.06L153.824 187.641L153.717 186.576L159.004 186.044L158.737 186.313C158.679 185.741 158.544 185.263 158.332 184.88C158.132 184.496 157.855 184.217 157.502 184.045C157.16 183.859 156.748 183.791 156.268 183.839C155.73 183.894 155.285 184.066 154.932 184.355C154.592 184.644 154.346 185.021 154.197 185.487C154.047 185.953 154.002 186.484 154.062 187.079L154.072 187.182C154.174 188.189 154.485 188.927 155.006 189.394C155.538 189.85 156.255 190.032 157.16 189.941C157.503 189.906 157.859 189.824 158.227 189.694C158.607 189.564 158.958 189.372 159.279 189.12C159.462 188.986 159.629 188.917 159.779 188.914C159.94 188.909 160.071 188.948 160.172 189.03C160.284 189.111 160.359 189.22 160.396 189.355C160.432 189.49 160.424 189.635 160.37 189.791C160.315 189.935 160.208 190.073 160.048 190.205C159.685 190.507 159.253 190.753 158.752 190.942C158.25 191.12 157.758 191.233 157.277 191.281Z" fill="black"/>
<path d="M60.5638 226.618C60.4207 226.633 60.3059 226.605 60.2193 226.534C60.1391 226.455 60.0915 226.341 60.0763 226.191L59.7219 222.671L59.9767 223.263L56.9096 219.822C56.8359 219.736 56.7943 219.646 56.785 219.553C56.782 219.452 56.8131 219.366 56.8781 219.294C56.9432 219.223 57.0329 219.181 57.1474 219.17C57.2475 219.159 57.3395 219.176 57.4232 219.218C57.5062 219.253 57.5849 219.317 57.6594 219.411L60.2625 222.335L60.0372 222.358L62.005 218.973C62.0728 218.858 62.1404 218.775 62.2076 218.725C62.2748 218.675 62.3585 218.645 62.4586 218.635C62.5731 218.623 62.6657 218.646 62.7366 218.704C62.8067 218.755 62.8469 218.83 62.8569 218.931C62.8735 219.023 62.8514 219.126 62.7906 219.241L60.481 223.213L60.6018 222.583L60.9562 226.102C60.9879 226.417 60.8571 226.589 60.5638 226.618ZM65.9051 226.102C65.3972 226.153 64.9462 226.087 64.5519 225.903C64.1576 225.718 63.8365 225.436 63.5887 225.057C63.3474 224.669 63.199 224.2 63.1435 223.649C63.1017 223.234 63.1215 222.856 63.2028 222.516C63.2834 222.168 63.4227 221.865 63.6207 221.607C63.8187 221.348 64.0617 221.143 64.3499 220.991C64.6446 220.832 64.9814 220.733 65.3605 220.694C65.8684 220.643 66.3195 220.71 66.7138 220.894C67.1081 221.078 67.4259 221.364 67.6673 221.752C67.915 222.132 68.0667 222.597 68.1221 223.148C68.1639 223.563 68.1441 223.94 68.0628 224.281C67.9815 224.621 67.8422 224.924 67.645 225.19C67.447 225.448 67.2007 225.657 66.9061 225.817C66.6179 225.969 66.2842 226.064 65.9051 226.102ZM65.8349 225.405C66.1568 225.372 66.4314 225.265 66.6588 225.083C66.8861 224.902 67.0491 224.654 67.1476 224.341C67.2532 224.026 67.2848 223.658 67.2423 223.236C67.1767 222.585 66.98 222.103 66.6522 221.789C66.3315 221.475 65.9243 221.342 65.4308 221.392C65.1017 221.425 64.8235 221.533 64.5962 221.714C64.3752 221.888 64.2119 222.132 64.1063 222.447C64.0071 222.753 63.9794 223.124 64.0234 223.56C64.0882 224.204 64.2849 224.687 64.6135 225.008C64.9413 225.321 65.3485 225.454 65.8349 225.405ZM71.5561 225.533C71.1341 225.576 70.776 225.536 70.4819 225.414C70.1942 225.284 69.9634 225.072 69.7893 224.779C69.6224 224.485 69.516 224.109 69.4699 223.651L69.1803 220.776C69.1651 220.626 69.1897 220.511 69.2541 220.432C69.3256 220.353 69.4293 220.306 69.5652 220.293C69.7082 220.278 69.8191 220.303 69.8979 220.368C69.9837 220.431 70.0343 220.538 70.0494 220.688L70.3379 223.553C70.384 224.011 70.5116 224.345 70.7206 224.555C70.9361 224.757 71.2477 224.838 71.6554 224.797C72.0989 224.752 72.445 224.566 72.6937 224.237C72.9424 223.909 73.0423 223.501 72.9933 223.015L72.7318 220.418C72.7167 220.268 72.7413 220.154 72.8056 220.075C72.8771 219.995 72.9844 219.948 73.1274 219.934C73.2634 219.92 73.3707 219.946 73.4494 220.01C73.5353 220.074 73.5858 220.18 73.6009 220.331L74.0515 224.805C74.0818 225.105 73.9574 225.27 73.6784 225.298C73.5425 225.311 73.4313 225.283 73.3447 225.212C73.2652 225.141 73.2183 225.033 73.2039 224.89L73.1055 223.914L73.2601 224.05C73.1596 224.487 72.9559 224.832 72.6492 225.087C72.3497 225.341 71.9853 225.49 71.5561 225.533ZM80.4979 224.633C80.0329 224.68 79.614 224.61 79.2412 224.423C78.8755 224.236 78.5759 223.952 78.3424 223.571C78.1154 223.182 77.9741 222.712 77.9187 222.161C77.8625 221.603 77.9072 221.115 78.0528 220.695C78.2049 220.268 78.4418 219.93 78.7636 219.681C79.0918 219.424 79.4883 219.272 79.9533 219.225C80.4254 219.177 80.8414 219.255 81.2014 219.457C81.5614 219.659 81.8187 219.955 81.9735 220.344L81.8555 220.356L81.5335 217.158C81.5191 217.015 81.5441 216.904 81.6084 216.826C81.6792 216.739 81.7861 216.688 81.9291 216.674C82.065 216.66 82.1727 216.689 82.2522 216.761C82.3381 216.824 82.3882 216.928 82.4026 217.071L83.0898 223.895C83.1042 224.038 83.0796 224.152 83.016 224.238C82.9524 224.324 82.8491 224.374 82.706 224.389C82.5701 224.402 82.4589 224.374 82.3722 224.303C82.2928 224.232 82.2459 224.124 82.2315 223.981L82.1288 222.962L82.262 223.1C82.1886 223.52 81.9924 223.868 81.6736 224.146C81.3619 224.423 80.97 224.585 80.4979 224.633ZM80.61 223.917C80.9319 223.885 81.2065 223.777 81.4339 223.596C81.6613 223.414 81.8242 223.166 81.9227 222.853C82.0284 222.539 82.0599 222.17 82.0174 221.748C81.9519 221.097 81.7552 220.615 81.4273 220.301C81.1066 219.987 80.6995 219.854 80.2059 219.904C79.8769 219.937 79.5987 220.045 79.3713 220.226C79.1504 220.4 78.9871 220.645 78.8814 220.959C78.7822 221.265 78.7546 221.636 78.7985 222.073C78.8633 222.716 79.06 223.199 79.3886 223.52C79.7165 223.833 80.1236 223.966 80.61 223.917ZM85.204 224.115C85.0609 224.13 84.9497 224.101 84.8702 224.03C84.79 223.951 84.7424 223.837 84.7272 223.687L84.2853 219.298C84.2702 219.148 84.2944 219.03 84.358 218.944C84.4216 218.858 84.525 218.808 84.668 218.793C84.804 218.78 84.9152 218.808 85.0018 218.879C85.0884 218.95 85.1393 219.06 85.1544 219.211L85.5964 223.599C85.6115 223.749 85.584 223.871 85.514 223.965C85.4504 224.051 85.347 224.101 85.204 224.115ZM84.547 217.592C84.3682 217.61 84.224 217.577 84.1145 217.494C84.0043 217.404 83.9409 217.277 83.9243 217.113C83.907 216.941 83.9441 216.807 84.0356 216.711C84.1264 216.608 84.2612 216.548 84.4401 216.53C84.626 216.511 84.7702 216.543 84.8726 216.627C84.9814 216.703 85.0444 216.826 85.0617 216.998C85.0782 217.163 85.0415 217.3 84.9514 217.41C84.8678 217.512 84.733 217.573 84.547 217.592ZM89.2687 223.749C88.8037 223.796 88.3848 223.726 88.012 223.54C87.6463 223.353 87.3467 223.069 87.1133 222.688C86.8862 222.299 86.745 221.829 86.6895 221.278C86.6333 220.72 86.678 220.231 86.8237 219.812C86.9758 219.385 87.2127 219.047 87.5344 218.797C87.8626 218.54 88.2591 218.389 88.7241 218.342C89.1962 218.294 89.6123 218.371 89.9722 218.574C90.3322 218.776 90.5896 219.071 90.7444 219.461L90.6263 219.472L90.3043 216.275C90.2899 216.132 90.3149 216.021 90.3792 215.942C90.45 215.856 90.5569 215.805 90.7 215.791C90.8359 215.777 90.9436 215.806 91.023 215.877C91.1089 215.941 91.159 216.044 91.1735 216.187L91.8607 223.012C91.8751 223.155 91.8505 223.269 91.7869 223.355C91.7233 223.441 91.6199 223.491 91.4769 223.505C91.3409 223.519 91.2297 223.491 91.1431 223.42C91.0636 223.348 91.0167 223.241 91.0023 223.098L90.8996 222.079L91.0328 222.217C90.9594 222.636 90.7633 222.985 90.4444 223.263C90.1327 223.54 89.7408 223.702 89.2687 223.749ZM89.3809 223.034C89.7027 223.001 89.9774 222.894 90.2047 222.712C90.4321 222.53 90.595 222.283 90.6935 221.969C90.7992 221.655 90.8308 221.287 90.7883 220.865C90.7227 220.214 90.526 219.732 90.1981 219.418C89.8774 219.103 89.4703 218.971 88.9767 219.021C88.6477 219.054 88.3695 219.161 88.1421 219.343C87.9212 219.517 87.7579 219.761 87.6523 220.075C87.553 220.382 87.5254 220.753 87.5693 221.189C87.6342 221.833 87.8309 222.315 88.1594 222.636C88.4873 222.95 88.8944 223.083 89.3809 223.034ZM99.9 222.679C99.0916 222.76 98.393 222.675 97.8041 222.424C97.2223 222.172 96.7592 221.77 96.4147 221.22C96.0703 220.669 95.8573 219.99 95.7759 219.181C95.7154 218.581 95.7397 218.033 95.8488 217.538C95.9651 217.042 96.1604 216.614 96.4349 216.254C96.7158 215.886 97.069 215.59 97.4944 215.367C97.9264 215.135 98.4249 214.991 98.99 214.934C99.4406 214.889 99.8835 214.909 100.318 214.996C100.753 215.075 101.148 215.234 101.505 215.472C101.597 215.528 101.658 215.594 101.687 215.671C101.716 215.747 101.721 215.826 101.7 215.908C101.687 215.989 101.654 216.061 101.603 216.124C101.558 216.179 101.493 216.214 101.407 216.23C101.329 216.245 101.245 216.228 101.153 216.18C100.837 215.98 100.509 215.847 100.17 215.78C99.83 215.706 99.4598 215.689 99.0592 215.729C98.487 215.787 98.0128 215.958 97.6367 216.241C97.2678 216.524 97.0026 216.905 96.8413 217.383C96.6871 217.861 96.6431 218.429 96.7094 219.087C96.8103 220.089 97.1198 220.831 97.6381 221.313C98.1635 221.795 98.8983 221.989 99.8425 221.893C100.186 221.859 100.519 221.793 100.841 221.695C101.163 221.591 101.465 221.463 101.746 221.312L101.603 221.835L101.334 219.164L99.8 219.318C99.6712 219.331 99.5714 219.309 99.5005 219.251C99.4297 219.193 99.3888 219.11 99.378 219.003C99.3665 218.889 99.3901 218.799 99.4487 218.736C99.5073 218.672 99.601 218.634 99.7297 218.621L101.65 218.427C101.772 218.415 101.868 218.438 101.939 218.496C102.01 218.554 102.051 218.643 102.064 218.765L102.346 221.566C102.357 221.673 102.348 221.764 102.319 221.839C102.291 221.914 102.235 221.974 102.153 222.018C101.865 222.17 101.514 222.31 101.101 222.439C100.694 222.559 100.293 222.639 99.9 222.679ZM104.561 222.188C104.418 222.202 104.303 222.174 104.216 222.103C104.137 222.032 104.09 221.925 104.075 221.782L103.625 217.307C103.611 217.164 103.635 217.053 103.7 216.974C103.763 216.889 103.863 216.839 103.999 216.825C104.135 216.811 104.243 216.84 104.322 216.912C104.408 216.975 104.458 217.079 104.473 217.222L104.56 218.091L104.453 218.102C104.525 217.668 104.71 217.321 105.009 217.059C105.308 216.798 105.693 216.637 106.163 216.575C106.27 216.557 106.358 216.573 106.428 216.624C106.498 216.667 106.543 216.753 106.563 216.881C106.582 217.002 106.563 217.102 106.506 217.18C106.449 217.258 106.353 217.311 106.219 217.339L106.049 217.377C105.567 217.469 105.207 217.664 104.97 217.963C104.739 218.254 104.647 218.631 104.694 219.096L104.955 221.693C104.97 221.836 104.942 221.951 104.871 222.037C104.807 222.123 104.704 222.173 104.561 222.188ZM110.266 221.635C109.715 221.69 109.229 221.631 108.807 221.457C108.391 221.275 108.052 220.994 107.79 220.616C107.535 220.237 107.38 219.769 107.323 219.211C107.269 218.667 107.328 218.184 107.503 217.762C107.676 217.333 107.937 216.985 108.286 216.719C108.642 216.451 109.067 216.293 109.561 216.243C109.911 216.208 110.232 216.237 110.523 216.331C110.814 216.417 111.067 216.561 111.282 216.764C111.505 216.965 111.682 217.218 111.814 217.523C111.953 217.827 112.042 218.176 112.082 218.569C112.093 218.684 112.07 218.773 112.011 218.836C111.952 218.893 111.861 218.927 111.74 218.94L108.006 219.316L107.949 218.747L111.479 218.391L111.321 218.548C111.282 218.162 111.192 217.842 111.051 217.589C110.909 217.329 110.72 217.138 110.484 217.017C110.255 216.896 109.976 216.852 109.647 216.885C109.282 216.922 108.98 217.039 108.739 217.237C108.506 217.426 108.34 217.678 108.241 217.991C108.142 218.297 108.112 218.647 108.152 219.041L108.158 219.105C108.224 219.763 108.432 220.248 108.781 220.56C109.138 220.871 109.609 220.997 110.196 220.938C110.439 220.913 110.676 220.857 110.905 220.769C111.142 220.68 111.367 220.549 111.581 220.375C111.675 220.301 111.761 220.263 111.841 220.263C111.926 220.254 111.997 220.272 112.052 220.317C112.106 220.355 112.144 220.409 112.166 220.479C112.194 220.541 112.194 220.614 112.166 220.696C112.145 220.777 112.091 220.851 112.004 220.918C111.785 221.113 111.52 221.274 111.207 221.399C110.895 221.525 110.581 221.603 110.266 221.635ZM115.279 221.13C114.922 221.166 114.593 221.131 114.293 221.024C114 220.909 113.759 220.738 113.57 220.511C113.381 220.284 113.271 220.021 113.241 219.72C113.202 219.334 113.268 219.02 113.439 218.779C113.617 218.537 113.926 218.347 114.367 218.209C114.816 218.07 115.434 217.961 116.22 217.881L116.703 217.833L116.761 218.401L116.288 218.449C115.709 218.507 115.254 218.582 114.924 218.673C114.6 218.756 114.376 218.869 114.253 219.012C114.137 219.153 114.091 219.342 114.115 219.578C114.145 219.872 114.269 220.101 114.488 220.267C114.714 220.432 115.003 220.497 115.353 220.462C115.639 220.433 115.883 220.34 116.084 220.182C116.292 220.024 116.445 219.821 116.542 219.572C116.647 219.323 116.684 219.045 116.653 218.737L116.53 217.514C116.486 217.071 116.364 216.761 116.166 216.586C115.967 216.404 115.664 216.333 115.256 216.374C115.005 216.4 114.758 216.457 114.514 216.547C114.271 216.636 114.016 216.767 113.752 216.938C113.657 216.998 113.573 217.024 113.5 217.017C113.426 217.003 113.365 216.969 113.316 216.917C113.267 216.864 113.236 216.802 113.222 216.731C113.206 216.653 113.213 216.576 113.242 216.501C113.277 216.425 113.336 216.362 113.418 216.31C113.716 216.121 114.016 215.975 114.317 215.873C114.617 215.77 114.907 215.705 115.186 215.677C115.636 215.632 116.016 215.669 116.324 215.79C116.632 215.903 116.872 216.103 117.046 216.389C117.218 216.668 117.328 217.04 117.375 217.505L117.668 220.413C117.682 220.556 117.657 220.67 117.594 220.756C117.537 220.841 117.445 220.89 117.316 220.903C117.18 220.917 117.072 220.888 116.993 220.817C116.913 220.745 116.867 220.638 116.852 220.495L116.768 219.658L116.864 219.648C116.835 219.926 116.747 220.169 116.602 220.379C116.464 220.588 116.283 220.758 116.057 220.889C115.832 221.02 115.573 221.101 115.279 221.13ZM121.431 220.511C121.023 220.552 120.672 220.515 120.379 220.4C120.092 220.277 119.866 220.083 119.702 219.818C119.538 219.545 119.435 219.205 119.394 218.797L119.118 216.061L118.399 216.134C118.278 216.146 118.182 216.127 118.112 216.076C118.041 216.018 118 215.935 117.989 215.828C117.978 215.721 118.002 215.635 118.061 215.572C118.12 215.508 118.21 215.47 118.331 215.458L119.05 215.385L118.926 214.151C118.912 214.008 118.94 213.897 119.012 213.818C119.082 213.731 119.186 213.681 119.322 213.667C119.457 213.653 119.565 213.682 119.645 213.754C119.73 213.817 119.781 213.921 119.795 214.064L119.919 215.298L121.271 215.162C121.393 215.149 121.489 215.169 121.559 215.219C121.629 215.27 121.669 215.349 121.68 215.456C121.691 215.564 121.668 215.653 121.61 215.724C121.551 215.787 121.461 215.825 121.339 215.838L119.987 215.974L120.254 218.624C120.295 219.032 120.412 219.334 120.606 219.532C120.798 219.722 121.088 219.797 121.474 219.758C121.61 219.745 121.723 219.719 121.813 219.681C121.91 219.642 121.991 219.62 122.056 219.613C122.119 219.6 122.175 219.616 122.223 219.661C122.271 219.707 122.301 219.791 122.313 219.912C122.322 219.998 122.312 220.079 122.283 220.154C122.262 220.228 122.213 220.284 122.138 220.32C122.055 220.358 121.943 220.394 121.802 220.43C121.669 220.472 121.545 220.499 121.431 220.511ZM126.29 219.967C126.111 219.985 125.963 219.946 125.845 219.849C125.726 219.746 125.658 219.608 125.641 219.436C125.623 219.265 125.663 219.12 125.76 219.002C125.855 218.876 125.993 218.805 126.171 218.787C126.35 218.769 126.496 218.812 126.607 218.916C126.725 219.013 126.793 219.147 126.81 219.319C126.828 219.49 126.788 219.639 126.693 219.764C126.603 219.881 126.469 219.949 126.29 219.967ZM128.742 219.72C128.564 219.738 128.415 219.699 128.297 219.602C128.178 219.499 128.11 219.361 128.093 219.189C128.076 219.018 128.115 218.873 128.212 218.755C128.307 218.63 128.445 218.558 128.624 218.54C128.802 218.522 128.948 218.565 129.059 218.669C129.177 218.766 129.245 218.9 129.262 219.072C129.28 219.243 129.24 219.392 129.145 219.517C129.055 219.634 128.921 219.702 128.742 219.72ZM134.114 219.212C133.971 219.226 133.856 219.198 133.77 219.127C133.69 219.049 133.642 218.938 133.628 218.795L132.943 211.992C132.928 211.842 132.952 211.727 133.017 211.649C133.087 211.562 133.194 211.511 133.337 211.497C133.481 211.483 133.592 211.511 133.671 211.583C133.757 211.646 133.808 211.753 133.823 211.903L134.131 214.961L134.152 214.959L137.322 211.345C137.399 211.251 137.478 211.181 137.561 211.137C137.642 211.085 137.733 211.054 137.833 211.044C137.969 211.031 138.069 211.053 138.133 211.112C138.204 211.17 138.236 211.246 138.232 211.34C138.227 211.435 138.186 211.529 138.108 211.624L134.791 215.383L134.754 214.909L138.929 218.055C139.047 218.144 139.114 218.242 139.132 218.349C139.15 218.448 139.126 218.537 139.062 218.616C139.004 218.687 138.907 218.729 138.771 218.743C138.664 218.754 138.568 218.738 138.485 218.696C138.409 218.66 138.32 218.6 138.217 218.517L134.209 215.528L134.188 215.53L134.508 218.706C134.522 218.849 134.498 218.967 134.435 219.06C134.371 219.146 134.265 219.197 134.114 219.212ZM142.51 218.388C141.959 218.443 141.473 218.384 141.05 218.21C140.635 218.028 140.296 217.747 140.034 217.369C139.779 216.99 139.623 216.522 139.567 215.964C139.512 215.42 139.572 214.937 139.746 214.515C139.92 214.086 140.181 213.738 140.53 213.472C140.886 213.204 141.311 213.046 141.804 212.996C142.155 212.961 142.476 212.99 142.767 213.084C143.058 213.17 143.31 213.314 143.526 213.517C143.749 213.718 143.926 213.971 144.058 214.276C144.197 214.58 144.286 214.929 144.326 215.322C144.337 215.437 144.314 215.526 144.255 215.589C144.196 215.646 144.105 215.68 143.984 215.692L140.25 216.069L140.192 215.5L143.722 215.144L143.565 215.301C143.526 214.915 143.436 214.595 143.295 214.342C143.153 214.082 142.964 213.891 142.728 213.77C142.499 213.649 142.22 213.605 141.891 213.638C141.526 213.675 141.223 213.792 140.983 213.99C140.749 214.179 140.583 214.431 140.485 214.744C140.385 215.05 140.356 215.4 140.395 215.794L140.402 215.858C140.468 216.516 140.676 217.001 141.025 217.313C141.382 217.624 141.853 217.75 142.44 217.691C142.683 217.666 142.919 217.61 143.149 217.522C143.386 217.433 143.611 217.302 143.825 217.128C143.918 217.054 144.005 217.016 144.084 217.015C144.17 217.007 144.241 217.025 144.296 217.07C144.35 217.108 144.388 217.162 144.41 217.232C144.437 217.294 144.438 217.366 144.41 217.449C144.389 217.53 144.335 217.604 144.248 217.671C144.029 217.866 143.763 218.027 143.451 218.152C143.138 218.278 142.825 218.356 142.51 218.388ZM148.231 217.812C147.681 217.867 147.194 217.808 146.772 217.634C146.356 217.451 146.017 217.171 145.755 216.793C145.5 216.414 145.345 215.946 145.288 215.388C145.234 214.844 145.293 214.361 145.468 213.939C145.641 213.51 145.902 213.162 146.251 212.895C146.607 212.628 147.032 212.47 147.526 212.42C147.876 212.385 148.197 212.414 148.488 212.508C148.779 212.594 149.032 212.738 149.247 212.941C149.47 213.142 149.647 213.395 149.779 213.7C149.918 214.004 150.007 214.352 150.047 214.746C150.058 214.86 150.035 214.949 149.976 215.013C149.917 215.07 149.827 215.104 149.705 215.116L145.971 215.492L145.914 214.924L149.444 214.568L149.286 214.725C149.247 214.339 149.157 214.019 149.016 213.766C148.874 213.506 148.685 213.315 148.449 213.194C148.22 213.073 147.941 213.029 147.612 213.062C147.247 213.099 146.945 213.216 146.705 213.413C146.471 213.603 146.305 213.855 146.206 214.168C146.107 214.474 146.077 214.824 146.117 215.218L146.123 215.282C146.189 215.94 146.397 216.425 146.747 216.737C147.103 217.047 147.575 217.173 148.161 217.114C148.404 217.09 148.641 217.034 148.87 216.945C149.107 216.857 149.332 216.725 149.546 216.552C149.64 216.478 149.726 216.44 149.806 216.439C149.891 216.431 149.962 216.449 150.017 216.494C150.071 216.532 150.109 216.586 150.131 216.656C150.159 216.718 150.159 216.79 150.131 216.873C150.11 216.954 150.056 217.028 149.969 217.095C149.75 217.29 149.485 217.451 149.172 217.576C148.86 217.702 148.546 217.78 148.231 217.812ZM152.224 219.339C152.081 219.353 151.97 219.325 151.891 219.253C151.812 219.189 151.765 219.085 151.751 218.942L151.105 212.526C151.09 212.383 151.115 212.272 151.18 212.193C151.243 212.107 151.343 212.057 151.479 212.044C151.622 212.029 151.733 212.058 151.813 212.129C151.899 212.193 151.949 212.296 151.963 212.439L152.066 213.459L151.933 213.32C152.006 212.901 152.199 212.557 152.511 212.287C152.83 212.009 153.226 211.846 153.698 211.799C154.163 211.752 154.578 211.822 154.944 212.009C155.316 212.188 155.616 212.473 155.843 212.862C156.076 213.243 156.221 213.712 156.277 214.27C156.333 214.821 156.284 215.31 156.132 215.737C155.986 216.157 155.753 216.494 155.432 216.751C155.111 217.007 154.715 217.159 154.242 217.206C153.77 217.254 153.354 217.177 152.994 216.974C152.634 216.765 152.372 216.466 152.21 216.078L152.339 216.065L152.62 218.855C152.634 218.998 152.606 219.109 152.534 219.189C152.464 219.275 152.36 219.325 152.224 219.339ZM153.99 216.527C154.319 216.494 154.593 216.387 154.814 216.206C155.041 216.024 155.204 215.776 155.302 215.463C155.408 215.149 155.44 214.781 155.397 214.359C155.332 213.708 155.135 213.226 154.807 212.912C154.486 212.597 154.079 212.465 153.586 212.514C153.264 212.547 152.989 212.654 152.762 212.836C152.534 213.011 152.367 213.255 152.261 213.569C152.162 213.875 152.134 214.247 152.178 214.683C152.243 215.327 152.44 215.809 152.768 216.13C153.096 216.444 153.503 216.576 153.99 216.527ZM164.219 216.202C163.411 216.283 162.712 216.198 162.123 215.947C161.542 215.695 161.078 215.293 160.734 214.743C160.39 214.192 160.177 213.513 160.095 212.704C160.035 212.103 160.059 211.555 160.168 211.06C160.284 210.565 160.48 210.137 160.754 209.777C161.035 209.409 161.388 209.113 161.814 208.89C162.246 208.658 162.744 208.514 163.309 208.457C163.76 208.412 164.203 208.432 164.638 208.518C165.072 208.598 165.467 208.756 165.824 208.995C165.916 209.051 165.977 209.117 166.006 209.194C166.036 209.27 166.04 209.349 166.019 209.431C166.006 209.511 165.973 209.583 165.922 209.646C165.877 209.702 165.812 209.737 165.727 209.753C165.649 209.768 165.564 209.751 165.472 209.703C165.156 209.503 164.828 209.37 164.489 209.303C164.149 209.229 163.779 209.212 163.378 209.252C162.806 209.31 162.332 209.48 161.956 209.764C161.587 210.047 161.322 210.428 161.161 210.906C161.006 211.384 160.962 211.952 161.029 212.61C161.13 213.612 161.439 214.354 161.957 214.836C162.483 215.318 163.218 215.511 164.162 215.416C164.505 215.382 164.838 215.316 165.161 215.218C165.482 215.114 165.784 214.986 166.065 214.834L165.923 215.358L165.654 212.687L164.119 212.841C163.99 212.854 163.891 212.832 163.82 212.774C163.749 212.716 163.708 212.633 163.697 212.526C163.686 212.411 163.709 212.322 163.768 212.259C163.827 212.195 163.92 212.157 164.049 212.144L165.97 211.95C166.091 211.938 166.187 211.961 166.258 212.019C166.329 212.077 166.371 212.166 166.383 212.288L166.665 215.088C166.676 215.196 166.667 215.287 166.638 215.362C166.61 215.437 166.554 215.497 166.472 215.541C166.184 215.693 165.833 215.833 165.42 215.962C165.013 216.082 164.613 216.162 164.219 216.202ZM170.61 215.558C170.102 215.609 169.651 215.543 169.256 215.359C168.862 215.174 168.541 214.892 168.293 214.513C168.052 214.125 167.904 213.656 167.848 213.105C167.806 212.69 167.826 212.312 167.907 211.972C167.988 211.624 168.127 211.321 168.325 211.063C168.523 210.804 168.766 210.599 169.055 210.447C169.349 210.288 169.686 210.189 170.065 210.15C170.573 210.099 171.024 210.166 171.418 210.35C171.813 210.534 172.13 210.82 172.372 211.208C172.62 211.588 172.771 212.053 172.827 212.604C172.868 213.019 172.849 213.396 172.767 213.737C172.686 214.077 172.547 214.38 172.35 214.646C172.152 214.904 171.905 215.113 171.611 215.273C171.322 215.425 170.989 215.52 170.61 215.558ZM170.539 214.861C170.861 214.828 171.136 214.721 171.363 214.539C171.591 214.358 171.754 214.11 171.852 213.796C171.958 213.482 171.989 213.114 171.947 212.692C171.881 212.041 171.685 211.559 171.357 211.245C171.036 210.931 170.629 210.798 170.135 210.848C169.806 210.881 169.528 210.989 169.301 211.17C169.08 211.344 168.917 211.588 168.811 211.903C168.712 212.209 168.684 212.58 168.728 213.016C168.793 213.66 168.989 214.143 169.318 214.464C169.646 214.777 170.053 214.91 170.539 214.861ZM174.84 215.089C174.697 215.103 174.586 215.075 174.506 215.003C174.426 214.925 174.378 214.81 174.363 214.66L173.921 210.272C173.906 210.121 173.93 210.003 173.994 209.917C174.058 209.831 174.161 209.781 174.304 209.767C174.44 209.753 174.551 209.782 174.638 209.853C174.724 209.923 174.775 210.034 174.79 210.184L175.232 214.572C175.248 214.723 175.22 214.845 175.15 214.938C175.086 215.024 174.983 215.074 174.84 215.089ZM174.183 208.565C174.004 208.583 173.86 208.551 173.751 208.468C173.64 208.378 173.577 208.25 173.56 208.086C173.543 207.914 173.58 207.78 173.672 207.685C173.762 207.581 173.897 207.521 174.076 207.503C174.262 207.484 174.406 207.517 174.509 207.6C174.617 207.676 174.68 207.8 174.698 207.971C174.714 208.136 174.678 208.273 174.587 208.384C174.504 208.486 174.369 208.546 174.183 208.565ZM177.347 214.858C177.204 214.873 177.092 214.844 177.013 214.773C176.934 214.701 176.887 214.594 176.872 214.451L176.422 209.976C176.407 209.833 176.432 209.722 176.496 209.644C176.56 209.558 176.66 209.508 176.796 209.494C176.932 209.481 177.039 209.51 177.119 209.581C177.205 209.645 177.255 209.748 177.269 209.891L177.362 210.814L177.231 210.697C177.34 210.267 177.551 209.931 177.867 209.69C178.189 209.441 178.571 209.294 179.015 209.249C179.43 209.207 179.78 209.248 180.067 209.371C180.362 209.493 180.592 209.701 180.759 209.995C180.925 210.282 181.032 210.657 181.078 211.122L181.368 213.998C181.382 214.141 181.354 214.256 181.283 214.342C181.22 214.428 181.12 214.478 180.984 214.492C180.841 214.506 180.726 214.478 180.64 214.407C180.56 214.336 180.513 214.229 180.499 214.085L180.215 211.264C180.166 210.777 180.033 210.433 179.818 210.23C179.609 210.02 179.297 209.936 178.882 209.978C178.403 210.026 178.035 210.215 177.779 210.544C177.53 210.866 177.43 211.273 177.48 211.767L177.741 214.363C177.772 214.664 177.64 214.829 177.347 214.858ZM185.53 216.007C185.151 216.045 184.774 216.036 184.4 215.98C184.034 215.93 183.694 215.823 183.382 215.659C183.291 215.618 183.227 215.563 183.192 215.494C183.163 215.425 183.152 215.354 183.159 215.281C183.167 215.215 183.193 215.151 183.238 215.089C183.283 215.034 183.337 214.996 183.399 214.975C183.47 214.953 183.542 214.957 183.617 214.985C183.952 215.147 184.265 215.249 184.559 215.292C184.852 215.334 185.138 215.342 185.417 215.314C185.925 215.262 186.294 215.088 186.524 214.79C186.761 214.492 186.854 214.085 186.802 213.57L186.68 212.357L186.787 212.347C186.722 212.772 186.526 213.124 186.2 213.403C185.881 213.681 185.489 213.843 185.024 213.89C184.545 213.938 184.119 213.873 183.747 213.693C183.375 213.507 183.072 213.227 182.839 212.853C182.613 212.478 182.475 212.033 182.423 211.518C182.384 211.132 182.402 210.776 182.478 210.45C182.553 210.118 182.679 209.83 182.857 209.588C183.041 209.339 183.271 209.139 183.544 208.988C183.825 208.83 184.144 208.733 184.501 208.697C184.974 208.649 185.394 208.73 185.761 208.938C186.128 209.14 186.383 209.439 186.524 209.837L186.43 209.977L186.329 208.979C186.315 208.836 186.34 208.725 186.404 208.646C186.475 208.559 186.578 208.509 186.714 208.496C186.857 208.481 186.968 208.51 187.048 208.581C187.126 208.645 187.173 208.749 187.187 208.892L187.638 213.367C187.718 214.161 187.578 214.778 187.218 215.219C186.865 215.666 186.303 215.929 185.53 216.007ZM185.114 213.165C185.45 213.132 185.732 213.027 185.96 212.853C186.188 212.671 186.351 212.43 186.451 212.131C186.559 211.831 186.593 211.488 186.554 211.102C186.495 210.523 186.303 210.08 185.975 209.773C185.648 209.459 185.233 209.327 184.733 209.378C184.404 209.411 184.125 209.519 183.898 209.7C183.67 209.875 183.502 210.112 183.395 210.412C183.295 210.704 183.264 211.043 183.303 211.429C183.361 212.009 183.554 212.456 183.882 212.769C184.21 213.083 184.62 213.215 185.114 213.165Z" fill="#888888"/>
<rect x="41.3002" y="251.913" width="169.309" height="24.2641" rx="12.132" transform="rotate(-5.75045 41.3002 251.913)" fill="black"/>
<path d="M109.438 260.86C108.673 260.937 108.002 260.845 107.427 260.585C106.852 260.325 106.388 259.92 106.037 259.37C105.691 258.813 105.479 258.137 105.399 257.343C105.339 256.749 105.368 256.208 105.485 255.719C105.601 255.223 105.796 254.792 106.07 254.425C106.35 254.05 106.706 253.75 107.139 253.526C107.579 253.301 108.085 253.16 108.657 253.102C109.079 253.059 109.489 253.076 109.887 253.152C110.292 253.226 110.648 253.357 110.956 253.542C111.085 253.609 111.174 253.698 111.221 253.808C111.275 253.911 111.292 254.014 111.274 254.117C111.262 254.22 111.224 254.31 111.16 254.389C111.095 254.461 111.006 254.506 110.892 254.524C110.785 254.542 110.663 254.515 110.526 254.442C110.272 254.287 109.998 254.181 109.703 254.124C109.408 254.067 109.103 254.054 108.789 254.086C108.245 254.141 107.799 254.301 107.45 254.568C107.1 254.827 106.85 255.181 106.7 255.629C106.55 256.078 106.506 256.61 106.568 257.225C106.63 257.84 106.78 258.356 107.017 258.773C107.253 259.183 107.569 259.483 107.964 259.675C108.358 259.859 108.827 259.924 109.371 259.869C109.686 259.838 109.982 259.764 110.259 259.65C110.543 259.527 110.805 259.364 111.044 259.159C111.165 259.067 111.276 259.02 111.377 259.017C111.485 259.013 111.578 259.04 111.656 259.097C111.734 259.154 111.789 259.232 111.82 259.33C111.858 259.42 111.865 259.521 111.84 259.631C111.821 259.734 111.762 259.827 111.662 259.909C111.392 260.175 111.063 260.389 110.675 260.551C110.287 260.713 109.874 260.816 109.438 260.86ZM115.089 260.291C114.559 260.344 114.09 260.279 113.682 260.096C113.28 259.913 112.952 259.628 112.696 259.242C112.44 258.856 112.285 258.387 112.229 257.836C112.187 257.414 112.21 257.033 112.298 256.691C112.387 256.35 112.53 256.05 112.728 255.792C112.932 255.526 113.186 255.316 113.488 255.162C113.797 255.001 114.149 254.901 114.542 254.861C115.064 254.809 115.526 254.874 115.927 255.058C116.336 255.241 116.668 255.525 116.924 255.911C117.179 256.29 117.334 256.759 117.39 257.317C117.432 257.731 117.409 258.113 117.322 258.462C117.234 258.81 117.087 259.114 116.882 259.373C116.684 259.631 116.431 259.841 116.122 260.002C115.819 260.156 115.475 260.252 115.089 260.291ZM115.004 259.454C115.298 259.424 115.548 259.327 115.755 259.161C115.963 258.996 116.113 258.768 116.207 258.476C116.307 258.184 116.337 257.835 116.296 257.427C116.234 256.812 116.051 256.36 115.748 256.073C115.444 255.786 115.071 255.664 114.627 255.709C114.327 255.739 114.073 255.837 113.866 256.002C113.658 256.161 113.503 256.386 113.403 256.678C113.309 256.969 113.283 257.318 113.324 257.726C113.385 258.334 113.568 258.785 113.872 259.08C114.176 259.374 114.554 259.499 115.004 259.454ZM119.426 259.832C119.254 259.849 119.117 259.816 119.015 259.733C118.912 259.642 118.852 259.511 118.834 259.339L118.402 255.047C118.384 254.868 118.417 254.728 118.501 254.625C118.584 254.523 118.708 254.463 118.873 254.447C119.044 254.43 119.178 254.463 119.273 254.547C119.375 254.631 119.436 254.762 119.454 254.941L119.538 255.778L119.4 255.597C119.518 255.18 119.734 254.855 120.05 254.621C120.365 254.38 120.741 254.237 121.178 254.193C121.592 254.151 121.944 254.195 122.231 254.325C122.525 254.448 122.756 254.659 122.924 254.96C123.091 255.254 123.198 255.637 123.246 256.109L123.523 258.867C123.541 259.038 123.508 259.179 123.425 259.289C123.341 259.391 123.214 259.451 123.042 259.468C122.863 259.486 122.722 259.453 122.62 259.37C122.517 259.279 122.457 259.148 122.44 258.976L122.168 256.283C122.123 255.832 122 255.512 121.801 255.323C121.608 255.132 121.326 255.056 120.954 255.094C120.518 255.137 120.181 255.309 119.943 255.607C119.713 255.905 119.621 256.283 119.667 256.74L119.918 259.23C119.955 259.595 119.791 259.795 119.426 259.832ZM127.316 259.059C126.887 259.102 126.518 259.064 126.21 258.943C125.902 258.822 125.661 258.623 125.488 258.344C125.316 258.065 125.208 257.714 125.166 257.292L124.911 254.76L124.267 254.825C124.124 254.839 124.009 254.815 123.924 254.751C123.837 254.68 123.787 254.581 123.774 254.452C123.761 254.316 123.789 254.208 123.861 254.129C123.932 254.049 124.04 254.002 124.183 253.988L124.827 253.923L124.715 252.818C124.697 252.639 124.73 252.499 124.814 252.396C124.904 252.293 125.036 252.233 125.207 252.216C125.379 252.198 125.516 252.232 125.618 252.315C125.721 252.399 125.781 252.53 125.799 252.709L125.91 253.814L127.166 253.688C127.309 253.673 127.423 253.698 127.509 253.761C127.595 253.825 127.645 253.925 127.658 254.061C127.671 254.189 127.642 254.297 127.572 254.384C127.5 254.463 127.393 254.51 127.25 254.525L125.995 254.651L126.241 257.097C126.279 257.476 126.387 257.755 126.563 257.932C126.747 258.109 127.022 258.178 127.387 258.142C127.515 258.129 127.625 258.107 127.716 258.076C127.813 258.037 127.894 258.011 127.957 257.998C128.036 257.99 128.103 258.012 128.159 258.064C128.214 258.109 128.249 258.207 128.264 258.357C128.275 258.464 128.264 258.566 128.23 258.664C128.204 258.76 128.142 258.828 128.045 258.867C127.962 258.904 127.846 258.941 127.698 258.977C127.558 259.02 127.431 259.048 127.316 259.059ZM129.642 258.793C129.47 258.81 129.333 258.773 129.23 258.682C129.126 258.584 129.065 258.442 129.046 258.256L128.624 254.072C128.606 253.886 128.638 253.738 128.721 253.629C128.804 253.519 128.931 253.456 129.103 253.438C129.274 253.421 129.412 253.458 129.515 253.549C129.625 253.639 129.689 253.777 129.708 253.963L130.13 258.147C130.148 258.333 130.117 258.485 130.034 258.601C129.951 258.711 129.821 258.775 129.642 258.793ZM128.99 252.322C128.776 252.344 128.602 252.307 128.47 252.212C128.344 252.117 128.272 251.972 128.253 251.779C128.232 251.579 128.275 251.423 128.379 251.311C128.49 251.191 128.652 251.121 128.867 251.099C129.082 251.078 129.252 251.115 129.377 251.211C129.508 251.298 129.584 251.443 129.605 251.643C129.624 251.836 129.578 251.992 129.468 252.112C129.364 252.231 129.205 252.301 128.99 252.322ZM132.263 258.539C132.091 258.557 131.954 258.524 131.852 258.44C131.748 258.349 131.688 258.218 131.671 258.046L131.239 253.754C131.221 253.576 131.254 253.435 131.337 253.333C131.421 253.23 131.545 253.171 131.709 253.154C131.881 253.137 132.015 253.17 132.11 253.255C132.212 253.338 132.272 253.47 132.29 253.648L132.375 254.485L132.237 254.304C132.354 253.888 132.571 253.562 132.887 253.328C133.202 253.087 133.578 252.944 134.014 252.9C134.429 252.859 134.78 252.903 135.068 253.033C135.362 253.155 135.593 253.366 135.761 253.667C135.927 253.961 136.035 254.344 136.082 254.817L136.36 257.574C136.377 257.746 136.344 257.886 136.262 257.996C136.178 258.098 136.05 258.158 135.879 258.175C135.7 258.193 135.559 258.16 135.457 258.077C135.354 257.986 135.294 257.855 135.276 257.683L135.005 254.99C134.96 254.539 134.837 254.219 134.637 254.03C134.445 253.84 134.163 253.763 133.791 253.801C133.354 253.845 133.017 254.016 132.78 254.314C132.55 254.612 132.458 254.99 132.504 255.448L132.755 257.937C132.791 258.302 132.627 258.503 132.263 258.539ZM139.788 257.803C139.366 257.846 139.004 257.803 138.702 257.674C138.407 257.545 138.173 257.334 137.999 257.04C137.831 256.739 137.724 256.353 137.676 255.881L137.4 253.134C137.381 252.948 137.414 252.807 137.498 252.712C137.582 252.61 137.709 252.55 137.881 252.533C138.053 252.515 138.19 252.549 138.292 252.632C138.401 252.708 138.465 252.839 138.483 253.025L138.761 255.782C138.803 256.204 138.921 256.507 139.112 256.69C139.304 256.873 139.586 256.946 139.958 256.908C140.366 256.867 140.681 256.698 140.904 256.401C141.134 256.096 141.226 255.718 141.18 255.268L140.93 252.778C140.911 252.592 140.944 252.452 141.028 252.357C141.112 252.254 141.243 252.194 141.422 252.176C141.593 252.159 141.73 252.192 141.833 252.276C141.934 252.352 141.995 252.483 142.013 252.669L142.446 256.961C142.482 257.326 142.325 257.526 141.975 257.561C141.81 257.578 141.677 257.544 141.575 257.461C141.472 257.37 141.411 257.239 141.394 257.067L141.302 256.155L141.465 256.377C141.363 256.792 141.165 257.123 140.872 257.369C140.579 257.615 140.217 257.76 139.788 257.803ZM146.498 257.128C145.926 257.185 145.421 257.128 144.985 256.955C144.555 256.774 144.205 256.495 143.936 256.117C143.673 255.732 143.514 255.26 143.457 254.702C143.403 254.159 143.466 253.672 143.646 253.242C143.827 252.812 144.099 252.463 144.462 252.195C144.825 251.927 145.254 251.769 145.747 251.719C146.112 251.682 146.444 251.71 146.742 251.803C147.04 251.889 147.3 252.036 147.524 252.244C147.753 252.445 147.935 252.702 148.067 253.013C148.207 253.325 148.297 253.68 148.337 254.081C148.349 254.203 148.323 254.299 148.258 254.371C148.192 254.435 148.088 254.475 147.945 254.489L144.339 254.852L144.272 254.187L147.577 253.854L147.41 254.023C147.374 253.665 147.29 253.366 147.157 253.127C147.032 252.887 146.859 252.712 146.639 252.605C146.425 252.489 146.167 252.446 145.867 252.476C145.531 252.51 145.253 252.618 145.032 252.799C144.819 252.979 144.666 253.215 144.572 253.506C144.479 253.798 144.451 254.129 144.488 254.501L144.495 254.565C144.558 255.195 144.753 255.656 145.079 255.948C145.411 256.233 145.859 256.346 146.424 256.29C146.639 256.268 146.861 256.217 147.092 256.136C147.329 256.054 147.548 255.934 147.749 255.777C147.864 255.693 147.968 255.65 148.061 255.648C148.162 255.645 148.244 255.669 148.307 255.721C148.377 255.771 148.424 255.839 148.447 255.923C148.47 256.008 148.464 256.099 148.431 256.196C148.397 256.286 148.329 256.372 148.229 256.455C148.003 256.644 147.733 256.797 147.42 256.916C147.106 257.027 146.798 257.097 146.498 257.128Z" fill="white"/>
<path d="M106.025 105.61L97.4194 98.579C96.6941 97.9864 95.8521 97.7383 94.8936 97.8348C93.9351 97.9314 93.1326 98.3753 92.4861 99.1665C91.8934 99.8919 91.6484 100.764 91.751 101.782C91.8535 102.801 92.2675 103.606 92.9928 104.199L104.269 113.411C104.994 114.004 105.866 114.249 106.884 114.147C107.903 114.044 108.708 113.63 109.301 112.905L127.645 90.4519C128.238 89.7265 128.486 88.8846 128.39 87.926C128.293 86.9675 127.849 86.165 127.058 85.5185C126.332 84.9259 125.461 84.6808 124.442 84.7834C123.424 84.886 122.618 85.2999 122.026 86.0253L106.025 105.61ZM114.025 134.578C109.053 135.078 104.285 134.605 99.7214 133.157C95.1583 131.711 91.0963 129.534 87.5355 126.625C83.9747 123.715 81.0311 120.169 78.7048 115.986C76.3761 111.803 74.9614 107.225 74.4607 102.253C73.9599 97.2802 74.4335 92.5123 75.8814 87.9489C77.3269 83.3857 79.5043 79.3237 82.4135 75.7629C85.3228 72.2021 88.869 69.2574 93.0521 66.9287C97.2355 64.6024 101.813 63.1889 106.786 62.6881C111.758 62.1874 116.526 62.6598 121.089 64.1053C125.652 65.5532 129.715 67.7318 133.275 70.641C136.836 73.5503 139.78 77.0966 142.106 81.2799C144.435 85.463 145.849 90.0408 146.35 95.0131C146.851 99.9855 146.377 104.753 144.929 109.317C143.484 113.88 141.306 117.942 138.397 121.503C135.488 125.064 131.942 128.007 127.758 130.333C123.575 132.662 118.997 134.077 114.025 134.578Z" fill="#42AB00"/>
</g>
<rect x="6.29526" y="25.3889" width="193.214" height="272.297" rx="11.5928" transform="rotate(-5.75045 6.29526 25.3889)" stroke="#CACACA" stroke-width="0.539202"/>
</g>
<defs>
<filter id="filter0_d_1366_1084" x="-0.289933" y="-0.555558" width="232.695" height="303.456" filterUnits="userSpaceOnUse" color-interpolation-filters="sRGB">
<feFlood flood-opacity="0" result="BackgroundImageFix"/>
<feColorMatrix in="SourceAlpha" type="matrix" values="0 0 0 0 0 0 0 0 0 0 0 0 0 0 0 0 0 0 127 0" result="hardAlpha"/>
<feOffset/>
<feGaussianBlur stdDeviation="3.14497"/>
<feComposite in2="hardAlpha" operator="out"/>
<feColorMatrix type="matrix" values="0 0 0 0 0 0 0 0 0 0 0 0 0 0 0 0 0 0 0.15 0"/>
<feBlend mode="normal" in2="BackgroundImageFix" result="effect1_dropShadow_1366_1084"/>
<feBlend mode="normal" in="SourceGraphic" in2="effect1_dropShadow_1366_1084" result="shape"/>
</filter>
<clipPath id="clip0_1366_1084">
<rect x="6" y="25.1477" width="193.753" height="272.836" rx="11.8624" transform="rotate(-5.75045 6 25.1477)" fill="white"/>
</clipPath>
</defs>
</svg>
