<svg width="24" height="25" viewBox="0 0 24 25" fill="none" xmlns="http://www.w3.org/2000/svg">
<path d="M12.0068 22.5C17.5297 22.5 22.0068 18.0228 22.0068 12.5C22.0068 6.97715 17.5297 2.5 12.0068 2.5C6.48399 2.5 2.00684 6.97715 2.00684 12.5C2.00684 18.0228 6.48399 22.5 12.0068 22.5Z" stroke="black" stroke-width="2" stroke-linecap="round" stroke-linejoin="round"/>
<path d="M12.0068 18.5C15.3205 18.5 18.0068 15.8137 18.0068 12.5C18.0068 9.18629 15.3205 6.5 12.0068 6.5C8.69313 6.5 6.00684 9.18629 6.00684 12.5C6.00684 15.8137 8.69313 18.5 12.0068 18.5Z" stroke="black" stroke-width="2" stroke-linecap="round" stroke-linejoin="round"/>
<path d="M12.0068 14.5C13.1114 14.5 14.0068 13.6046 14.0068 12.5C14.0068 11.3954 13.1114 10.5 12.0068 10.5C10.9023 10.5 10.0068 11.3954 10.0068 12.5C10.0068 13.6046 10.9023 14.5 12.0068 14.5Z" stroke="black" stroke-width="2" stroke-linecap="round" stroke-linejoin="round"/>
</svg>
