<svg width="24" height="25" viewBox="0 0 24 25" fill="none" xmlns="http://www.w3.org/2000/svg">
<path d="M12.0068 22.4861C17.5297 22.4861 22.0068 18.0089 22.0068 12.4861C22.0068 6.96324 17.5297 2.48608 12.0068 2.48608C6.48399 2.48608 2.00684 6.96324 2.00684 12.4861C2.00684 18.0089 6.48399 22.4861 12.0068 22.4861Z" stroke="black" stroke-width="2" stroke-linecap="round" stroke-linejoin="round"/>
<path d="M9.09692 9.48604C9.33203 8.81771 9.79608 8.25415 10.4069 7.89518C11.0177 7.5362 11.7358 7.40498 12.4341 7.52476C13.1324 7.64453 13.7657 8.00757 14.222 8.54957C14.6783 9.09157 14.928 9.77757 14.9269 10.486C14.9269 12.486 11.9269 13.486 11.9269 13.486" stroke="black" stroke-width="2" stroke-linecap="round" stroke-linejoin="round"/>
<path d="M12.0068 17.4861H12.0168" stroke="black" stroke-width="2" stroke-linecap="round" stroke-linejoin="round"/>
</svg>
