<svg width="25" height="26" viewBox="0 0 25 26" fill="none" xmlns="http://www.w3.org/2000/svg">
<g id="bell (1) 2">
<path id="Vector" d="M18.75 8.83398C18.75 7.17638 18.0915 5.58667 16.9194 4.41457C15.7473 3.24246 14.1576 2.58398 12.5 2.58398C10.8424 2.58398 9.25268 3.24246 8.08058 4.41457C6.90848 5.58667 6.25 7.17638 6.25 8.83398C6.25 16.1257 3.125 18.209 3.125 18.209H21.875C21.875 18.209 18.75 16.1257 18.75 8.83398Z" stroke="#FEB800" stroke-width="2" stroke-linecap="round" stroke-linejoin="round"/>
<path id="Vector_2" d="M14.2995 22.375C14.1163 22.6907 13.8535 22.9528 13.5372 23.1349C13.2209 23.3171 12.8624 23.413 12.4974 23.413C12.1324 23.413 11.7738 23.3171 11.4576 23.1349C11.1413 22.9528 10.8784 22.6907 10.6953 22.375" stroke="#FEB800" stroke-width="2" stroke-linecap="round" stroke-linejoin="round"/>
</g>
</svg>
