<svg width="103" height="104" viewBox="0 0 103 104" fill="none" xmlns="http://www.w3.org/2000/svg">
<g clip-path="url(#clip0_727_3506)">
<path d="M43.483 0.832031C43.6773 8.84382 47.3131 13.0761 53.38 14.6394C46.3292 14.5536 41.6903 17.8207 39.4752 24.467C39.504 16.0025 36.0218 11.6153 29.5781 10.6597C36.1442 10.5977 41.1935 8.00975 43.483 0.832031Z" fill="#FEB800"/>
<path d="M58.4218 8.89844C54.09 33.663 43.3914 44.93 32.3544 52.5057L31.8768 51.9576C31.7616 51.7956 31.6392 51.6359 31.5144 51.4786C35.3638 47.7277 36.7894 42.4827 35.6902 37.1303C34.7207 31.8567 28.2506 25.2437 19.3231 26.9357C29.9545 27.8984 33.084 41.1696 24.7036 46.6911C18.8743 50.4944 11.6459 47.9613 9.03248 42.8473C6.04705 37.943 8.10374 30.4578 14.3578 27.7769C15.1737 27.4266 16.5417 26.8118 17.372 26.6283C23.0453 25.6036 25.0852 24.5193 27.0411 22.0981C28.9418 19.665 28.7546 17.6799 28.1906 16.1905C27.7275 14.9633 27.1443 14.439 27.1395 14.4628C26.4075 15.9236 23.8181 19.4172 18.68 19.4506C16.1409 19.4791 13.4794 19.9176 10.7484 21.1663C1.04092 25.7513 -2.65967 37.2614 2.00567 46.3885C6.49822 55.1771 17.6168 58.6397 26.6427 54.7482C26.7339 54.8602 26.8251 54.9722 26.9139 55.0913C2.53124 67.3235 -5.03074 89.1426 5.65587 99.3564C12.0371 105.643 24.1805 104.165 30.8617 94.8619C40.0508 82.0698 39.422 68.9487 37.0869 57.9558L37.0125 57.87C48.7935 48.6166 58.4362 35.0285 58.4218 8.89844ZM12.9971 90.4009C7.90695 85.213 11.6555 70.624 30.7849 61.8735C34.5287 83.5282 21.0366 97.631 12.9971 90.4009Z" fill="black"/>
</g>
<path d="M100.62 49.5219H100.057V50.6345H99.5469V47.7363H100.573C100.909 47.7363 101.171 47.8096 101.352 47.9629C101.533 48.1161 101.627 48.3293 101.627 48.6158C101.627 48.809 101.58 48.9689 101.486 49.1021C101.392 49.2354 101.258 49.3353 101.09 49.402L101.748 50.6079V50.6345H101.204L100.62 49.5219ZM100.05 49.1155H100.573C100.741 49.1155 100.875 49.0755 100.976 48.9889C101.07 48.9023 101.117 48.789 101.117 48.6358C101.117 48.4825 101.07 48.3626 100.983 48.276C100.896 48.1894 100.761 48.1494 100.587 48.1427H100.05V49.1155Z" fill="black"/>
<path d="M50.4935 67.2378L50.7686 65.6188C49.8092 66.5715 48.7759 67.0446 47.6621 67.0446C46.7765 67.0446 46.0518 66.7248 45.4949 66.0918C44.9381 65.4522 44.6562 64.6727 44.6562 63.7533C44.6562 62.9138 44.8039 62.0744 45.0924 61.2415C45.3809 60.4087 45.8506 59.6759 46.4947 59.0496C47.1388 58.4233 47.897 58.1035 48.7558 58.1035C49.3865 58.1035 49.9165 58.2901 50.3392 58.6698C50.7619 59.0496 51.0571 59.4294 51.2249 59.8224C51.3926 59.5026 51.5738 59.2694 51.7549 59.1295C51.9361 58.9896 52.1776 58.9163 52.4729 58.9163C52.9694 58.9163 53.2109 59.3161 53.2109 60.1156C53.2109 60.7885 53.117 61.8412 52.9358 63.2736C52.7547 64.706 52.5735 65.7521 52.4058 66.4117C52.446 66.385 52.701 66.2051 53.1572 65.8786C53.6135 65.5522 54.0362 65.259 54.4253 64.9992C54.8145 64.7394 55.0627 64.6128 55.1768 64.6128C55.4049 64.6128 55.519 64.6994 55.519 64.8659C55.519 65.0059 55.0963 65.4189 54.2643 66.1118C53.4256 66.8047 52.7412 67.3244 52.2045 67.6775C51.1645 71.1354 49.7354 72.8609 47.9372 72.8609C47.3065 72.8609 46.8167 72.6877 46.488 72.3346C46.1592 71.9815 45.9915 71.5551 45.9915 71.0554C45.9915 70.6223 46.1525 70.1893 46.4678 69.7629C46.7832 69.3365 47.1992 68.9634 47.7024 68.6369C48.2123 68.3171 48.6887 68.044 49.1382 67.8174C49.5878 67.5909 50.0373 67.3977 50.4935 67.2311V67.2378ZM48.635 64.846C49.0443 64.846 49.42 64.5595 49.7555 63.9732C50.091 63.3935 50.3325 62.714 50.4734 61.9478C50.3057 62.0344 50.1514 62.0744 50.0105 62.0744C49.8293 62.0744 49.5945 61.9744 49.306 61.7679C49.0174 61.568 48.7893 61.4614 48.6216 61.4614C48.3666 61.4614 48.1586 61.6879 47.9976 62.1343C47.8366 62.5807 47.7561 63.0737 47.7561 63.6067C47.7561 64.4329 48.0513 64.846 48.6417 64.846H48.635ZM50.2386 68.517C48.9101 69.1899 48.2526 69.7029 48.2526 70.0694C48.2526 70.1959 48.2928 70.3092 48.38 70.4025C48.4673 70.4958 48.5612 70.5491 48.6753 70.5491C49.0107 70.5491 49.3194 70.3425 49.5945 69.9294C49.8696 69.5164 50.0843 69.0433 50.2386 68.5103V68.517Z" fill="black"/>
<path d="M57.318 58.796C57.7139 58.796 58.0628 58.9026 58.3647 59.1224C58.6666 59.3423 58.8209 59.6221 58.8209 59.9752C58.8209 60.435 58.6733 61.2544 58.3781 62.4337C58.0829 63.6063 57.9353 64.4191 57.9353 64.8722C57.9353 65.7116 58.2842 66.1314 58.9954 66.1314C59.6261 66.1314 60.2702 65.8116 60.921 65.1653C61.0217 65.0654 61.1223 64.9521 61.2297 64.8189C61.337 64.6856 61.4175 64.5924 61.4712 64.5457C61.5249 64.4991 61.592 64.4724 61.6591 64.4724C61.8134 64.4724 61.8939 64.5524 61.8939 64.7056C61.8939 64.8455 61.8134 65.0121 61.6591 65.212C61.2095 65.7716 60.8539 66.1914 60.599 66.4712C60.344 66.751 59.9683 67.0375 59.4718 67.3306C58.9686 67.6238 58.4586 67.7704 57.942 67.7704C57.0094 67.7704 56.2982 67.4705 55.8084 66.8643C55.3119 66.2646 55.0703 65.4851 55.0703 64.5324C55.0703 63.1732 55.1642 61.9607 55.3454 60.8813C55.4326 60.3617 55.6473 59.8886 55.9895 59.4556C56.3317 59.0225 56.7812 58.8026 57.3314 58.8026L57.318 58.796ZM56.1774 55.3981C56.1774 54.8651 56.4189 54.3921 56.8953 53.979C57.3717 53.5659 57.9152 53.3594 58.5257 53.3594C59.0625 53.3594 59.4986 53.4926 59.8341 53.7591C60.1763 54.0256 60.344 54.4121 60.344 54.9117C60.344 55.5114 60.1025 55.9977 59.6127 56.3575C59.1296 56.7239 58.5257 56.9038 57.8078 56.9038C57.3314 56.9038 56.9356 56.7572 56.6336 56.4508C56.3317 56.151 56.1774 55.7979 56.1774 55.3914V55.3981Z" fill="black"/>
<path d="M61.1267 69.3166V68.5171C61.0998 67.9574 61.0931 67.2912 61.1133 66.5117C61.1334 65.7322 61.1535 64.8994 61.1669 64.0133C61.1804 63.1271 61.2475 62.2077 61.3682 61.255C61.489 60.3022 61.6232 59.3695 61.7708 58.4634C61.9184 57.5506 62.1465 56.6912 62.4485 55.8783C62.7504 55.0655 63.0993 54.3593 63.4817 53.7463C63.8709 53.1401 64.354 52.6537 64.9377 52.3006C65.5214 51.9408 66.1655 51.7676 66.87 51.7676C67.5209 51.7676 68.0241 51.9475 68.3931 52.3139C68.7621 52.6803 68.9433 53.2267 68.9433 53.9529C68.9433 54.7257 68.742 55.3653 68.3394 55.885C67.9369 56.4047 67.541 56.6645 67.1451 56.6645C66.9506 56.6645 66.7426 56.6379 66.5212 56.5779C66.2997 56.5246 66.1253 56.4913 65.9844 56.4913C65.5214 56.4913 65.0383 57.564 64.5351 59.7159C64.0319 61.8679 63.7032 63.94 63.5287 65.9387C64.1326 65.5723 64.978 65.2458 66.0582 64.9527C67.1384 64.6595 68.0711 64.5129 68.8561 64.5129C69.0976 64.5129 69.2184 64.6129 69.2184 64.8061C69.2184 64.8327 68.5139 65.1592 67.1049 65.7788C65.6959 66.3984 64.9914 66.8182 64.9914 67.0247C64.9914 67.1246 65.1256 67.3312 65.394 67.6576C65.6623 67.9774 65.9307 68.3772 66.1991 68.8569C66.4675 69.3299 66.6017 69.803 66.6017 70.2627C66.6017 71.0622 66.34 71.7284 65.8166 72.2681C65.2933 72.8078 64.6827 73.0743 63.9782 73.0743C63.2335 73.0743 62.5692 72.7278 61.9922 72.0349C61.4152 71.342 61.1267 70.4359 61.1267 69.3166ZM64.8438 69.7963C64.8438 69.6031 64.7968 69.4032 64.6962 69.1967C64.5955 68.9901 64.5016 68.8302 64.4009 68.7036C64.3003 68.5771 64.1393 68.3972 63.9179 68.1707C63.6897 67.9375 63.5421 67.7842 63.475 67.6976C63.475 68.9035 63.5153 69.7697 63.6025 70.3093C63.683 70.849 63.8508 71.1155 64.0856 71.1155C64.3204 71.1155 64.5083 70.9889 64.6425 70.729C64.7767 70.4692 64.8438 70.1561 64.8438 69.7963Z" fill="black"/>
<path d="M72.775 54.5586C73.5063 54.5586 73.8753 54.8851 73.8753 55.5446C73.8753 55.7379 73.5466 56.5507 72.8823 57.9831C73.4728 57.9431 73.9491 57.9165 74.298 57.9165C74.8616 57.9165 75.1434 58.0564 75.1434 58.3362C75.1434 58.4362 75.0361 58.5228 74.8281 58.6094C74.6201 58.696 74.3316 58.7826 73.9827 58.8826C73.6338 58.9825 73.3923 59.0491 73.2648 59.0958C72.9092 59.2357 72.5401 59.4089 72.1443 59.6221L71.9765 60.0218C71.2989 61.854 70.9634 63.413 70.9634 64.7056C70.9634 65.1986 71.0909 65.5717 71.3526 65.8382C71.6142 66.1047 71.9497 66.238 72.359 66.238C72.9494 66.238 73.6137 65.9248 74.345 65.2919C74.4591 65.1919 74.6 65.0587 74.7811 64.8855C74.9556 64.7122 75.0965 64.5857 75.1904 64.5057C75.2911 64.4258 75.3783 64.3924 75.4655 64.3924C75.6601 64.3924 75.7607 64.4524 75.7607 64.579C75.7607 64.7056 75.6802 64.8788 75.5259 65.1053C74.2309 66.8842 72.9092 67.7703 71.574 67.7703C70.4602 67.7703 69.5879 67.4838 68.964 66.9175C68.34 66.3512 68.0246 65.4718 68.0246 64.2858C68.0246 63.5596 68.1119 62.8001 68.2796 62.0206C67.6623 62.4537 67.1188 62.6735 66.6559 62.6735C66.3607 62.6735 66.1258 62.5736 65.9581 62.3804C65.7904 62.1872 65.7031 61.9473 65.7031 61.6675C65.7031 60.9946 65.9245 60.4682 66.3674 60.0951C66.8102 59.7154 67.4409 59.3623 68.2595 59.0225C68.454 58.9359 68.7694 58.8293 69.1921 58.6893L69.4672 57.8699C69.8161 56.7639 70.2522 55.9377 70.7688 55.3914C71.2855 54.8451 71.9564 54.5719 72.7884 54.5719L72.775 54.5586Z" fill="black"/>
<path d="M77.5898 64.4463C77.5898 65.0459 77.7911 65.5256 78.2004 65.8721C78.6096 66.2185 79.1867 66.3984 79.9314 66.3984C80.5487 66.3984 81.166 66.2385 81.7698 65.9254C82.3737 65.6122 82.8635 65.2924 83.2258 64.9793C83.5881 64.6661 83.8028 64.5063 83.8565 64.5063C84.0376 64.5063 84.1316 64.5795 84.1316 64.7195C84.1316 64.8594 84.0041 65.0992 83.7424 65.4323C83.4808 65.7655 83.1453 66.1186 82.7293 66.4783C82.3133 66.8448 81.7832 67.1579 81.1458 67.4311C80.5017 67.7043 79.8576 67.8375 79.2135 67.8375C77.8582 67.8375 76.8249 67.4644 76.1137 66.7249C75.4025 65.9853 75.0469 65.0459 75.0469 63.9133C75.0469 62.5675 75.4763 61.3416 76.3351 60.2289C77.1939 59.1163 78.2876 58.5566 79.6094 58.5566C80.3541 58.5566 80.9446 58.8365 81.3606 59.3828C81.7833 59.9358 81.998 60.5687 81.998 61.2816C81.998 62.3143 81.7161 63.2271 81.1525 64.0132C80.5889 64.7994 80.0186 65.1858 79.4416 65.1858C78.9921 65.1858 78.5962 65.1125 78.254 64.966C77.9186 64.8194 77.6904 64.6395 77.5764 64.433L77.5898 64.4463ZM79.0726 61.2749C78.7304 61.2749 78.4084 61.5414 78.0997 62.0744C77.7911 62.6074 77.6368 63.1738 77.6368 63.7734C78.0863 63.6468 78.5023 63.387 78.8847 62.9872C79.2672 62.5875 79.455 62.181 79.455 61.7613C79.455 61.4415 79.3276 61.2816 79.0726 61.2816V61.2749Z" fill="black"/>
<path d="M95.1796 53.5537C95.1796 53.9601 94.9917 54.7929 94.616 56.0654C94.2402 57.3313 93.8712 58.7704 93.4955 60.3761C93.1197 61.9884 92.9386 63.4142 92.9386 64.6601C92.9386 65.0265 93.0258 65.353 93.2137 65.6394C93.4015 65.9259 93.6162 66.0725 93.8712 66.0725C94.1664 66.0725 94.4818 65.9393 94.8105 65.6661C95.1393 65.3929 95.4211 65.1198 95.6559 64.8466C95.8908 64.5734 96.0384 64.4402 96.1122 64.4402C96.2799 64.4402 96.3671 64.5202 96.3671 64.6734C96.3671 65.0931 95.978 65.7061 95.2064 66.5189C94.4348 67.3317 93.6364 67.7381 92.8178 67.7381C92.0865 67.7381 91.5698 67.445 91.2612 66.8587C90.9525 66.2724 90.8049 65.3863 90.8049 64.2137C90.2279 65.2464 89.5368 66.0725 88.7317 66.6921C87.9265 67.3117 87.061 67.6182 86.1284 67.6182C85.283 67.6182 84.5919 67.3051 84.0551 66.6721C83.5184 66.0392 83.25 65.2264 83.25 64.2137C83.25 62.5614 83.7599 61.0956 84.7798 59.8164C85.7996 58.5372 86.9201 57.8976 88.1278 57.8976C89.255 57.8976 90.1675 58.4373 90.8519 59.5166C90.9056 59.1835 90.9928 58.6971 91.0934 58.0575C91.1941 57.4179 91.288 56.9249 91.3551 56.5651C91.4289 56.2054 91.5162 55.7723 91.6302 55.2526C91.7443 54.7329 91.865 54.3332 91.9925 54.0467C92.12 53.7602 92.2743 53.4671 92.4555 53.1673C92.6366 52.8674 92.8513 52.6476 93.0862 52.5143C93.3277 52.3811 93.6028 52.3145 93.9115 52.3145C94.3073 52.3145 94.6092 52.4344 94.8307 52.6809C95.0521 52.9274 95.1594 53.2206 95.1594 53.5737L95.1796 53.5537ZM90.503 61.4221C90.0937 61.7885 89.6912 61.9684 89.2953 61.9684C89.141 61.9684 88.8994 61.8352 88.5774 61.5687C88.2553 61.3022 87.94 61.1689 87.6447 61.1689C87.3026 61.1689 86.9537 61.502 86.5846 62.1683C86.2156 62.8345 86.0345 63.4275 86.0345 63.9405C86.0345 64.3869 86.115 64.7134 86.276 64.9132C86.437 65.1131 86.7457 65.2197 87.1952 65.2197C87.7588 65.2197 88.4231 64.72 89.1946 63.7273C89.9595 62.7346 90.3957 61.9618 90.4963 61.4154L90.503 61.4221Z" fill="black"/>
<path d="M58.0186 82.502C58.4413 82.502 58.7701 82.7218 58.9982 83.1549C59.233 83.5879 59.327 84.0876 59.2867 84.6473C59.1324 86.3262 58.609 87.9719 57.7234 89.5775C58.0186 89.9106 58.401 90.0839 58.864 90.0839C59.0921 90.0839 59.3538 90.0239 59.6557 89.8973C59.9577 89.7707 60.1321 89.7108 60.1724 89.7108C60.2395 89.7108 60.2998 89.7308 60.3535 89.7641C60.4005 89.7974 60.4206 89.844 60.4072 89.8973C60.3938 90.0905 60.1657 90.3104 59.7295 90.5502C59.2934 90.7901 58.8841 90.91 58.5017 90.91C57.9783 90.91 57.5355 90.7701 57.1732 90.4903C56.0863 92.0826 54.9322 92.8821 53.7044 92.8821C53.0401 92.8821 52.5302 92.7222 52.1746 92.4091C51.8123 92.0959 51.4969 91.6296 51.2151 91.01C50.1282 92.4824 49.048 93.2152 47.9811 93.2152C47.3303 93.2152 46.8137 92.8355 46.4245 92.0826C46.0354 91.3298 45.8005 90.497 45.7066 89.5842C45.6127 88.6714 45.5254 87.8453 45.4449 87.0858C45.3644 86.3262 45.2503 85.9531 45.1094 85.9531C45.0088 85.9531 44.9149 85.9398 44.8209 85.9198C44.727 85.8998 44.6465 85.8532 44.566 85.7932C44.4855 85.7333 44.4586 85.64 44.472 85.5334C44.5123 84.9871 44.774 84.5007 45.2571 84.0743C45.7334 83.6479 46.2903 83.4347 46.9277 83.4347C48.0549 83.4347 48.6655 84.0343 48.7662 85.2402C48.7796 85.4201 48.7997 86.0597 48.8265 87.1524C48.8534 88.245 48.9205 89.1245 49.0144 89.7841C49.115 90.4503 49.2694 90.7834 49.4774 90.7834C49.8732 90.7834 50.2758 90.3371 50.6851 89.4376C50.4435 88.6115 50.3697 87.7453 50.4502 86.8326C50.5375 85.9531 50.826 85.2136 51.3158 84.6273C51.8123 84.041 52.4228 83.7478 53.1542 83.7478C53.691 83.7478 54.0667 83.9344 54.2948 84.3142C54.5229 84.6939 54.6034 85.1869 54.5498 85.8065C54.4491 86.7593 53.9593 87.672 53.067 88.5582C53.0133 89.1311 53.1273 89.7108 53.4159 90.3037C53.7044 90.89 54.013 91.1832 54.3351 91.1832C54.9993 91.1832 55.6501 90.6102 56.301 89.4643C55.7239 88.3583 55.5025 87.0924 55.6434 85.6666C55.7307 84.7872 55.9856 84.041 56.415 83.428C56.8444 82.8218 57.3745 82.5153 58.0119 82.5153L58.0186 82.502ZM53.3219 85.6933C53.1273 85.6933 52.9999 86.0531 52.9395 86.7659C52.9395 86.8659 52.9328 86.9725 52.9193 87.0924C52.9059 87.2123 52.8925 87.3056 52.8858 87.3789C52.8791 87.4522 52.8724 87.4922 52.8724 87.5055C53.2414 86.8059 53.436 86.3529 53.4628 86.1397C53.4763 86.0531 53.4762 85.9598 53.4494 85.8532C53.4226 85.7466 53.3823 85.6933 53.3152 85.6933H53.3219ZM57.1464 86.233C57.0927 86.6394 57.0726 87.1124 57.1061 87.6587C57.4751 86.666 57.6831 85.8865 57.7368 85.3268C57.7905 84.8072 57.7771 84.5473 57.6965 84.5473C57.4416 84.5473 57.2604 85.107 57.1464 86.2263V86.233Z" fill="black"/>
<path d="M69.0459 84.3666C69.368 84.3666 69.6162 84.4865 69.7773 84.7264C69.9383 84.9662 70.0188 85.2327 70.0188 85.5259C70.0188 85.8923 69.8444 86.5985 69.5022 87.6445C69.1533 88.6906 68.9855 89.6033 68.9855 90.3762C68.9855 90.9958 69.2405 91.3022 69.7437 91.3022C69.8578 91.3022 69.9718 91.2889 70.0792 91.2623C70.1865 91.2356 70.3073 91.1823 70.4281 91.1157C70.5489 91.0424 70.6495 90.9824 70.7367 90.9291C70.824 90.8758 70.9246 90.7892 71.0521 90.676C71.1796 90.5627 71.2668 90.4894 71.3138 90.4428C71.3607 90.4028 71.4479 90.3162 71.5754 90.1829C71.7029 90.0497 71.77 89.9764 71.7834 89.9631C71.9512 89.7965 72.092 89.7099 72.2061 89.7099C72.3604 89.7099 72.4409 89.7899 72.4409 89.9431C72.4409 90.0297 72.3604 90.1696 72.2061 90.3628C71.8706 90.7959 71.5754 91.149 71.3205 91.4155C71.0655 91.682 70.6898 91.9485 70.2 92.2217C69.7035 92.4948 69.2002 92.6281 68.6769 92.6281C68.2005 92.6281 67.7711 92.4549 67.3954 92.1018C67.0196 91.7553 66.8385 91.2556 66.8385 90.6094C66.8385 89.9631 66.8989 89.4434 67.0264 88.9904C66.4024 90.0097 65.6912 90.9092 64.8793 91.6887C64.0674 92.4682 63.2355 92.8546 62.3766 92.8546C61.6319 92.8546 61.0146 92.5548 60.5382 91.9618C60.0619 91.3689 59.8203 90.7026 59.8203 89.9764C59.8203 88.2575 60.3638 86.7584 61.4507 85.4925C62.5377 84.2267 63.7186 83.5938 65.0001 83.5938C66.2816 83.5938 67.174 84.1401 67.6839 85.2327C67.9254 84.6597 68.375 84.3733 69.0392 84.3733L69.0459 84.3666ZM66.5768 87.7245C66.0535 87.0649 65.5368 86.7384 65.0135 86.7384C64.4499 86.7384 63.9198 87.0449 63.4166 87.6645C62.9134 88.2775 62.6652 88.9037 62.6652 89.53C62.6652 89.7699 62.7457 89.9764 62.9067 90.1496C63.0677 90.3229 63.3026 90.4095 63.6112 90.4095C64.1077 90.4095 64.631 90.1296 65.1946 89.57C65.7582 89.0103 66.2145 88.3974 66.5701 87.7245H66.5768Z" fill="black"/>
<path d="M75.7151 77.166C76.2384 77.166 76.594 77.3126 76.7819 77.5991C76.9698 77.8856 77.0704 78.3653 77.0704 79.0382C77.0704 79.5445 76.6812 81.2768 75.9096 84.2349C75.1313 87.1931 74.7489 89.1852 74.7489 90.2045C74.7489 90.5976 74.7959 90.8841 74.8965 91.0773C74.9971 91.2639 75.185 91.3638 75.4668 91.3638C75.9163 91.3638 76.3592 91.2306 76.7886 90.9641C77.218 90.6976 77.5669 90.431 77.8219 90.1579C78.0835 89.8847 78.2378 89.7515 78.2982 89.7515C78.3989 89.7515 78.4458 89.7981 78.4458 89.8981C78.4458 90.1246 78.2781 90.4777 77.9493 90.9707C77.6206 91.4637 77.1375 91.9368 76.5001 92.4098C75.8694 92.8762 75.2253 93.1094 74.5744 93.1094C73.7693 93.1094 73.1252 92.8162 72.6287 92.2299C72.1322 91.6436 71.8906 90.8641 71.8906 89.8981C71.8906 86.0205 72.2261 82.7425 72.9038 80.0509C73.0983 79.2647 73.4808 78.5918 74.0377 78.0255C74.5946 77.4592 75.1515 77.1727 75.7151 77.1727V77.166Z" fill="black"/>
<path d="M81.8869 77.166C82.4103 77.166 82.7659 77.3126 82.9538 77.5991C83.1416 77.8856 83.2423 78.3653 83.2423 79.0382C83.2423 79.5445 82.8531 81.2768 82.0815 84.2349C81.3032 87.1931 80.9208 89.1852 80.9208 90.2045C80.9208 90.5976 80.9677 90.8841 81.0684 91.0773C81.169 91.2639 81.3569 91.3638 81.6387 91.3638C82.0882 91.3638 82.5311 91.2306 82.9605 90.9641C83.3899 90.6976 83.7388 90.431 83.9937 90.1579C84.2554 89.8847 84.4097 89.7515 84.4701 89.7515C84.5708 89.7515 84.6177 89.7981 84.6177 89.8981C84.6177 90.1246 84.45 90.4777 84.1212 90.9707C83.7924 91.4637 83.3094 91.9368 82.672 92.4098C82.0413 92.8762 81.3971 93.1094 80.7463 93.1094C79.9412 93.1094 79.2971 92.8162 78.8006 92.2299C78.304 91.6436 78.0625 90.8641 78.0625 89.8981C78.0625 86.0205 78.398 82.7425 79.0756 80.0509C79.2702 79.2647 79.6527 78.5918 80.2096 78.0255C80.7665 77.4592 81.3233 77.1727 81.8869 77.1727V77.166Z" fill="black"/>
<path d="M86.621 89.6377C86.621 90.2373 86.8223 90.717 87.2316 91.0635C87.6409 91.4099 88.2179 91.5898 88.9627 91.5898C89.5799 91.5898 90.1972 91.4299 90.8011 91.1168C91.4049 90.8036 91.8947 90.4838 92.2571 90.1707C92.6194 89.8576 92.8341 89.6977 92.8878 89.6977C93.0689 89.6977 93.1628 89.7709 93.1628 89.9109C93.1628 90.0508 93.0354 90.2906 92.7737 90.6237C92.512 90.9569 92.1765 91.31 91.7606 91.6698C91.3446 92.0362 90.8145 92.3493 90.1771 92.6225C89.533 92.8957 88.8889 93.0289 88.2448 93.0289C86.8894 93.0289 85.8562 92.6558 85.1449 91.9163C84.4337 91.1767 84.0781 90.2373 84.0781 89.1047C84.0781 87.7589 84.5075 86.533 85.3664 85.4203C86.2252 84.3077 87.3188 83.748 88.6406 83.748C89.3854 83.748 89.9758 84.0279 90.3918 84.5742C90.8145 85.1272 91.0292 85.7601 91.0292 86.473C91.0292 87.5057 90.7474 88.4185 90.1838 89.2046C89.6202 89.9908 89.0499 90.3772 88.4729 90.3772C88.0233 90.3772 87.6275 90.3039 87.2853 90.1574C86.9498 90.0108 86.7217 89.8309 86.6076 89.6244L86.621 89.6377ZM88.0971 86.4664C87.755 86.4664 87.4329 86.7328 87.1243 87.2658C86.8156 87.7988 86.6613 88.3652 86.6613 88.9648C87.1108 88.8382 87.5268 88.5784 87.9093 88.1786C88.2917 87.7789 88.4796 87.3724 88.4796 86.9527C88.4796 86.6329 88.3521 86.473 88.0971 86.473V86.4664Z" fill="black"/>
<path d="M99.0953 79.75C99.8266 79.75 100.196 80.0765 100.196 80.7361C100.196 80.9293 99.8669 81.7421 99.2026 83.1745C99.7931 83.1346 100.269 83.1079 100.618 83.1079C101.182 83.1079 101.464 83.2478 101.464 83.5276C101.464 83.6276 101.356 83.7142 101.148 83.8008C100.94 83.8874 100.652 83.974 100.303 84.074C99.9541 84.1739 99.7126 84.2405 99.5851 84.2872C99.2295 84.4271 98.8605 84.6003 98.4646 84.8135L98.2968 85.2133C97.6192 87.0454 97.2837 88.6045 97.2837 89.897C97.2837 90.39 97.4112 90.7631 97.6729 91.0296C97.9345 91.2961 98.27 91.4294 98.6793 91.4294C99.2697 91.4294 99.934 91.1162 100.665 90.4833C100.779 90.3834 100.92 90.2501 101.101 90.0769C101.276 89.9036 101.417 89.7771 101.511 89.6971C101.611 89.6172 101.699 89.5839 101.786 89.5839C101.98 89.5839 102.081 89.6438 102.081 89.7704C102.081 89.897 102.001 90.0702 101.846 90.2967C100.551 92.0756 99.2295 92.9617 97.8943 92.9617C96.7805 92.9617 95.9083 92.6753 95.2843 92.1089C94.6603 91.5426 94.3449 90.6632 94.3449 89.4773C94.3449 88.751 94.4322 87.9915 94.5999 87.212C93.9826 87.6451 93.4391 87.8649 92.9762 87.8649C92.681 87.8649 92.4461 87.765 92.2784 87.5718C92.1107 87.3786 92.0234 87.1387 92.0234 86.8589C92.0234 86.186 92.2448 85.6596 92.6877 85.2865C93.1305 84.9068 93.7612 84.5537 94.5798 84.2139C94.7743 84.1273 95.0897 84.0207 95.5124 83.8808L95.7875 83.0613C96.1364 81.9553 96.5725 81.1291 97.0891 80.5828C97.6058 80.0365 98.2767 79.7633 99.1087 79.7633L99.0953 79.75Z" fill="black"/>
<defs>
<clipPath id="clip0_727_3506">
<rect width="63.3517" height="102.337" fill="white" transform="translate(0 0.832031)"/>
</clipPath>
</defs>
</svg>
