<svg width="201" height="201" viewBox="0 0 201 201" fill="none" xmlns="http://www.w3.org/2000/svg">
<g clip-path="url(#clip0_727_3027)">
<path d="M85.4041 0C85.7859 15.7359 92.927 24.0485 104.843 27.1189C90.9944 26.9504 81.8831 33.3674 77.5325 46.4213C77.589 29.7962 70.7497 21.1793 58.0938 19.3024C70.9901 19.1807 80.9074 14.0977 85.4041 0Z" fill="#FEB800"/>
<path d="M114.746 15.8438C106.238 64.4837 85.2247 86.6131 63.547 101.492L62.609 100.416C62.3828 100.098 62.1424 99.7841 61.8973 99.4752C69.4578 92.108 72.2577 81.8062 70.0989 71.2938C68.1946 60.9358 55.4868 47.9474 37.9524 51.2706C58.8334 53.1615 64.9799 79.2273 48.5202 90.072C37.0709 97.5421 22.8737 92.5667 17.7406 82.5223C11.877 72.8899 15.9165 58.1884 28.2 52.9228C29.8026 52.2347 32.4894 51.0272 34.1202 50.6668C45.2631 48.6542 49.2696 46.5245 53.1112 41.7691C56.8443 36.9903 56.4767 33.0914 55.369 30.1661C54.4593 27.7557 53.3139 26.7259 53.3044 26.7728C51.8668 29.6419 46.7809 36.5035 36.6891 36.5691C31.7022 36.6252 26.4749 37.4864 21.1108 39.939C2.04447 48.9443 -5.22384 71.5512 3.93932 89.4776C12.7631 106.739 34.601 113.54 52.3287 105.897C52.5078 106.117 52.687 106.337 52.8614 106.571C4.97159 130.596 -9.88084 173.451 11.1086 193.511C23.642 205.859 47.4926 202.957 60.6152 184.684C78.6634 159.559 77.4284 133.788 72.8421 112.197L72.696 112.028C95.8349 93.8539 114.774 67.1656 114.746 15.8438ZM25.5274 175.922C15.53 165.733 22.8925 137.078 60.4643 119.892C67.8175 162.423 41.3179 190.123 25.5274 175.922Z" fill="black"/>
<path d="M108.713 186.232C108.833 191.238 111.089 193.883 114.853 194.859C110.479 194.806 107.601 196.847 106.226 201C106.244 195.711 104.084 192.97 100.086 192.373C104.16 192.334 107.292 190.717 108.713 186.232Z" fill="#FEB800"/>
</g>
<path d="M198.018 95.632H196.909V97.8173H195.906V92.125H197.925C198.585 92.125 199.1 92.2689 199.456 92.5699C199.812 92.8709 199.997 93.2896 199.997 93.8523C199.997 94.2318 199.905 94.5458 199.72 94.8076C199.535 95.0693 199.271 95.2656 198.941 95.3964L200.235 97.765V97.8173H199.166L198.018 95.632ZM196.896 94.8337H197.925C198.255 94.8337 198.519 94.7552 198.717 94.5851C198.902 94.415 198.994 94.1925 198.994 93.8916C198.994 93.5906 198.902 93.3551 198.73 93.1849C198.559 93.0148 198.295 92.9363 197.952 92.9232H196.896V94.8337Z" fill="black"/>
<path d="M99.4106 130.427L99.9517 127.247C98.0646 129.118 96.0323 130.047 93.8417 130.047C92.0998 130.047 90.6745 129.419 89.5792 128.176C88.4839 126.92 87.9297 125.389 87.9297 123.583C87.9297 121.934 88.22 120.285 88.7874 118.65C89.3549 117.014 90.2787 115.575 91.5455 114.345C92.8124 113.114 94.3036 112.486 95.9927 112.486C97.2332 112.486 98.2757 112.853 99.1071 113.599C99.9385 114.344 100.519 115.09 100.849 115.862C101.179 115.234 101.535 114.776 101.892 114.502C102.248 114.227 102.723 114.083 103.304 114.083C104.28 114.083 104.755 114.868 104.755 116.438C104.755 117.76 104.57 119.827 104.214 122.641C103.858 125.454 103.502 127.509 103.172 128.804C103.251 128.752 103.752 128.399 104.65 127.757C105.547 127.116 106.378 126.54 107.144 126.03C107.909 125.52 108.397 125.271 108.622 125.271C109.07 125.271 109.295 125.441 109.295 125.768C109.295 126.043 108.463 126.854 106.827 128.215C105.177 129.576 103.831 130.597 102.776 131.291C100.73 138.082 97.9194 141.471 94.3828 141.471C93.1423 141.471 92.1789 141.131 91.5323 140.437C90.8857 139.744 90.5558 138.906 90.5558 137.925C90.5558 137.074 90.8725 136.224 91.4927 135.386C92.113 134.549 92.9311 133.816 93.9209 133.175C94.9238 132.547 95.8607 132.01 96.7449 131.565C97.6291 131.12 98.5132 130.741 99.4106 130.414V130.427ZM95.7552 125.729C96.5602 125.729 97.2992 125.166 97.959 124.015C98.6188 122.876 99.0939 121.542 99.371 120.037C99.0411 120.207 98.7376 120.285 98.4604 120.285C98.1041 120.285 97.6423 120.089 97.0748 119.683C96.5074 119.291 96.0587 119.082 95.7288 119.082C95.2273 119.082 94.8182 119.526 94.5015 120.403C94.1848 121.28 94.0264 122.248 94.0264 123.295C94.0264 124.918 94.6071 125.729 95.7684 125.729H95.7552ZM98.9091 132.939C96.2962 134.261 95.003 135.269 95.003 135.988C95.003 136.237 95.0822 136.459 95.2537 136.643C95.4253 136.826 95.61 136.931 95.8344 136.931C96.4942 136.931 97.1012 136.525 97.6423 135.714C98.1833 134.902 98.6056 133.973 98.9091 132.926V132.939Z" fill="black"/>
<path d="M112.851 113.846C113.629 113.846 114.315 114.055 114.909 114.487C115.503 114.919 115.806 115.469 115.806 116.162C115.806 117.065 115.516 118.675 114.936 120.991C114.355 123.294 114.065 124.89 114.065 125.78C114.065 127.429 114.751 128.253 116.15 128.253C117.39 128.253 118.657 127.625 119.937 126.356C120.135 126.16 120.333 125.937 120.544 125.675C120.755 125.414 120.914 125.231 121.019 125.139C121.125 125.047 121.257 124.995 121.389 124.995C121.692 124.995 121.85 125.152 121.85 125.453C121.85 125.728 121.692 126.055 121.389 126.448C120.504 127.547 119.805 128.371 119.304 128.921C118.802 129.47 118.063 130.033 117.087 130.609C116.097 131.185 115.094 131.472 114.078 131.472C112.243 131.472 110.845 130.884 109.881 129.693C108.905 128.515 108.43 126.984 108.43 125.113C108.43 122.443 108.614 120.062 108.971 117.942C109.142 116.921 109.565 115.992 110.238 115.141C110.911 114.291 111.795 113.859 112.877 113.859L112.851 113.846ZM110.607 107.172C110.607 106.125 111.082 105.196 112.019 104.385C112.956 103.574 114.025 103.168 115.226 103.168C116.282 103.168 117.139 103.43 117.799 103.953C118.472 104.477 118.802 105.236 118.802 106.217C118.802 107.395 118.327 108.35 117.364 109.057C116.414 109.776 115.226 110.13 113.814 110.13C112.877 110.13 112.098 109.842 111.504 109.24C110.911 108.651 110.607 107.957 110.607 107.159V107.172Z" fill="black"/>
<path d="M120.331 134.509V132.939C120.278 131.839 120.265 130.531 120.304 129C120.344 127.469 120.383 125.833 120.41 124.093C120.436 122.352 120.568 120.546 120.806 118.675C121.043 116.804 121.307 114.972 121.598 113.192C121.888 111.399 122.337 109.711 122.93 108.115C123.524 106.518 124.21 105.131 124.963 103.927C125.728 102.737 126.678 101.781 127.826 101.088C128.974 100.381 130.241 100.041 131.627 100.041C132.907 100.041 133.897 100.394 134.622 101.114C135.348 101.834 135.705 102.907 135.705 104.333C135.705 105.851 135.309 107.107 134.517 108.128C133.725 109.149 132.946 109.659 132.168 109.659C131.785 109.659 131.376 109.607 130.941 109.489C130.505 109.384 130.162 109.319 129.885 109.319C128.974 109.319 128.024 111.426 127.034 115.652C126.045 119.879 125.398 123.949 125.055 127.874C126.243 127.155 127.905 126.514 130.03 125.938C132.155 125.362 133.989 125.074 135.533 125.074C136.008 125.074 136.246 125.27 136.246 125.65C136.246 125.702 134.86 126.343 132.089 127.56C129.317 128.777 127.932 129.602 127.932 130.007C127.932 130.204 128.196 130.609 128.724 131.251C129.251 131.879 129.779 132.664 130.307 133.606C130.835 134.535 131.099 135.464 131.099 136.367C131.099 137.937 130.584 139.246 129.555 140.306C128.526 141.366 127.325 141.889 125.939 141.889C124.474 141.889 123.168 141.209 122.033 139.848C120.898 138.487 120.331 136.707 120.331 134.509ZM127.641 135.451C127.641 135.072 127.549 134.679 127.351 134.273C127.153 133.868 126.968 133.554 126.771 133.305C126.573 133.056 126.256 132.703 125.82 132.258C125.372 131.8 125.081 131.499 124.949 131.329C124.949 133.698 125.029 135.399 125.2 136.459C125.359 137.519 125.688 138.042 126.15 138.042C126.612 138.042 126.982 137.793 127.246 137.283C127.51 136.773 127.641 136.158 127.641 135.451Z" fill="black"/>
<path d="M143.237 105.523C144.676 105.523 145.401 106.165 145.401 107.46C145.401 107.84 144.755 109.436 143.448 112.25C144.61 112.171 145.547 112.119 146.233 112.119C147.341 112.119 147.896 112.393 147.896 112.943C147.896 113.139 147.684 113.309 147.275 113.48C146.866 113.65 146.299 113.82 145.613 114.016C144.926 114.212 144.451 114.343 144.201 114.435C143.501 114.71 142.775 115.05 141.997 115.469L141.667 116.254C140.334 119.852 139.674 122.914 139.674 125.453C139.674 126.421 139.925 127.154 140.44 127.678C140.954 128.201 141.614 128.463 142.419 128.463C143.58 128.463 144.887 127.848 146.325 126.605C146.549 126.408 146.827 126.147 147.183 125.806C147.526 125.466 147.803 125.218 147.988 125.06C148.186 124.903 148.357 124.838 148.529 124.838C148.912 124.838 149.11 124.956 149.11 125.204C149.11 125.453 148.951 125.793 148.648 126.238C146.101 129.732 143.501 131.472 140.875 131.472C138.684 131.472 136.969 130.91 135.742 129.798C134.514 128.685 133.894 126.958 133.894 124.629C133.894 123.202 134.066 121.711 134.396 120.179C133.182 121.03 132.113 121.462 131.202 121.462C130.621 121.462 130.16 121.266 129.83 120.886C129.5 120.507 129.328 120.036 129.328 119.486C129.328 118.164 129.764 117.13 130.635 116.398C131.506 115.652 132.746 114.958 134.356 114.291C134.739 114.121 135.359 113.911 136.19 113.637L136.731 112.027C137.418 109.855 138.275 108.232 139.291 107.159C140.308 106.086 141.627 105.55 143.264 105.55L143.237 105.523Z" fill="black"/>
<path d="M152.712 124.943C152.712 126.121 153.108 127.063 153.913 127.743C154.718 128.424 155.853 128.777 157.318 128.777C158.532 128.777 159.746 128.463 160.934 127.848C162.121 127.233 163.085 126.605 163.797 125.99C164.51 125.375 164.932 125.061 165.038 125.061C165.394 125.061 165.579 125.205 165.579 125.479C165.579 125.754 165.328 126.225 164.814 126.88C164.299 127.534 163.639 128.227 162.821 128.934C162.003 129.654 160.96 130.269 159.707 130.805C158.44 131.342 157.173 131.603 155.906 131.603C153.24 131.603 151.208 130.871 149.809 129.418C148.41 127.966 147.711 126.121 147.711 123.896C147.711 121.253 148.556 118.845 150.245 116.66C151.934 114.474 154.085 113.375 156.685 113.375C158.149 113.375 159.311 113.925 160.129 114.998C160.96 116.084 161.382 117.327 161.382 118.727C161.382 120.755 160.828 122.548 159.72 124.092C158.611 125.636 157.49 126.395 156.355 126.395C155.47 126.395 154.692 126.251 154.019 125.963C153.359 125.676 152.91 125.322 152.686 124.917L152.712 124.943ZM155.629 118.714C154.956 118.714 154.322 119.237 153.715 120.284C153.108 121.331 152.805 122.443 152.805 123.621C153.689 123.373 154.507 122.862 155.259 122.077C156.012 121.292 156.381 120.494 156.381 119.669C156.381 119.041 156.13 118.727 155.629 118.727V118.714Z" fill="black"/>
<path d="M187.315 103.549C187.315 104.347 186.945 105.983 186.206 108.483C185.467 110.969 184.742 113.795 184.003 116.949C183.264 120.116 182.907 122.916 182.907 125.363C182.907 126.083 183.079 126.724 183.448 127.287C183.818 127.849 184.24 128.137 184.742 128.137C185.322 128.137 185.942 127.876 186.589 127.339C187.236 126.803 187.79 126.266 188.252 125.73C188.714 125.193 189.004 124.931 189.149 124.931C189.479 124.931 189.651 125.088 189.651 125.389C189.651 126.214 188.885 127.418 187.368 129.014C185.85 130.611 184.28 131.409 182.67 131.409C181.231 131.409 180.215 130.833 179.608 129.681C179.001 128.53 178.711 126.789 178.711 124.486C177.576 126.515 176.217 128.137 174.633 129.354C173.049 130.571 171.347 131.173 169.513 131.173C167.85 131.173 166.491 130.558 165.435 129.315C164.379 128.072 163.852 126.475 163.852 124.486C163.852 121.241 164.854 118.362 166.86 115.85C168.866 113.337 171.07 112.081 173.445 112.081C175.662 112.081 177.457 113.141 178.803 115.261C178.909 114.607 179.08 113.651 179.278 112.395C179.476 111.139 179.661 110.171 179.793 109.464C179.938 108.757 180.11 107.907 180.334 106.886C180.558 105.865 180.796 105.08 181.047 104.518C181.297 103.955 181.601 103.379 181.957 102.79C182.313 102.201 182.736 101.77 183.198 101.508C183.673 101.246 184.214 101.115 184.821 101.115C185.599 101.115 186.193 101.351 186.629 101.835C187.064 102.319 187.275 102.895 187.275 103.588L187.315 103.549ZM178.117 119.003C177.312 119.723 176.52 120.076 175.742 120.076C175.438 120.076 174.963 119.815 174.33 119.291C173.696 118.768 173.076 118.506 172.495 118.506C171.822 118.506 171.136 119.16 170.41 120.469C169.684 121.778 169.328 122.942 169.328 123.95C169.328 124.827 169.486 125.468 169.803 125.86C170.12 126.253 170.727 126.462 171.611 126.462C172.72 126.462 174.026 125.481 175.544 123.531C177.048 121.581 177.906 120.063 178.104 118.99L178.117 119.003Z" fill="black"/>
<path d="M114.22 160.406C115.052 160.406 115.698 160.838 116.147 161.689C116.609 162.539 116.794 163.521 116.715 164.62C116.411 167.917 115.382 171.15 113.64 174.303C114.22 174.958 114.973 175.298 115.883 175.298C116.332 175.298 116.847 175.18 117.44 174.931C118.034 174.683 118.377 174.565 118.456 174.565C118.588 174.565 118.707 174.604 118.813 174.67C118.905 174.735 118.945 174.827 118.918 174.931C118.892 175.311 118.443 175.743 117.586 176.214C116.728 176.685 115.923 176.92 115.171 176.92C114.141 176.92 113.27 176.646 112.558 176.096C110.42 179.224 108.15 180.794 105.735 180.794C104.429 180.794 103.426 180.48 102.726 179.865C102.014 179.25 101.393 178.334 100.839 177.117C98.7014 180.009 96.5768 181.448 94.4785 181.448C93.1985 181.448 92.1824 180.702 91.417 179.224C90.6516 177.745 90.1897 176.109 90.0049 174.316C89.8202 172.524 89.6486 170.901 89.4903 169.409C89.3319 167.917 89.1076 167.185 88.8305 167.185C88.6325 167.185 88.4478 167.159 88.263 167.119C88.0783 167.08 87.9199 166.988 87.7615 166.871C87.6032 166.753 87.5504 166.57 87.5768 166.36C87.656 165.287 88.1706 164.332 89.1208 163.494C90.0577 162.657 91.153 162.238 92.4067 162.238C94.6237 162.238 95.8246 163.416 96.0225 165.784C96.0489 166.138 96.0885 167.394 96.1413 169.54C96.1941 171.686 96.326 173.413 96.5108 174.709C96.7087 176.018 97.0123 176.672 97.4214 176.672C98.1999 176.672 98.9917 175.795 99.7967 174.029C99.3216 172.406 99.1765 170.705 99.3348 168.912C99.5064 167.185 100.074 165.732 101.037 164.581C102.014 163.429 103.215 162.853 104.653 162.853C105.709 162.853 106.448 163.22 106.896 163.966C107.345 164.711 107.503 165.68 107.398 166.897C107.2 168.768 106.237 170.561 104.481 172.301C104.376 173.427 104.6 174.565 105.168 175.73C105.735 176.881 106.342 177.457 106.976 177.457C108.282 177.457 109.562 176.332 110.842 174.081C109.707 171.909 109.272 169.422 109.549 166.622C109.72 164.895 110.222 163.429 111.066 162.225C111.911 161.034 112.954 160.432 114.207 160.432L114.22 160.406ZM104.983 166.674C104.6 166.674 104.349 167.381 104.231 168.781C104.231 168.977 104.218 169.187 104.191 169.422C104.165 169.658 104.138 169.841 104.125 169.985C104.112 170.129 104.099 170.207 104.099 170.234C104.825 168.86 105.207 167.97 105.26 167.551C105.286 167.381 105.286 167.198 105.234 166.988C105.181 166.779 105.102 166.674 104.97 166.674H104.983ZM112.505 167.734C112.399 168.533 112.36 169.462 112.426 170.535C113.152 168.585 113.561 167.054 113.666 165.955C113.772 164.934 113.745 164.424 113.587 164.424C113.086 164.424 112.729 165.523 112.505 167.721V167.734Z" fill="black"/>
<path d="M135.919 164.069C136.552 164.069 137.04 164.304 137.357 164.775C137.674 165.246 137.832 165.77 137.832 166.346C137.832 167.065 137.489 168.452 136.816 170.507C136.13 172.561 135.8 174.354 135.8 175.872C135.8 177.089 136.301 177.691 137.291 177.691C137.515 177.691 137.74 177.665 137.951 177.612C138.162 177.56 138.399 177.455 138.637 177.325C138.875 177.181 139.073 177.063 139.244 176.958C139.416 176.853 139.614 176.683 139.864 176.461C140.115 176.238 140.287 176.095 140.379 176.003C140.471 175.924 140.643 175.754 140.894 175.493C141.144 175.231 141.276 175.087 141.303 175.061C141.633 174.734 141.91 174.563 142.134 174.563C142.438 174.563 142.596 174.721 142.596 175.022C142.596 175.192 142.438 175.466 142.134 175.846C141.474 176.696 140.894 177.39 140.392 177.913C139.891 178.437 139.152 178.96 138.188 179.497C137.212 180.033 136.222 180.295 135.193 180.295C134.256 180.295 133.411 179.955 132.672 179.261C131.933 178.581 131.577 177.599 131.577 176.33C131.577 175.061 131.696 174.04 131.946 173.15C130.719 175.152 129.32 176.919 127.724 178.45C126.127 179.981 124.49 180.74 122.801 180.74C121.336 180.74 120.122 180.151 119.185 178.986C118.248 177.822 117.773 176.513 117.773 175.087C117.773 171.711 118.842 168.766 120.98 166.28C123.118 163.794 125.441 162.551 127.961 162.551C130.482 162.551 132.237 163.624 133.24 165.77C133.715 164.644 134.599 164.082 135.905 164.082L135.919 164.069ZM131.062 170.664C130.033 169.368 129.017 168.727 127.987 168.727C126.879 168.727 125.836 169.329 124.847 170.546C123.857 171.75 123.369 172.98 123.369 174.21C123.369 174.681 123.527 175.087 123.844 175.427C124.161 175.767 124.622 175.937 125.229 175.937C126.206 175.937 127.235 175.388 128.344 174.289C129.452 173.189 130.35 171.986 131.049 170.664H131.062Z" fill="black"/>
<path d="M149.022 149.924C150.051 149.924 150.751 150.212 151.12 150.774C151.49 151.337 151.688 152.279 151.688 153.601C151.688 154.595 150.922 157.998 149.405 163.808C147.874 169.618 147.122 173.531 147.122 175.533C147.122 176.305 147.214 176.867 147.412 177.247C147.61 177.613 147.979 177.81 148.534 177.81C149.418 177.81 150.289 177.548 151.133 177.024C151.978 176.501 152.664 175.978 153.166 175.441C153.68 174.905 153.984 174.643 154.103 174.643C154.301 174.643 154.393 174.734 154.393 174.931C154.393 175.376 154.063 176.069 153.416 177.038C152.77 178.006 151.82 178.935 150.566 179.864C149.326 180.78 148.059 181.238 146.779 181.238C145.195 181.238 143.928 180.662 142.952 179.511C141.975 178.359 141.5 176.828 141.5 174.931C141.5 167.315 142.16 160.877 143.493 155.59C143.875 154.046 144.628 152.724 145.723 151.612C146.818 150.5 147.913 149.937 149.022 149.937V149.924Z" fill="black"/>
<path d="M161.163 149.924C162.192 149.924 162.891 150.212 163.261 150.774C163.63 151.337 163.828 152.279 163.828 153.601C163.828 154.595 163.063 157.998 161.545 163.808C160.015 169.618 159.262 173.531 159.262 175.533C159.262 176.305 159.355 176.867 159.553 177.247C159.751 177.613 160.12 177.81 160.674 177.81C161.558 177.81 162.429 177.548 163.274 177.024C164.119 176.501 164.805 175.978 165.306 175.441C165.821 174.905 166.124 174.643 166.243 174.643C166.441 174.643 166.534 174.734 166.534 174.931C166.534 175.376 166.204 176.069 165.557 177.038C164.91 178.006 163.96 178.935 162.707 179.864C161.466 180.78 160.199 181.238 158.919 181.238C157.336 181.238 156.069 180.662 155.092 179.511C154.116 178.359 153.641 176.828 153.641 174.931C153.641 167.315 154.3 160.877 155.633 155.59C156.016 154.046 156.768 152.724 157.864 151.612C158.959 150.5 160.054 149.937 161.163 149.937V149.924Z" fill="black"/>
<path d="M170.478 174.421C170.478 175.599 170.874 176.541 171.679 177.222C172.484 177.902 173.619 178.255 175.084 178.255C176.298 178.255 177.512 177.941 178.699 177.326C179.887 176.711 180.85 176.083 181.563 175.468C182.276 174.853 182.698 174.539 182.804 174.539C183.16 174.539 183.345 174.683 183.345 174.958C183.345 175.233 183.094 175.704 182.579 176.358C182.065 177.012 181.405 177.706 180.587 178.412C179.768 179.132 178.726 179.747 177.472 180.284C176.205 180.82 174.938 181.082 173.672 181.082C171.006 181.082 168.974 180.349 167.575 178.897C166.176 177.444 165.477 175.599 165.477 173.374C165.477 170.731 166.321 168.323 168.01 166.138C169.699 163.953 171.85 162.854 174.45 162.854C175.915 162.854 177.076 163.403 177.894 164.476C178.726 165.562 179.148 166.805 179.148 168.206C179.148 170.234 178.594 172.027 177.485 173.571C176.377 175.115 175.255 175.874 174.12 175.874C173.236 175.874 172.457 175.73 171.784 175.442C171.125 175.154 170.676 174.801 170.452 174.395L170.478 174.421ZM173.381 168.193C172.708 168.193 172.075 168.716 171.468 169.763C170.861 170.81 170.557 171.922 170.557 173.1C171.441 172.851 172.26 172.341 173.012 171.556C173.764 170.77 174.133 169.972 174.133 169.148C174.133 168.52 173.883 168.206 173.381 168.206V168.193Z" fill="black"/>
<path d="M195.011 155.002C196.449 155.002 197.175 155.643 197.175 156.939C197.175 157.318 196.528 158.915 195.222 161.728C196.383 161.65 197.32 161.597 198.006 161.597C199.115 161.597 199.669 161.872 199.669 162.422C199.669 162.618 199.458 162.788 199.049 162.958C198.64 163.128 198.072 163.298 197.386 163.495C196.7 163.691 196.225 163.822 195.974 163.913C195.275 164.188 194.549 164.528 193.77 164.947L193.44 165.732C192.107 169.331 191.448 172.393 191.448 174.932C191.448 175.9 191.698 176.633 192.213 177.156C192.728 177.68 193.387 177.941 194.192 177.941C195.354 177.941 196.66 177.326 198.099 176.083C198.323 175.887 198.6 175.625 198.956 175.285C199.299 174.945 199.577 174.696 199.761 174.539C199.959 174.382 200.131 174.317 200.302 174.317C200.685 174.317 200.883 174.434 200.883 174.683C200.883 174.932 200.725 175.272 200.421 175.717C197.874 179.211 195.275 180.951 192.648 180.951C190.458 180.951 188.742 180.388 187.515 179.276C186.288 178.164 185.668 176.436 185.668 174.107C185.668 172.681 185.839 171.189 186.169 169.658C184.955 170.509 183.886 170.94 182.975 170.94C182.395 170.94 181.933 170.744 181.603 170.365C181.273 169.985 181.102 169.514 181.102 168.964C181.102 167.643 181.537 166.609 182.408 165.876C183.279 165.13 184.519 164.437 186.129 163.769C186.512 163.599 187.132 163.39 187.964 163.115L188.505 161.506C189.191 159.333 190.049 157.711 191.065 156.638C192.081 155.565 193.401 155.028 195.037 155.028L195.011 155.002Z" fill="black"/>
<defs>
<clipPath id="clip0_727_3027">
<rect width="124.429" height="201" fill="white"/>
</clipPath>
</defs>
</svg>
