<svg width="232" height="494" viewBox="0 0 232 494" fill="none" xmlns="http://www.w3.org/2000/svg">
<g clip-path="url(#clip0_751_2140)">
<rect x="4" y="4" width="224.32" height="486.311" rx="9.13261" fill="#FEFEFE"/>
<rect x="13.9889" y="106.457" width="204.342" height="288.248" rx="5.42249" fill="white"/>
<rect x="13.9889" y="106.457" width="204.342" height="288.248" rx="5.42249" stroke="#BDBDBD" stroke-width="0.570788"/>
<path d="M130.387 123.459C131.768 169.425 157.598 193.707 200.698 202.676C150.608 202.184 117.652 220.928 101.915 259.06C102.12 210.496 77.3818 185.326 31.605 179.843C78.2513 179.488 114.123 164.64 130.387 123.459Z" fill="#888888" fill-opacity="0.07"/>
<path d="M153.951 143.064C154.131 149.156 157.5 152.374 163.122 153.563C156.588 153.497 152.29 155.982 150.237 161.035C150.264 154.599 147.037 151.263 141.066 150.537C147.15 150.49 151.829 148.522 153.951 143.064Z" fill="#888888" fill-opacity="0.07"/>
<path d="M173.022 150.416C173.309 160.385 178.675 165.651 187.628 167.596C177.223 167.489 170.377 171.554 167.108 179.824C167.151 169.292 162.012 163.833 152.502 162.644C162.192 162.567 169.644 159.347 173.022 150.416Z" fill="#888888" fill-opacity="0.07"/>
<path d="M83.9832 224.752C84.27 234.72 89.6356 239.986 98.5887 241.931C88.1835 241.824 81.3376 245.89 78.0687 254.159C78.1112 243.627 72.9723 238.168 63.4631 236.979C73.153 236.902 80.6045 233.682 83.9832 224.752Z" fill="#888888" fill-opacity="0.07"/>
<path d="M78.1624 297.106C77.858 297.106 77.6205 297.021 77.4501 296.85C77.2918 296.68 77.2126 296.442 77.2126 296.138V285.69H73.3404C73.0847 285.69 72.8838 285.623 72.7376 285.489C72.5915 285.343 72.5185 285.142 72.5185 284.887C72.5185 284.631 72.5915 284.436 72.7376 284.302C72.8838 284.168 73.0847 284.101 73.3404 284.101H82.9662C83.2341 284.101 83.4411 284.168 83.5872 284.302C83.7333 284.436 83.8064 284.631 83.8064 284.887C83.8064 285.142 83.7333 285.343 83.5872 285.489C83.4411 285.623 83.2341 285.69 82.9662 285.69H79.0939V296.138C79.0939 296.442 79.0148 296.68 78.8565 296.85C78.7104 297.021 78.479 297.106 78.1624 297.106ZM86.4946 297.143C85.8736 297.143 85.3135 297.021 84.8142 296.777C84.3272 296.534 83.9436 296.205 83.6635 295.791C83.3835 295.377 83.2434 294.908 83.2434 294.385C83.2434 293.727 83.4078 293.21 83.7366 292.832C84.0775 292.442 84.6316 292.168 85.3987 292.01C86.178 291.84 87.2252 291.754 88.5403 291.754H89.3988V292.887H88.5586C87.6819 292.887 86.9878 292.929 86.4764 293.015C85.9649 293.1 85.5996 293.246 85.3805 293.453C85.1735 293.648 85.0699 293.922 85.0699 294.275C85.0699 294.738 85.2282 295.115 85.5448 295.407C85.8614 295.688 86.2998 295.828 86.8599 295.828C87.3105 295.828 87.7062 295.724 88.0472 295.517C88.3881 295.298 88.656 295.006 88.8508 294.64C89.0579 294.275 89.1614 293.855 89.1614 293.38V291.28C89.1614 290.585 89.0152 290.086 88.723 289.782C88.4307 289.477 87.9498 289.325 87.28 289.325C86.8904 289.325 86.4825 289.374 86.0563 289.471C85.6423 289.569 85.21 289.733 84.7594 289.964C84.5524 290.062 84.3759 290.092 84.2297 290.056C84.0836 290.019 83.9679 289.94 83.8827 289.818C83.7975 289.684 83.7488 289.544 83.7366 289.398C83.7366 289.24 83.7731 289.088 83.8462 288.942C83.9314 288.795 84.0715 288.686 84.2663 288.613C84.8021 288.357 85.3317 288.174 85.8554 288.065C86.379 287.955 86.8721 287.9 87.3348 287.9C88.1507 287.9 88.8204 288.028 89.344 288.284C89.8798 288.54 90.2755 288.929 90.5312 289.453C90.787 289.977 90.9148 290.652 90.9148 291.48V296.175C90.9148 296.467 90.8418 296.698 90.6956 296.869C90.5495 297.027 90.3364 297.106 90.0564 297.106C89.7885 297.106 89.5754 297.027 89.4171 296.869C89.2588 296.698 89.1796 296.467 89.1796 296.175V294.987H89.344C89.2466 295.438 89.0639 295.828 88.7961 296.156C88.5403 296.473 88.2177 296.716 87.828 296.887C87.4383 297.057 86.9939 297.143 86.4946 297.143ZM96.5973 297.143C96.0615 297.143 95.5075 297.082 94.9352 296.96C94.375 296.838 93.8575 296.631 93.3826 296.339C93.2243 296.229 93.1147 296.108 93.0538 295.974C92.993 295.84 92.9686 295.706 92.9808 295.572C93.0051 295.426 93.0599 295.304 93.1452 295.207C93.2426 295.097 93.3583 295.03 93.4922 295.006C93.6383 294.981 93.7905 295.012 93.9488 295.097C94.4237 295.365 94.8804 295.554 95.3187 295.663C95.7571 295.761 96.1894 295.809 96.6156 295.809C97.2609 295.809 97.748 295.694 98.0768 295.462C98.4056 295.231 98.5699 294.92 98.5699 294.531C98.5699 294.214 98.4603 293.971 98.2412 293.8C98.022 293.617 97.6932 293.477 97.2548 293.38L95.5196 293.033C94.7647 292.875 94.1924 292.595 93.8027 292.193C93.4131 291.791 93.2182 291.28 93.2182 290.659C93.2182 290.098 93.3704 289.611 93.6749 289.197C93.9793 288.783 94.4055 288.467 94.9534 288.247C95.5014 288.016 96.1346 287.9 96.853 287.9C97.3888 287.9 97.8941 287.967 98.369 288.101C98.8439 288.235 99.2823 288.436 99.6841 288.704C99.8424 288.789 99.9459 288.905 99.9946 289.051C100.043 289.185 100.049 289.319 100.013 289.453C99.9885 289.587 99.9277 289.709 99.8302 289.818C99.7328 289.916 99.6111 289.977 99.4649 290.001C99.331 290.013 99.1788 289.977 99.0083 289.891C98.643 289.66 98.2777 289.496 97.9124 289.398C97.5593 289.301 97.2061 289.252 96.853 289.252C96.2076 289.252 95.7206 289.374 95.3918 289.617C95.0752 289.849 94.9169 290.165 94.9169 290.567C94.9169 290.872 95.0143 291.121 95.2091 291.316C95.404 291.511 95.7084 291.651 96.1224 291.736L97.8576 292.083C98.6491 292.241 99.2458 292.509 99.6476 292.887C100.062 293.264 100.269 293.776 100.269 294.421C100.269 295.261 99.9337 295.925 99.264 296.412C98.5943 296.899 97.7054 297.143 96.5973 297.143ZM103.253 297.106C102.96 297.106 102.735 297.027 102.577 296.869C102.419 296.698 102.339 296.467 102.339 296.175V284.905C102.339 284.601 102.419 284.369 102.577 284.211C102.735 284.053 102.96 283.973 103.253 283.973C103.545 283.973 103.77 284.053 103.928 284.211C104.099 284.369 104.184 284.601 104.184 284.905V291.955H104.221L107.636 288.558C107.831 288.363 108.008 288.211 108.166 288.101C108.324 287.992 108.531 287.937 108.787 287.937C109.043 287.937 109.238 288.004 109.372 288.138C109.505 288.272 109.572 288.436 109.572 288.631C109.572 288.814 109.481 289.002 109.298 289.197L105.682 292.777V291.919L109.627 295.846C109.822 296.041 109.913 296.235 109.901 296.43C109.889 296.625 109.81 296.79 109.664 296.923C109.518 297.045 109.335 297.106 109.116 297.106C108.836 297.106 108.61 297.051 108.44 296.942C108.282 296.832 108.093 296.668 107.874 296.449L104.221 292.905H104.184V296.175C104.184 296.796 103.874 297.106 103.253 297.106ZM117.834 296.978C117.505 296.978 117.249 296.893 117.067 296.723C116.896 296.54 116.811 296.284 116.811 295.955V285.124C116.811 284.795 116.896 284.546 117.067 284.375C117.249 284.193 117.505 284.101 117.834 284.101H121.359C123.478 284.101 125.109 284.655 126.254 285.763C127.411 286.859 127.989 288.448 127.989 290.531C127.989 291.566 127.843 292.485 127.551 293.289C127.259 294.092 126.826 294.768 126.254 295.316C125.694 295.852 125.006 296.266 124.19 296.558C123.374 296.838 122.43 296.978 121.359 296.978H117.834ZM118.71 295.389H121.249C122.053 295.389 122.747 295.292 123.332 295.097C123.928 294.89 124.427 294.586 124.829 294.184C125.231 293.782 125.529 293.277 125.724 292.668C125.919 292.059 126.017 291.346 126.017 290.531C126.017 288.911 125.615 287.7 124.811 286.896C124.02 286.092 122.832 285.69 121.249 285.69H118.71V295.389ZM134.217 297.143C133.316 297.143 132.537 296.954 131.879 296.576C131.234 296.199 130.729 295.663 130.363 294.969C129.998 294.275 129.815 293.459 129.815 292.522C129.815 291.803 129.919 291.164 130.126 290.604C130.333 290.044 130.625 289.563 131.003 289.161C131.392 288.747 131.855 288.436 132.391 288.229C132.939 288.01 133.547 287.9 134.217 287.9C135.106 287.9 135.873 288.089 136.519 288.467C137.176 288.844 137.688 289.38 138.053 290.074C138.418 290.756 138.601 291.572 138.601 292.522C138.601 293.228 138.497 293.867 138.29 294.439C138.083 295.012 137.785 295.499 137.395 295.901C137.018 296.302 136.555 296.613 136.007 296.832C135.471 297.039 134.875 297.143 134.217 297.143ZM134.217 295.718C134.716 295.718 135.155 295.596 135.532 295.353C135.91 295.109 136.202 294.75 136.409 294.275C136.628 293.8 136.738 293.216 136.738 292.522C136.738 291.474 136.506 290.683 136.044 290.147C135.581 289.611 134.972 289.343 134.217 289.343C133.706 289.343 133.261 289.465 132.884 289.709C132.506 289.94 132.208 290.293 131.989 290.768C131.782 291.243 131.678 291.827 131.678 292.522C131.678 293.557 131.91 294.348 132.372 294.896C132.835 295.444 133.45 295.718 134.217 295.718ZM141.604 297.106C141.312 297.106 141.087 297.027 140.928 296.869C140.77 296.698 140.691 296.467 140.691 296.175V288.869C140.691 288.564 140.77 288.333 140.928 288.174C141.087 288.016 141.306 287.937 141.586 287.937C141.878 287.937 142.097 288.016 142.243 288.174C142.402 288.333 142.481 288.564 142.481 288.869V290.293L142.28 289.964C142.548 289.283 142.968 288.771 143.54 288.43C144.113 288.077 144.77 287.9 145.513 287.9C146.219 287.9 146.804 288.034 147.266 288.302C147.741 288.558 148.094 288.954 148.326 289.49C148.557 290.013 148.673 290.677 148.673 291.48V296.175C148.673 296.467 148.594 296.698 148.435 296.869C148.277 297.027 148.052 297.106 147.76 297.106C147.455 297.106 147.224 297.027 147.066 296.869C146.907 296.698 146.828 296.467 146.828 296.175V291.59C146.828 290.823 146.676 290.263 146.371 289.91C146.079 289.557 145.616 289.38 144.983 289.38C144.24 289.38 143.644 289.611 143.193 290.074C142.755 290.537 142.536 291.158 142.536 291.937V296.175C142.536 296.796 142.225 297.106 141.604 297.106ZM155.416 297.143C154.442 297.143 153.601 296.96 152.895 296.595C152.201 296.217 151.659 295.688 151.27 295.006C150.892 294.312 150.703 293.49 150.703 292.54C150.703 291.614 150.892 290.805 151.27 290.111C151.647 289.416 152.165 288.875 152.822 288.485C153.48 288.095 154.229 287.9 155.069 287.9C155.69 287.9 156.244 288.004 156.731 288.211C157.218 288.406 157.632 288.698 157.973 289.088C158.326 289.465 158.588 289.928 158.758 290.476C158.941 291.024 159.032 291.639 159.032 292.321C159.032 292.528 158.971 292.686 158.85 292.796C158.728 292.893 158.545 292.942 158.302 292.942H152.165V291.809H157.79L157.48 292.065C157.48 291.456 157.388 290.939 157.206 290.512C157.035 290.086 156.774 289.764 156.42 289.544C156.079 289.313 155.653 289.197 155.142 289.197C154.57 289.197 154.082 289.331 153.681 289.599C153.291 289.867 152.993 290.238 152.786 290.713C152.579 291.188 152.475 291.742 152.475 292.375V292.485C152.475 293.557 152.725 294.366 153.224 294.914C153.735 295.45 154.472 295.718 155.434 295.718C155.799 295.718 156.183 295.669 156.585 295.572C156.999 295.474 157.388 295.31 157.754 295.079C157.961 294.957 158.143 294.902 158.302 294.914C158.472 294.926 158.606 294.981 158.704 295.079C158.813 295.176 158.88 295.298 158.904 295.444C158.929 295.59 158.904 295.742 158.831 295.901C158.758 296.047 158.631 296.181 158.448 296.302C158.034 296.583 157.553 296.796 157.005 296.942C156.457 297.076 155.927 297.143 155.416 297.143Z" fill="#1D1D1B"/>
<path d="M49.804 324.049C49.6518 324.049 49.5339 324.008 49.4501 323.924C49.374 323.832 49.336 323.707 49.336 323.547V319.803L49.5415 320.453L46.6761 316.504C46.6076 316.405 46.5734 316.306 46.5734 316.207C46.581 316.1 46.6228 316.013 46.6989 315.944C46.7751 315.876 46.874 315.841 46.9958 315.841C47.1023 315.841 47.1974 315.868 47.2812 315.921C47.3649 315.967 47.441 316.043 47.5095 316.15L49.941 319.506H49.7013L52.1328 316.15C52.2166 316.036 52.2965 315.956 52.3726 315.91C52.4487 315.864 52.54 315.841 52.6466 315.841C52.7683 315.841 52.8635 315.876 52.932 315.944C53.0004 316.005 53.0347 316.089 53.0347 316.195C53.0423 316.294 53.0081 316.401 52.932 316.515L50.078 320.453L50.2721 319.803V323.547C50.2721 323.882 50.1161 324.049 49.804 324.049ZM55.4845 324.072C54.9442 324.072 54.4761 323.954 54.0804 323.718C53.6846 323.482 53.3764 323.151 53.1557 322.725C52.9426 322.291 52.8361 321.781 52.8361 321.195C52.8361 320.754 52.897 320.358 53.0187 320.008C53.1405 319.651 53.3193 319.346 53.5553 319.095C53.7912 318.844 54.069 318.654 54.3886 318.524C54.7159 318.387 55.0812 318.319 55.4845 318.319C56.0249 318.319 56.4929 318.437 56.8887 318.673C57.2844 318.908 57.5888 319.243 57.8019 319.677C58.0226 320.103 58.133 320.609 58.133 321.195C58.133 321.637 58.0721 322.033 57.9503 322.383C57.8286 322.733 57.6497 323.037 57.4138 323.296C57.1779 323.547 56.8963 323.741 56.569 323.878C56.2494 324.008 55.8879 324.072 55.4845 324.072ZM55.4845 323.33C55.827 323.33 56.1276 323.246 56.3864 323.079C56.6451 322.912 56.843 322.668 56.98 322.348C57.1246 322.029 57.1969 321.644 57.1969 321.195C57.1969 320.503 57.0409 319.974 56.7289 319.609C56.4244 319.243 56.0097 319.061 55.4845 319.061C55.1344 319.061 54.83 319.144 54.5713 319.312C54.3201 319.472 54.1223 319.711 53.9777 320.031C53.8407 320.343 53.7722 320.731 53.7722 321.195C53.7722 321.88 53.9282 322.409 54.2402 322.782C54.5522 323.148 54.967 323.33 55.4845 323.33ZM61.4968 324.072C61.0478 324.072 60.6749 323.992 60.3781 323.832C60.0889 323.665 59.8682 323.418 59.7159 323.09C59.5713 322.763 59.499 322.356 59.499 321.869V318.81C59.499 318.65 59.5371 318.532 59.6132 318.456C59.6969 318.38 59.8111 318.342 59.9557 318.342C60.1079 318.342 60.222 318.38 60.2981 318.456C60.3819 318.532 60.4237 318.65 60.4237 318.81V321.858C60.4237 322.345 60.5227 322.71 60.7205 322.953C60.926 323.189 61.2457 323.307 61.6795 323.307C62.1513 323.307 62.5356 323.148 62.8324 322.828C63.1293 322.508 63.2777 322.09 63.2777 321.572V318.81C63.2777 318.65 63.3157 318.532 63.3918 318.456C63.4755 318.38 63.5935 318.342 63.7457 318.342C63.8903 318.342 64.0007 318.38 64.0768 318.456C64.1605 318.532 64.2023 318.65 64.2023 318.81V323.57C64.2023 323.89 64.0539 324.049 63.7571 324.049C63.6125 324.049 63.4984 324.008 63.4147 323.924C63.3385 323.84 63.3005 323.722 63.3005 323.57V322.531L63.4489 322.691C63.2967 323.14 63.0455 323.482 62.6955 323.718C62.353 323.954 61.9534 324.072 61.4968 324.072ZM71.0102 324.072C70.5156 324.072 70.0818 323.954 69.7088 323.718C69.3435 323.482 69.0581 323.151 68.8527 322.725C68.6548 322.291 68.5558 321.781 68.5558 321.195C68.5558 320.602 68.6548 320.092 68.8527 319.666C69.0581 319.232 69.3435 318.901 69.7088 318.673C70.0818 318.437 70.5156 318.319 71.0102 318.319C71.5125 318.319 71.9425 318.444 72.3002 318.695C72.6579 318.947 72.8976 319.285 73.0194 319.711H72.8938V316.31C72.8938 316.157 72.9319 316.043 73.008 315.967C73.0917 315.883 73.2097 315.841 73.3619 315.841C73.5065 315.841 73.6168 315.883 73.6929 315.967C73.7767 316.043 73.8185 316.157 73.8185 316.31V323.57C73.8185 323.722 73.7805 323.84 73.7044 323.924C73.6282 324.008 73.5141 324.049 73.3619 324.049C73.2173 324.049 73.1031 324.008 73.0194 323.924C72.9433 323.84 72.9052 323.722 72.9052 323.57V322.485L73.0308 322.645C72.9091 323.079 72.6655 323.425 72.3002 323.684C71.9425 323.943 71.5125 324.072 71.0102 324.072ZM71.2043 323.33C71.5468 323.33 71.8474 323.246 72.1061 323.079C72.3649 322.912 72.5628 322.668 72.6998 322.348C72.8444 322.029 72.9167 321.644 72.9167 321.195C72.9167 320.503 72.7606 319.974 72.4486 319.609C72.1442 319.243 71.7294 319.061 71.2043 319.061C70.8542 319.061 70.5498 319.144 70.291 319.312C70.0399 319.472 69.842 319.711 69.6974 320.031C69.5604 320.343 69.4919 320.731 69.4919 321.195C69.4919 321.88 69.648 322.409 69.96 322.782C70.272 323.148 70.6868 323.33 71.2043 323.33ZM76.0218 324.027C75.8696 324.027 75.7555 323.985 75.6794 323.901C75.6033 323.81 75.5652 323.684 75.5652 323.524V318.855C75.5652 318.695 75.6033 318.574 75.6794 318.49C75.7555 318.406 75.8696 318.364 76.0218 318.364C76.1664 318.364 76.2806 318.406 76.3643 318.49C76.448 318.574 76.4899 318.695 76.4899 318.855V323.524C76.4899 323.684 76.448 323.81 76.3643 323.901C76.2882 323.985 76.1741 324.027 76.0218 324.027ZM76.0218 317.086C75.8316 317.086 75.6832 317.036 75.5766 316.937C75.4701 316.831 75.4168 316.69 75.4168 316.515C75.4168 316.332 75.4701 316.195 75.5766 316.104C75.6832 316.005 75.8316 315.956 76.0218 315.956C76.2197 315.956 76.3681 316.005 76.4671 316.104C76.5736 316.195 76.6269 316.332 76.6269 316.515C76.6269 316.69 76.5736 316.831 76.4671 316.937C76.3681 317.036 76.2197 317.086 76.0218 317.086ZM80.3418 324.072C79.8471 324.072 79.4133 323.954 79.0404 323.718C78.6751 323.482 78.3897 323.151 78.1842 322.725C77.9864 322.291 77.8874 321.781 77.8874 321.195C77.8874 320.602 77.9864 320.092 78.1842 319.666C78.3897 319.232 78.6751 318.901 79.0404 318.673C79.4133 318.437 79.8471 318.319 80.3418 318.319C80.8441 318.319 81.2741 318.444 81.6318 318.695C81.9895 318.947 82.2292 319.285 82.351 319.711H82.2254V316.31C82.2254 316.157 82.2635 316.043 82.3396 315.967C82.4233 315.883 82.5413 315.841 82.6935 315.841C82.8381 315.841 82.9484 315.883 83.0245 315.967C83.1082 316.043 83.1501 316.157 83.1501 316.31V323.57C83.1501 323.722 83.112 323.84 83.0359 323.924C82.9598 324.008 82.8457 324.049 82.6935 324.049C82.5489 324.049 82.4347 324.008 82.351 323.924C82.2749 323.84 82.2368 323.722 82.2368 323.57V322.485L82.3624 322.645C82.2406 323.079 81.9971 323.425 81.6318 323.684C81.2741 323.943 80.8441 324.072 80.3418 324.072ZM80.5359 323.33C80.8784 323.33 81.179 323.246 81.4377 323.079C81.6965 322.912 81.8944 322.668 82.0313 322.348C82.1759 322.029 82.2482 321.644 82.2482 321.195C82.2482 320.503 82.0922 319.974 81.7802 319.609C81.4758 319.243 81.061 319.061 80.5359 319.061C80.1858 319.061 79.8814 319.144 79.6226 319.312C79.3715 319.472 79.1736 319.711 79.029 320.031C78.892 320.343 78.8235 320.731 78.8235 321.195C78.8235 321.88 78.9795 322.409 79.2916 322.782C79.6036 323.148 80.0184 323.33 80.5359 323.33ZM88.2965 324.015C88.1063 324.015 87.9541 323.958 87.8399 323.844C87.7258 323.722 87.6687 323.57 87.6687 323.387C87.6687 323.205 87.7258 323.056 87.8399 322.942C87.9541 322.82 88.1063 322.759 88.2965 322.759C88.4868 322.759 88.6352 322.82 88.7418 322.942C88.8559 323.056 88.913 323.205 88.913 323.387C88.913 323.57 88.8559 323.722 88.7418 323.844C88.6352 323.958 88.4868 324.015 88.2965 324.015ZM90.9055 324.015C90.7152 324.015 90.563 323.958 90.4489 323.844C90.3347 323.722 90.2776 323.57 90.2776 323.387C90.2776 323.205 90.3347 323.056 90.4489 322.942C90.563 322.82 90.7152 322.759 90.9055 322.759C91.0958 322.759 91.2442 322.82 91.3507 322.942C91.4649 323.056 91.5219 323.205 91.5219 323.387C91.5219 323.57 91.4649 323.722 91.3507 323.844C91.2442 323.958 91.0958 324.015 90.9055 324.015ZM99.8252 324.072C98.9652 324.072 98.2384 323.909 97.6448 323.581C97.0588 323.254 96.6136 322.782 96.3092 322.166C96.0047 321.549 95.8525 320.811 95.8525 319.951C95.8525 319.312 95.9363 318.737 96.1037 318.227C96.2787 317.717 96.5299 317.287 96.8571 316.937C97.192 316.58 97.5953 316.306 98.0672 316.115C98.5467 315.918 99.087 315.819 99.6882 315.819C100.168 315.819 100.632 315.887 101.081 316.024C101.53 316.153 101.93 316.363 102.28 316.652C102.371 316.72 102.428 316.797 102.451 316.88C102.474 316.964 102.47 317.048 102.439 317.131C102.417 317.215 102.375 317.287 102.314 317.348C102.261 317.402 102.188 317.432 102.097 317.44C102.013 317.447 101.926 317.421 101.834 317.36C101.522 317.116 101.191 316.941 100.841 316.835C100.491 316.72 100.103 316.663 99.6768 316.663C99.068 316.663 98.5505 316.793 98.1243 317.052C97.7057 317.31 97.3861 317.683 97.1653 318.17C96.9523 318.657 96.8457 319.251 96.8457 319.951C96.8457 321.017 97.093 321.831 97.5877 322.394C98.09 322.957 98.8435 323.239 99.8481 323.239C100.213 323.239 100.571 323.205 100.921 323.136C101.271 323.06 101.602 322.957 101.914 322.828L101.709 323.364V320.522H100.076C99.9394 320.522 99.8366 320.488 99.7681 320.419C99.6996 320.351 99.6654 320.259 99.6654 320.145C99.6654 320.023 99.6996 319.932 99.7681 319.871C99.8366 319.81 99.9394 319.78 100.076 319.78H102.12C102.249 319.78 102.348 319.814 102.417 319.883C102.485 319.951 102.519 320.05 102.519 320.179V323.159C102.519 323.273 102.5 323.368 102.462 323.444C102.424 323.52 102.36 323.578 102.268 323.616C101.949 323.745 101.564 323.855 101.115 323.947C100.674 324.03 100.244 324.072 99.8252 324.072ZM104.786 324.049C104.634 324.049 104.516 324.008 104.432 323.924C104.356 323.84 104.318 323.722 104.318 323.57V318.81C104.318 318.657 104.356 318.543 104.432 318.467C104.509 318.383 104.619 318.342 104.764 318.342C104.908 318.342 105.018 318.383 105.095 318.467C105.178 318.543 105.22 318.657 105.22 318.81V319.734H105.106C105.228 319.285 105.46 318.939 105.802 318.695C106.145 318.452 106.567 318.322 107.069 318.307C107.184 318.3 107.275 318.326 107.343 318.387C107.412 318.44 107.45 318.536 107.458 318.673C107.465 318.802 107.435 318.905 107.366 318.981C107.298 319.057 107.191 319.103 107.047 319.118L106.864 319.141C106.346 319.186 105.947 319.354 105.665 319.643C105.391 319.924 105.254 320.313 105.254 320.807V323.57C105.254 323.722 105.213 323.84 105.129 323.924C105.053 324.008 104.939 324.049 104.786 324.049ZM110.854 324.072C110.268 324.072 109.762 323.958 109.336 323.73C108.917 323.494 108.59 323.163 108.354 322.737C108.126 322.31 108.012 321.8 108.012 321.207C108.012 320.628 108.126 320.126 108.354 319.7C108.583 319.266 108.895 318.928 109.29 318.684C109.694 318.44 110.158 318.319 110.683 318.319C111.056 318.319 111.391 318.383 111.688 318.513C111.984 318.635 112.236 318.813 112.441 319.049C112.654 319.285 112.814 319.571 112.921 319.905C113.035 320.24 113.092 320.617 113.092 321.036C113.092 321.157 113.058 321.249 112.989 321.31C112.921 321.363 112.822 321.39 112.692 321.39H108.72V320.784H112.475L112.293 320.933C112.293 320.522 112.232 320.176 112.11 319.894C111.988 319.605 111.809 319.384 111.573 319.232C111.345 319.08 111.056 319.004 110.706 319.004C110.318 319.004 109.987 319.095 109.713 319.278C109.446 319.453 109.245 319.7 109.108 320.02C108.971 320.332 108.902 320.697 108.902 321.116V321.184C108.902 321.884 109.07 322.417 109.404 322.782C109.747 323.148 110.23 323.33 110.854 323.33C111.113 323.33 111.368 323.296 111.619 323.227C111.878 323.159 112.129 323.045 112.373 322.885C112.479 322.816 112.574 322.786 112.658 322.794C112.749 322.794 112.822 322.82 112.875 322.874C112.928 322.919 112.962 322.98 112.978 323.056C113 323.125 112.993 323.201 112.955 323.285C112.924 323.368 112.86 323.441 112.761 323.501C112.51 323.684 112.213 323.825 111.87 323.924C111.528 324.023 111.189 324.072 110.854 324.072ZM116.188 324.072C115.807 324.072 115.465 324 115.161 323.855C114.864 323.703 114.628 323.498 114.453 323.239C114.278 322.98 114.19 322.691 114.19 322.371C114.19 321.96 114.293 321.637 114.498 321.401C114.712 321.165 115.058 320.998 115.537 320.899C116.024 320.8 116.686 320.75 117.524 320.75H118.037V321.355H117.535C116.919 321.355 116.432 321.386 116.074 321.447C115.724 321.5 115.476 321.595 115.332 321.732C115.195 321.869 115.126 322.063 115.126 322.314C115.126 322.626 115.233 322.881 115.446 323.079C115.667 323.277 115.963 323.376 116.336 323.376C116.641 323.376 116.907 323.304 117.136 323.159C117.371 323.014 117.554 322.816 117.683 322.565C117.82 322.314 117.889 322.025 117.889 321.698V320.396C117.889 319.924 117.794 319.586 117.604 319.38C117.413 319.167 117.101 319.061 116.667 319.061C116.401 319.061 116.135 319.095 115.868 319.163C115.602 319.232 115.32 319.342 115.024 319.495C114.917 319.548 114.826 319.567 114.75 319.552C114.674 319.529 114.613 319.487 114.567 319.426C114.521 319.365 114.495 319.297 114.487 319.221C114.479 319.137 114.495 319.057 114.533 318.981C114.578 318.905 114.647 318.844 114.738 318.798C115.073 318.631 115.404 318.509 115.731 318.433C116.059 318.357 116.371 318.319 116.667 318.319C117.147 318.319 117.543 318.399 117.855 318.558C118.167 318.711 118.399 318.947 118.551 319.266C118.703 319.578 118.779 319.982 118.779 320.476V323.57C118.779 323.722 118.741 323.84 118.665 323.924C118.597 324.008 118.494 324.049 118.357 324.049C118.212 324.049 118.102 324.008 118.026 323.924C117.95 323.84 117.912 323.722 117.912 323.57V322.68H118.015C117.954 322.969 117.836 323.216 117.661 323.422C117.493 323.627 117.284 323.787 117.033 323.901C116.782 324.015 116.5 324.072 116.188 324.072ZM122.732 324.072C122.299 324.072 121.933 323.996 121.636 323.844C121.347 323.684 121.13 323.456 120.986 323.159C120.841 322.855 120.769 322.485 120.769 322.052V319.141H120.004C119.875 319.141 119.776 319.11 119.707 319.049C119.639 318.981 119.604 318.889 119.604 318.775C119.604 318.661 119.639 318.574 119.707 318.513C119.776 318.452 119.875 318.421 120.004 318.421H120.769V317.109C120.769 316.956 120.811 316.842 120.894 316.766C120.978 316.682 121.092 316.641 121.237 316.641C121.382 316.641 121.492 316.682 121.568 316.766C121.652 316.842 121.694 316.956 121.694 317.109V318.421H123.132C123.261 318.421 123.36 318.452 123.429 318.513C123.497 318.574 123.531 318.661 123.531 318.775C123.531 318.889 123.497 318.981 123.429 319.049C123.36 319.11 123.261 319.141 123.132 319.141H121.694V321.96C121.694 322.394 121.785 322.725 121.968 322.953C122.15 323.174 122.447 323.285 122.858 323.285C123.003 323.285 123.124 323.269 123.223 323.239C123.33 323.208 123.417 323.193 123.486 323.193C123.554 323.186 123.611 323.208 123.657 323.262C123.703 323.315 123.726 323.406 123.726 323.536C123.726 323.627 123.707 323.711 123.668 323.787C123.638 323.863 123.581 323.916 123.497 323.947C123.406 323.977 123.284 324.004 123.132 324.027C122.987 324.057 122.854 324.072 122.732 324.072ZM128.057 324.049C127.905 324.049 127.787 324.008 127.703 323.924C127.627 323.832 127.589 323.711 127.589 323.559V316.321C127.589 316.161 127.627 316.043 127.703 315.967C127.787 315.883 127.905 315.841 128.057 315.841C128.209 315.841 128.323 315.883 128.399 315.967C128.483 316.043 128.525 316.161 128.525 316.321V319.574H128.548L132.269 316.104C132.361 316.013 132.452 315.948 132.543 315.91C132.635 315.864 132.734 315.841 132.84 315.841C132.985 315.841 133.087 315.876 133.148 315.944C133.217 316.013 133.243 316.096 133.228 316.195C133.213 316.294 133.16 316.389 133.068 316.481L129.176 320.088L129.187 319.586L133.251 323.342C133.365 323.448 133.426 323.559 133.434 323.673C133.441 323.779 133.407 323.871 133.331 323.947C133.263 324.015 133.156 324.049 133.011 324.049C132.897 324.049 132.798 324.023 132.715 323.969C132.638 323.924 132.551 323.852 132.452 323.753L128.548 320.179H128.525V323.559C128.525 323.711 128.487 323.832 128.411 323.924C128.335 324.008 128.217 324.049 128.057 324.049ZM136.987 324.072C136.401 324.072 135.895 323.958 135.469 323.73C135.05 323.494 134.723 323.163 134.487 322.737C134.259 322.31 134.144 321.8 134.144 321.207C134.144 320.628 134.259 320.126 134.487 319.7C134.715 319.266 135.027 318.928 135.423 318.684C135.826 318.44 136.291 318.319 136.816 318.319C137.189 318.319 137.524 318.383 137.82 318.513C138.117 318.635 138.368 318.813 138.574 319.049C138.787 319.285 138.947 319.571 139.053 319.905C139.167 320.24 139.224 320.617 139.224 321.036C139.224 321.157 139.19 321.249 139.122 321.31C139.053 321.363 138.954 321.39 138.825 321.39H134.852V320.784H138.608L138.425 320.933C138.425 320.522 138.364 320.176 138.243 319.894C138.121 319.605 137.942 319.384 137.706 319.232C137.478 319.08 137.189 319.004 136.839 319.004C136.45 319.004 136.119 319.095 135.845 319.278C135.579 319.453 135.377 319.7 135.24 320.02C135.103 320.332 135.035 320.697 135.035 321.116V321.184C135.035 321.884 135.202 322.417 135.537 322.782C135.88 323.148 136.363 323.33 136.987 323.33C137.246 323.33 137.501 323.296 137.752 323.227C138.011 323.159 138.262 323.045 138.505 322.885C138.612 322.816 138.707 322.786 138.791 322.794C138.882 322.794 138.954 322.82 139.008 322.874C139.061 322.919 139.095 322.98 139.11 323.056C139.133 323.125 139.126 323.201 139.087 323.285C139.057 323.368 138.992 323.441 138.893 323.501C138.642 323.684 138.345 323.825 138.003 323.924C137.661 324.023 137.322 324.072 136.987 324.072ZM143.074 324.072C142.488 324.072 141.982 323.958 141.556 323.73C141.137 323.494 140.81 323.163 140.574 322.737C140.346 322.31 140.232 321.8 140.232 321.207C140.232 320.628 140.346 320.126 140.574 319.7C140.802 319.266 141.114 318.928 141.51 318.684C141.914 318.44 142.378 318.319 142.903 318.319C143.276 318.319 143.611 318.383 143.908 318.513C144.204 318.635 144.455 318.813 144.661 319.049C144.874 319.285 145.034 319.571 145.14 319.905C145.255 320.24 145.312 320.617 145.312 321.036C145.312 321.157 145.277 321.249 145.209 321.31C145.14 321.363 145.041 321.39 144.912 321.39H140.939V320.784H144.695L144.513 320.933C144.513 320.522 144.452 320.176 144.33 319.894C144.208 319.605 144.029 319.384 143.793 319.232C143.565 319.08 143.276 319.004 142.926 319.004C142.538 319.004 142.207 319.095 141.933 319.278C141.666 319.453 141.465 319.7 141.328 320.02C141.191 320.332 141.122 320.697 141.122 321.116V321.184C141.122 321.884 141.29 322.417 141.624 322.782C141.967 323.148 142.45 323.33 143.074 323.33C143.333 323.33 143.588 323.296 143.839 323.227C144.098 323.159 144.349 323.045 144.592 322.885C144.699 322.816 144.794 322.786 144.878 322.794C144.969 322.794 145.041 322.82 145.095 322.874C145.148 322.919 145.182 322.98 145.198 323.056C145.22 323.125 145.213 323.201 145.175 323.285C145.144 323.368 145.08 323.441 144.981 323.501C144.729 323.684 144.433 323.825 144.09 323.924C143.748 324.023 143.409 324.072 143.074 324.072ZM147.118 326.104C146.966 326.104 146.852 326.062 146.775 325.979C146.699 325.903 146.661 325.788 146.661 325.636V318.81C146.661 318.657 146.699 318.543 146.775 318.467C146.852 318.383 146.962 318.342 147.107 318.342C147.259 318.342 147.373 318.383 147.449 318.467C147.533 318.543 147.575 318.657 147.575 318.81V319.894L147.449 319.734C147.571 319.3 147.81 318.958 148.168 318.707C148.533 318.448 148.967 318.319 149.47 318.319C149.964 318.319 150.394 318.437 150.76 318.673C151.132 318.901 151.418 319.232 151.616 319.666C151.821 320.092 151.924 320.602 151.924 321.195C151.924 321.781 151.821 322.291 151.616 322.725C151.418 323.151 151.136 323.482 150.771 323.718C150.406 323.954 149.972 324.072 149.47 324.072C148.967 324.072 148.537 323.947 148.18 323.696C147.822 323.437 147.578 323.094 147.449 322.668H147.586V325.636C147.586 325.788 147.544 325.903 147.46 325.979C147.377 326.062 147.263 326.104 147.118 326.104ZM149.276 323.33C149.626 323.33 149.926 323.246 150.177 323.079C150.436 322.912 150.634 322.668 150.771 322.348C150.916 322.029 150.988 321.644 150.988 321.195C150.988 320.503 150.832 319.974 150.52 319.609C150.215 319.243 149.801 319.061 149.276 319.061C148.933 319.061 148.632 319.144 148.374 319.312C148.115 319.472 147.913 319.711 147.769 320.031C147.632 320.343 147.563 320.731 147.563 321.195C147.563 321.88 147.719 322.409 148.031 322.782C148.343 323.148 148.758 323.33 149.276 323.33ZM160.084 324.072C159.224 324.072 158.497 323.909 157.904 323.581C157.318 323.254 156.873 322.782 156.568 322.166C156.264 321.549 156.112 320.811 156.112 319.951C156.112 319.312 156.195 318.737 156.363 318.227C156.538 317.717 156.789 317.287 157.116 316.937C157.451 316.58 157.854 316.306 158.326 316.115C158.806 315.918 159.346 315.819 159.947 315.819C160.427 315.819 160.891 315.887 161.34 316.024C161.789 316.153 162.188 316.363 162.539 316.652C162.63 316.72 162.687 316.797 162.71 316.88C162.733 316.964 162.729 317.048 162.698 317.131C162.676 317.215 162.634 317.287 162.573 317.348C162.52 317.402 162.447 317.432 162.356 317.44C162.272 317.447 162.185 317.421 162.093 317.36C161.781 317.116 161.45 316.941 161.1 316.835C160.75 316.72 160.362 316.663 159.936 316.663C159.327 316.663 158.809 316.793 158.383 317.052C157.965 317.31 157.645 317.683 157.424 318.17C157.211 318.657 157.105 319.251 157.105 319.951C157.105 321.017 157.352 321.831 157.847 322.394C158.349 322.957 159.102 323.239 160.107 323.239C160.472 323.239 160.83 323.205 161.18 323.136C161.53 323.06 161.861 322.957 162.173 322.828L161.968 323.364V320.522H160.335C160.198 320.522 160.096 320.488 160.027 320.419C159.959 320.351 159.924 320.259 159.924 320.145C159.924 320.023 159.959 319.932 160.027 319.871C160.096 319.81 160.198 319.78 160.335 319.78H162.379C162.508 319.78 162.607 319.814 162.676 319.883C162.744 319.951 162.778 320.05 162.778 320.179V323.159C162.778 323.273 162.759 323.368 162.721 323.444C162.683 323.52 162.618 323.578 162.527 323.616C162.208 323.745 161.823 323.855 161.374 323.947C160.933 324.03 160.503 324.072 160.084 324.072ZM166.883 324.072C166.343 324.072 165.875 323.954 165.479 323.718C165.083 323.482 164.775 323.151 164.554 322.725C164.341 322.291 164.235 321.781 164.235 321.195C164.235 320.754 164.296 320.358 164.417 320.008C164.539 319.651 164.718 319.346 164.954 319.095C165.19 318.844 165.468 318.654 165.787 318.524C166.115 318.387 166.48 318.319 166.883 318.319C167.424 318.319 167.892 318.437 168.287 318.673C168.683 318.908 168.988 319.243 169.201 319.677C169.421 320.103 169.532 320.609 169.532 321.195C169.532 321.637 169.471 322.033 169.349 322.383C169.227 322.733 169.048 323.037 168.813 323.296C168.577 323.547 168.295 323.741 167.968 323.878C167.648 324.008 167.287 324.072 166.883 324.072ZM166.883 323.33C167.226 323.33 167.526 323.246 167.785 323.079C168.044 322.912 168.242 322.668 168.379 322.348C168.523 322.029 168.596 321.644 168.596 321.195C168.596 320.503 168.44 319.974 168.128 319.609C167.823 319.243 167.408 319.061 166.883 319.061C166.533 319.061 166.229 319.144 165.97 319.312C165.719 319.472 165.521 319.711 165.376 320.031C165.239 320.343 165.171 320.731 165.171 321.195C165.171 321.88 165.327 322.409 165.639 322.782C165.951 323.148 166.366 323.33 166.883 323.33ZM171.389 324.027C171.236 324.027 171.122 323.985 171.046 323.901C170.97 323.81 170.932 323.684 170.932 323.524V318.855C170.932 318.695 170.97 318.574 171.046 318.49C171.122 318.406 171.236 318.364 171.389 318.364C171.533 318.364 171.647 318.406 171.731 318.49C171.815 318.574 171.857 318.695 171.857 318.855V323.524C171.857 323.684 171.815 323.81 171.731 323.901C171.655 323.985 171.541 324.027 171.389 324.027ZM171.389 317.086C171.198 317.086 171.05 317.036 170.943 316.937C170.837 316.831 170.784 316.69 170.784 316.515C170.784 316.332 170.837 316.195 170.943 316.104C171.05 316.005 171.198 315.956 171.389 315.956C171.587 315.956 171.735 316.005 171.834 316.104C171.94 316.195 171.994 316.332 171.994 316.515C171.994 316.69 171.94 316.831 171.834 316.937C171.735 317.036 171.587 317.086 171.389 317.086ZM174.053 324.049C173.901 324.049 173.787 324.008 173.711 323.924C173.635 323.84 173.597 323.722 173.597 323.57V318.81C173.597 318.657 173.635 318.543 173.711 318.467C173.787 318.383 173.897 318.342 174.042 318.342C174.187 318.342 174.297 318.383 174.373 318.467C174.457 318.543 174.499 318.657 174.499 318.81V319.791L174.373 319.654C174.533 319.213 174.792 318.882 175.149 318.661C175.515 318.433 175.933 318.319 176.405 318.319C176.846 318.319 177.212 318.399 177.501 318.558C177.798 318.718 178.018 318.962 178.163 319.289C178.308 319.609 178.38 320.016 178.38 320.511V323.57C178.38 323.722 178.338 323.84 178.254 323.924C178.178 324.008 178.068 324.049 177.923 324.049C177.771 324.049 177.653 324.008 177.569 323.924C177.493 323.84 177.455 323.722 177.455 323.57V320.568C177.455 320.05 177.352 319.673 177.147 319.437C176.949 319.194 176.629 319.072 176.188 319.072C175.678 319.072 175.271 319.232 174.967 319.552C174.67 319.864 174.521 320.282 174.521 320.807V323.57C174.521 323.89 174.365 324.049 174.053 324.049ZM182.551 326.127C182.147 326.127 181.752 326.078 181.364 325.979C180.983 325.887 180.637 325.739 180.325 325.533C180.233 325.48 180.172 325.415 180.142 325.339C180.119 325.263 180.115 325.187 180.131 325.111C180.146 325.043 180.18 324.978 180.233 324.917C180.287 324.864 180.348 324.829 180.416 324.814C180.492 324.799 180.568 324.81 180.644 324.848C180.979 325.054 181.299 325.195 181.603 325.271C181.908 325.347 182.208 325.385 182.505 325.385C183.045 325.385 183.453 325.24 183.727 324.951C184.008 324.662 184.149 324.243 184.149 323.696V322.406H184.263C184.149 322.847 183.905 323.197 183.533 323.456C183.167 323.715 182.737 323.844 182.243 323.844C181.733 323.844 181.291 323.73 180.918 323.501C180.545 323.266 180.256 322.938 180.051 322.52C179.853 322.101 179.754 321.618 179.754 321.07C179.754 320.659 179.811 320.286 179.925 319.951C180.039 319.609 180.203 319.319 180.416 319.084C180.637 318.84 180.899 318.654 181.204 318.524C181.516 318.387 181.862 318.319 182.243 318.319C182.745 318.319 183.179 318.448 183.544 318.707C183.909 318.958 184.145 319.3 184.252 319.734L184.138 319.871V318.81C184.138 318.657 184.176 318.543 184.252 318.467C184.335 318.383 184.45 318.342 184.594 318.342C184.746 318.342 184.861 318.383 184.937 318.467C185.013 318.543 185.051 318.657 185.051 318.81V323.57C185.051 324.415 184.838 325.05 184.412 325.476C183.993 325.91 183.373 326.127 182.551 326.127ZM182.414 323.09C182.771 323.09 183.08 323.011 183.338 322.851C183.597 322.683 183.795 322.447 183.932 322.143C184.077 321.839 184.149 321.481 184.149 321.07C184.149 320.453 183.993 319.966 183.681 319.609C183.369 319.243 182.947 319.061 182.414 319.061C182.064 319.061 181.759 319.144 181.501 319.312C181.242 319.472 181.04 319.704 180.895 320.008C180.759 320.305 180.69 320.659 180.69 321.07C180.69 321.686 180.846 322.177 181.158 322.543C181.47 322.908 181.889 323.09 182.414 323.09Z" fill="#888888"/>
<rect x="26.8317" y="348.756" width="179.227" height="25.6855" rx="12.8427" fill="#1D1D1B"/>
<path d="M97.6492 365.702C96.8349 365.702 96.1385 365.534 95.5601 365.2C94.9817 364.865 94.5365 364.389 94.2245 363.773C93.9201 363.149 93.7678 362.414 93.7678 361.569C93.7678 360.938 93.8554 360.371 94.0304 359.868C94.2055 359.359 94.4566 358.925 94.7839 358.567C95.1187 358.202 95.5259 357.924 96.0053 357.734C96.4924 357.543 97.0404 357.448 97.6492 357.448C98.0982 357.448 98.5282 357.509 98.9392 357.631C99.3578 357.753 99.7193 357.928 100.024 358.156C100.153 358.24 100.237 358.343 100.275 358.464C100.32 358.578 100.328 358.689 100.298 358.795C100.275 358.902 100.225 358.993 100.149 359.069C100.073 359.138 99.9742 359.176 99.8524 359.183C99.7383 359.191 99.6127 359.149 99.4757 359.058C99.2246 358.868 98.9468 358.727 98.6424 358.636C98.338 358.544 98.0183 358.499 97.6835 358.499C97.1051 358.499 96.618 358.62 96.2222 358.864C95.8265 359.1 95.5259 359.446 95.3204 359.903C95.1149 360.359 95.0122 360.915 95.0122 361.569C95.0122 362.224 95.1149 362.783 95.3204 363.247C95.5259 363.704 95.8265 364.054 96.2222 364.298C96.618 364.534 97.1051 364.652 97.6835 364.652C98.0183 364.652 98.338 364.606 98.6424 364.515C98.9544 364.416 99.2474 364.271 99.5214 364.081C99.6584 363.997 99.7802 363.959 99.8867 363.967C100.001 363.974 100.096 364.012 100.172 364.081C100.248 364.149 100.298 364.237 100.32 364.343C100.351 364.442 100.347 364.549 100.309 364.663C100.279 364.77 100.206 364.861 100.092 364.937C99.7802 365.188 99.411 365.378 98.9849 365.508C98.5587 365.637 98.1134 365.702 97.6492 365.702ZM103.661 365.702C103.098 365.702 102.611 365.584 102.2 365.348C101.796 365.112 101.481 364.777 101.252 364.343C101.024 363.91 100.91 363.4 100.91 362.814C100.91 362.365 100.975 361.965 101.104 361.615C101.233 361.265 101.416 360.964 101.652 360.713C101.895 360.454 102.185 360.26 102.519 360.131C102.862 359.994 103.242 359.925 103.661 359.925C104.217 359.925 104.696 360.043 105.099 360.279C105.51 360.515 105.83 360.85 106.058 361.284C106.287 361.71 106.401 362.22 106.401 362.814C106.401 363.255 106.336 363.655 106.207 364.012C106.077 364.37 105.891 364.674 105.647 364.926C105.411 365.177 105.122 365.371 104.78 365.508C104.445 365.637 104.072 365.702 103.661 365.702ZM103.661 364.811C103.973 364.811 104.247 364.735 104.483 364.583C104.719 364.431 104.902 364.206 105.031 363.91C105.168 363.613 105.236 363.247 105.236 362.814C105.236 362.159 105.092 361.664 104.803 361.33C104.513 360.995 104.133 360.827 103.661 360.827C103.341 360.827 103.064 360.903 102.828 361.056C102.592 361.2 102.405 361.421 102.268 361.718C102.139 362.015 102.074 362.38 102.074 362.814C102.074 363.461 102.219 363.955 102.508 364.298C102.797 364.64 103.182 364.811 103.661 364.811ZM108.278 365.679C108.095 365.679 107.954 365.63 107.856 365.531C107.757 365.424 107.707 365.279 107.707 365.097V360.531C107.707 360.34 107.757 360.196 107.856 360.097C107.954 359.998 108.091 359.948 108.266 359.948C108.449 359.948 108.586 359.998 108.677 360.097C108.776 360.196 108.826 360.34 108.826 360.531V361.421L108.7 361.215C108.868 360.789 109.13 360.47 109.488 360.257C109.846 360.036 110.257 359.925 110.721 359.925C111.162 359.925 111.528 360.009 111.817 360.177C112.114 360.336 112.334 360.584 112.479 360.919C112.624 361.246 112.696 361.661 112.696 362.163V365.097C112.696 365.279 112.646 365.424 112.547 365.531C112.448 365.63 112.308 365.679 112.125 365.679C111.935 365.679 111.79 365.63 111.691 365.531C111.592 365.424 111.543 365.279 111.543 365.097V362.231C111.543 361.752 111.448 361.402 111.257 361.181C111.075 360.961 110.786 360.85 110.39 360.85C109.926 360.85 109.553 360.995 109.271 361.284C108.997 361.573 108.86 361.961 108.86 362.448V365.097C108.86 365.485 108.666 365.679 108.278 365.679ZM116.67 365.702C116.214 365.702 115.829 365.622 115.517 365.462C115.205 365.302 114.973 365.066 114.821 364.754C114.669 364.442 114.593 364.062 114.593 363.613V360.919H113.908C113.756 360.919 113.638 360.881 113.554 360.805C113.47 360.721 113.428 360.61 113.428 360.473C113.428 360.329 113.47 360.218 113.554 360.142C113.638 360.066 113.756 360.028 113.908 360.028H114.593V358.852C114.593 358.662 114.642 358.518 114.741 358.419C114.848 358.32 114.992 358.27 115.175 358.27C115.358 358.27 115.498 358.32 115.597 358.419C115.696 358.518 115.746 358.662 115.746 358.852V360.028H117.081C117.234 360.028 117.352 360.066 117.435 360.142C117.519 360.218 117.561 360.329 117.561 360.473C117.561 360.61 117.519 360.721 117.435 360.805C117.352 360.881 117.234 360.919 117.081 360.919H115.746V363.521C115.746 363.925 115.829 364.229 115.997 364.435C116.172 364.64 116.454 364.743 116.842 364.743C116.979 364.743 117.097 364.732 117.196 364.709C117.302 364.678 117.39 364.659 117.458 364.652C117.542 364.652 117.61 364.682 117.664 364.743C117.717 364.796 117.744 364.903 117.744 365.063C117.744 365.177 117.721 365.283 117.675 365.382C117.637 365.481 117.565 365.546 117.458 365.576C117.367 365.607 117.241 365.633 117.081 365.656C116.929 365.687 116.792 365.702 116.67 365.702ZM119.148 365.668C118.965 365.668 118.824 365.614 118.726 365.508C118.627 365.394 118.577 365.238 118.577 365.04V360.588C118.577 360.39 118.627 360.238 118.726 360.131C118.824 360.024 118.965 359.971 119.148 359.971C119.331 359.971 119.471 360.024 119.57 360.131C119.677 360.238 119.73 360.39 119.73 360.588V365.04C119.73 365.238 119.681 365.394 119.582 365.508C119.483 365.614 119.338 365.668 119.148 365.668ZM119.148 358.784C118.92 358.784 118.741 358.727 118.611 358.613C118.49 358.499 118.429 358.339 118.429 358.133C118.429 357.92 118.49 357.76 118.611 357.654C118.741 357.54 118.92 357.483 119.148 357.483C119.376 357.483 119.551 357.54 119.673 357.654C119.802 357.76 119.867 357.92 119.867 358.133C119.867 358.339 119.802 358.499 119.673 358.613C119.551 358.727 119.376 358.784 119.148 358.784ZM121.935 365.679C121.753 365.679 121.612 365.63 121.513 365.531C121.414 365.424 121.364 365.279 121.364 365.097V360.531C121.364 360.34 121.414 360.196 121.513 360.097C121.612 359.998 121.749 359.948 121.924 359.948C122.106 359.948 122.243 359.998 122.335 360.097C122.434 360.196 122.483 360.34 122.483 360.531V361.421L122.358 361.215C122.525 360.789 122.788 360.47 123.145 360.257C123.503 360.036 123.914 359.925 124.378 359.925C124.82 359.925 125.185 360.009 125.474 360.177C125.771 360.336 125.992 360.584 126.136 360.919C126.281 361.246 126.353 361.661 126.353 362.163V365.097C126.353 365.279 126.304 365.424 126.205 365.531C126.106 365.63 125.965 365.679 125.782 365.679C125.592 365.679 125.448 365.63 125.349 365.531C125.25 365.424 125.2 365.279 125.2 365.097V362.231C125.2 361.752 125.105 361.402 124.915 361.181C124.732 360.961 124.443 360.85 124.047 360.85C123.583 360.85 123.21 360.995 122.928 361.284C122.654 361.573 122.517 361.961 122.517 362.448V365.097C122.517 365.485 122.323 365.679 121.935 365.679ZM129.94 365.702C129.491 365.702 129.114 365.618 128.81 365.451C128.513 365.283 128.288 365.036 128.136 364.709C127.991 364.374 127.919 363.955 127.919 363.453V360.531C127.919 360.333 127.969 360.188 128.067 360.097C128.166 359.998 128.307 359.948 128.49 359.948C128.673 359.948 128.813 359.998 128.912 360.097C129.019 360.188 129.072 360.333 129.072 360.531V363.464C129.072 363.913 129.163 364.244 129.346 364.458C129.529 364.671 129.818 364.777 130.214 364.777C130.647 364.777 130.998 364.633 131.264 364.343C131.538 364.047 131.675 363.658 131.675 363.179V360.531C131.675 360.333 131.724 360.188 131.823 360.097C131.922 359.998 132.067 359.948 132.257 359.948C132.44 359.948 132.581 359.998 132.679 360.097C132.778 360.188 132.828 360.333 132.828 360.531V365.097C132.828 365.485 132.641 365.679 132.268 365.679C132.093 365.679 131.956 365.63 131.858 365.531C131.759 365.424 131.709 365.279 131.709 365.097V364.126L131.858 364.378C131.705 364.804 131.462 365.131 131.127 365.359C130.792 365.588 130.396 365.702 129.94 365.702ZM137.078 365.702C136.47 365.702 135.944 365.588 135.503 365.359C135.069 365.123 134.731 364.792 134.487 364.366C134.251 363.932 134.133 363.419 134.133 362.825C134.133 362.247 134.251 361.741 134.487 361.307C134.723 360.873 135.046 360.534 135.457 360.291C135.868 360.047 136.336 359.925 136.861 359.925C137.25 359.925 137.596 359.99 137.9 360.12C138.205 360.241 138.463 360.424 138.677 360.668C138.897 360.903 139.061 361.193 139.167 361.535C139.282 361.878 139.339 362.262 139.339 362.688C139.339 362.817 139.301 362.916 139.225 362.985C139.148 363.046 139.034 363.076 138.882 363.076H135.046V362.368H138.562L138.368 362.528C138.368 362.148 138.311 361.824 138.197 361.558C138.091 361.292 137.927 361.09 137.706 360.953C137.493 360.808 137.227 360.736 136.907 360.736C136.549 360.736 136.245 360.82 135.994 360.987C135.75 361.155 135.564 361.387 135.434 361.684C135.305 361.98 135.24 362.327 135.24 362.722V362.791C135.24 363.461 135.396 363.967 135.708 364.309C136.028 364.644 136.489 364.811 137.09 364.811C137.318 364.811 137.558 364.781 137.809 364.72C138.068 364.659 138.311 364.556 138.54 364.412C138.669 364.336 138.783 364.302 138.882 364.309C138.989 364.317 139.072 364.351 139.133 364.412C139.202 364.473 139.244 364.549 139.259 364.64C139.274 364.732 139.259 364.827 139.213 364.926C139.167 365.017 139.088 365.101 138.973 365.177C138.715 365.352 138.414 365.485 138.072 365.576C137.729 365.66 137.398 365.702 137.078 365.702Z" fill="white"/>
<path d="M110.521 201.527L102.203 193.209C101.502 192.508 100.641 192.158 99.6213 192.158C98.6015 192.158 97.7092 192.54 96.9443 193.305C96.2432 194.006 95.8926 194.899 95.8926 195.982C95.8926 197.066 96.2432 197.958 96.9443 198.659L107.844 209.558C108.545 210.259 109.437 210.61 110.521 210.61C111.604 210.61 112.496 210.259 113.198 209.558L134.9 187.855C135.601 187.154 135.952 186.294 135.952 185.274C135.952 184.254 135.57 183.362 134.805 182.597C134.104 181.896 133.211 181.545 132.128 181.545C131.044 181.545 130.152 181.896 129.451 182.597L110.521 201.527ZM115.875 232.886C110.584 232.886 105.613 231.882 100.96 229.873C96.3069 227.866 92.2596 225.142 88.8177 221.7C85.3759 218.258 82.6517 214.211 80.6452 209.558C78.6362 204.905 77.6317 199.934 77.6317 194.644C77.6317 189.353 78.6362 184.382 80.6452 179.729C82.6517 175.076 85.3759 171.029 88.8177 167.587C92.2596 164.145 96.3069 161.419 100.96 159.41C105.613 157.404 110.584 156.401 115.875 156.401C121.165 156.401 126.136 157.404 130.789 159.41C135.442 161.419 139.489 164.145 142.931 167.587C146.373 171.029 149.097 175.076 151.104 179.729C153.113 184.382 154.117 189.353 154.117 194.644C154.117 199.934 153.113 204.905 151.104 209.558C149.097 214.211 146.373 218.258 142.931 221.7C139.489 225.142 135.442 227.866 130.789 229.873C126.136 231.882 121.165 232.886 115.875 232.886Z" fill="#42AB00"/>
<path fill-rule="evenodd" clip-rule="evenodd" d="M188.726 16.5576H188.121C187.788 16.5576 187.517 16.8451 187.517 17.1998V22.7649C187.517 23.1196 187.788 23.4071 188.121 23.4071H188.726C189.06 23.4071 189.33 23.1196 189.33 22.7649V17.1998C189.33 16.8451 189.06 16.5576 188.726 16.5576ZM185.301 18.0559H185.905C186.239 18.0559 186.51 18.3434 186.51 18.6981V22.7649C186.51 23.1196 186.239 23.4071 185.905 23.4071H185.301C184.967 23.4071 184.697 23.1196 184.697 22.7649V18.6981C184.697 18.3434 184.967 18.0559 185.301 18.0559ZM183.085 19.5543H182.481C182.147 19.5543 181.876 19.8417 181.876 20.1964V22.7649C181.876 23.1196 182.147 23.4071 182.481 23.4071H183.085C183.419 23.4071 183.689 23.1196 183.689 22.7649V20.1964C183.689 19.8417 183.419 19.5543 183.085 19.5543ZM180.265 20.8385H179.66C179.326 20.8385 179.056 21.126 179.056 21.4807V22.7649C179.056 23.1196 179.326 23.4071 179.66 23.4071H180.265C180.598 23.4071 180.869 23.1196 180.869 22.7649V21.4807C180.869 21.126 180.598 20.8385 180.265 20.8385Z" fill="#1D1D1B"/>
<path fill-rule="evenodd" clip-rule="evenodd" d="M197.321 17.9801C198.647 17.9802 199.921 18.512 200.881 19.4657C200.954 19.5393 201.069 19.5384 201.14 19.4636L201.832 18.7349C201.868 18.6969 201.888 18.6456 201.887 18.5921C201.887 18.5387 201.867 18.4875 201.83 18.45C199.309 15.9268 195.333 15.9268 192.812 18.45C192.776 18.4875 192.755 18.5386 192.755 18.5921C192.755 18.6455 192.775 18.6969 192.811 18.7349L193.502 19.4636C193.573 19.5385 193.689 19.5394 193.761 19.4657C194.722 18.5119 195.996 17.9801 197.321 17.9801ZM197.322 20.3511C198.05 20.351 198.752 20.6337 199.291 21.1441C199.364 21.2166 199.479 21.215 199.55 21.1406L200.241 20.4119C200.277 20.3736 200.297 20.3218 200.297 20.2679C200.296 20.214 200.275 20.1626 200.238 20.1252C198.595 18.5284 196.05 18.5284 194.406 20.1252C194.369 20.1626 194.348 20.214 194.348 20.2679C194.347 20.3218 194.367 20.3737 194.404 20.4119L195.094 21.1406C195.165 21.215 195.28 21.2166 195.353 21.1441C195.893 20.634 196.594 20.3514 197.322 20.3511ZM198.705 21.9462C198.706 22.0003 198.686 22.0524 198.649 22.0902L197.454 23.3493C197.419 23.3863 197.372 23.4071 197.322 23.4071C197.272 23.4071 197.224 23.3863 197.189 23.3493L195.995 22.0902C195.958 22.0523 195.937 22.0002 195.939 21.9462C195.94 21.8922 195.962 21.841 196 21.8048C196.763 21.1309 197.88 21.1309 198.643 21.8048C198.681 21.841 198.704 21.8922 198.705 21.9462Z" fill="#1D1D1B"/>
<path opacity="0.4" fill-rule="evenodd" clip-rule="evenodd" d="M206.834 17.1284H216.178C216.704 17.1284 217.129 17.5543 217.129 18.0797V21.885C217.129 22.4104 216.704 22.8363 216.178 22.8363H206.834C206.309 22.8363 205.883 22.4104 205.883 21.885V18.0797C205.883 17.5543 206.309 17.1284 206.834 17.1284ZM205.312 18.0797C205.312 17.2391 205.994 16.5576 206.834 16.5576H216.178C217.019 16.5576 217.7 17.2391 217.7 18.0797V21.885C217.7 22.7256 217.019 23.4071 216.178 23.4071H206.834C205.994 23.4071 205.312 22.7256 205.312 21.885V18.0797ZM218.263 21.1911V18.7736C218.716 18.9784 219.011 19.4547 219.011 19.9824C219.011 20.5101 218.716 20.9864 218.263 21.1911Z" fill="#1D1D1B"/>
<rect x="206.438" y="17.7664" width="10.1356" height="4.432" rx="0.761051" fill="#1D1D1B"/>
<path d="M14.6067 16.7233V22.4161H13.483V18.0187L12.1329 18.4479V17.5622L14.4858 16.7233H14.6067ZM20.3505 21.5382V22.4161H16.4642V21.667L18.302 19.6965C18.4867 19.491 18.6323 19.3102 18.739 19.1542C18.8456 18.9955 18.9224 18.8537 18.9692 18.7289C19.0186 18.6014 19.0433 18.4805 19.0433 18.366C19.0433 18.1943 19.0147 18.0473 18.9575 17.9251C18.9003 17.8002 18.8157 17.704 18.7039 17.6363C18.5946 17.5687 18.4594 17.5349 18.2981 17.5349C18.1264 17.5349 17.9781 17.5765 17.8533 17.6598C17.731 17.743 17.6374 17.8588 17.5723 18.007C17.5099 18.1553 17.4787 18.3231 17.4787 18.5104H16.351C16.351 18.1722 16.4317 17.8627 16.593 17.5817C16.7542 17.2982 16.9818 17.0732 17.2758 16.9067C17.5697 16.7376 17.9183 16.6531 18.3215 16.6531C18.7195 16.6531 19.055 16.7181 19.3282 16.8482C19.6039 16.9756 19.812 17.1603 19.9525 17.4022C20.0955 17.6415 20.1671 17.9277 20.1671 18.2606C20.1671 18.4479 20.1372 18.6313 20.0773 18.8108C20.0175 18.9877 19.9317 19.1646 19.8198 19.3415C19.7106 19.5157 19.5779 19.6926 19.4218 19.8721C19.2657 20.0516 19.0928 20.2376 18.9029 20.4301L17.9157 21.5382H20.3505ZM21.1505 21.8738C21.1505 21.7073 21.2078 21.5681 21.3222 21.4563C21.4393 21.3444 21.594 21.2885 21.7865 21.2885C21.979 21.2885 22.1325 21.3444 22.247 21.4563C22.364 21.5681 22.4225 21.7073 22.4225 21.8738C22.4225 22.0403 22.364 22.1794 22.247 22.2913C22.1325 22.4031 21.979 22.4591 21.7865 22.4591C21.594 22.4591 21.4393 22.4031 21.3222 22.2913C21.2078 22.1794 21.1505 22.0403 21.1505 21.8738ZM21.1505 18.6547C21.1505 18.4883 21.2078 18.3491 21.3222 18.2372C21.4393 18.1254 21.594 18.0695 21.7865 18.0695C21.979 18.0695 22.1325 18.1254 22.247 18.2372C22.364 18.3491 22.4225 18.4883 22.4225 18.6547C22.4225 18.8212 22.364 18.9604 22.247 19.0722C22.1325 19.1841 21.979 19.24 21.7865 19.24C21.594 19.24 21.4393 19.1841 21.3222 19.0722C21.2078 18.9604 21.1505 18.8212 21.1505 18.6547ZM24.4751 19.0878H25.076C25.2685 19.0878 25.4272 19.0553 25.552 18.9903C25.6769 18.9227 25.7692 18.829 25.8291 18.7094C25.8915 18.5871 25.9227 18.4453 25.9227 18.2841C25.9227 18.1384 25.8941 18.0096 25.8369 17.8978C25.7822 17.7833 25.6977 17.6949 25.5832 17.6324C25.4688 17.5674 25.3244 17.5349 25.1501 17.5349C25.0123 17.5349 24.8848 17.5622 24.7677 17.6168C24.6507 17.6715 24.557 17.7482 24.4868 17.847C24.4166 17.9459 24.3815 18.0656 24.3815 18.206H23.2538C23.2538 17.8939 23.3371 17.622 23.5035 17.3905C23.6726 17.159 23.8989 16.9782 24.1825 16.8482C24.466 16.7181 24.7782 16.6531 25.1189 16.6531C25.5039 16.6531 25.8408 16.7155 26.1295 16.8404C26.4182 16.9626 26.6432 17.1434 26.8045 17.3827C26.9658 17.622 27.0464 17.9186 27.0464 18.2724C27.0464 18.4518 27.0048 18.6261 26.9216 18.7952C26.8383 18.9617 26.7187 19.1126 26.5626 19.2478C26.4091 19.3805 26.2218 19.4871 26.0007 19.5678C25.7796 19.6458 25.5312 19.6848 25.2555 19.6848H24.4751V19.0878ZM24.4751 19.9424V19.361H25.2555C25.565 19.361 25.8369 19.3961 26.071 19.4663C26.3051 19.5366 26.5015 19.638 26.6602 19.7707C26.8188 19.9007 26.9385 20.0555 27.0191 20.235C27.0998 20.4119 27.1401 20.6083 27.1401 20.8242C27.1401 21.0895 27.0894 21.3262 26.9879 21.5343C26.8865 21.7398 26.7434 21.9141 26.5587 22.0572C26.3766 22.2002 26.1633 22.3095 25.9188 22.3849C25.6743 22.4578 25.4077 22.4942 25.1189 22.4942C24.8796 22.4942 24.6442 22.4617 24.4127 22.3966C24.1838 22.329 23.9757 22.2288 23.7884 22.0962C23.6037 21.9609 23.4554 21.7918 23.3436 21.5889C23.2343 21.3834 23.1797 21.1402 23.1797 20.8593H24.3073C24.3073 21.005 24.3437 21.135 24.4166 21.2495C24.4894 21.3639 24.5896 21.4537 24.717 21.5187C24.8471 21.5837 24.9915 21.6163 25.1501 21.6163C25.3296 21.6163 25.4831 21.5837 25.6106 21.5187C25.7406 21.4511 25.8395 21.3574 25.9071 21.2378C25.9773 21.1155 26.0124 20.9737 26.0124 20.8125C26.0124 20.6044 25.9747 20.4379 25.8993 20.313C25.8239 20.1856 25.7159 20.0919 25.5754 20.0321C25.435 19.9723 25.2685 19.9424 25.076 19.9424H24.4751ZM31.7445 19.0761V20.0594C31.7445 20.486 31.699 20.8541 31.6079 21.1636C31.5169 21.4706 31.3855 21.7229 31.2138 21.9206C31.0447 22.1157 30.8432 22.2601 30.609 22.3537C30.3749 22.4474 30.1148 22.4942 29.8287 22.4942C29.5998 22.4942 29.3865 22.4656 29.1888 22.4083C28.9911 22.3485 28.8129 22.2562 28.6542 22.1313C28.4981 22.0064 28.3629 21.8491 28.2484 21.6592C28.1366 21.4667 28.0507 21.2378 27.9909 20.9724C27.9311 20.7071 27.9011 20.4028 27.9011 20.0594V19.0761C27.9011 18.6495 27.9467 18.2841 28.0377 17.9797C28.1314 17.6728 28.2627 17.4217 28.4318 17.2266C28.6035 17.0316 28.8064 16.8885 29.0405 16.7974C29.2746 16.7038 29.5347 16.657 29.8209 16.657C30.0498 16.657 30.2618 16.6869 30.4569 16.7467C30.6546 16.8039 30.8327 16.8937 30.9914 17.0159C31.1501 17.1382 31.2854 17.2956 31.3972 17.4881C31.5091 17.678 31.5949 17.9056 31.6547 18.1709C31.7146 18.4336 31.7445 18.7354 31.7445 19.0761ZM30.6168 20.2077V18.924C30.6168 18.7185 30.6051 18.539 30.5817 18.3855C30.5609 18.232 30.5284 18.102 30.4842 17.9953C30.44 17.8861 30.3853 17.7976 30.3203 17.73C30.2553 17.6624 30.1811 17.6129 30.0979 17.5817C30.0147 17.5505 29.9223 17.5349 29.8209 17.5349C29.6934 17.5349 29.5802 17.5596 29.4814 17.609C29.3852 17.6585 29.3032 17.7378 29.2356 17.847C29.1679 17.9537 29.1159 18.0968 29.0795 18.2763C29.0457 18.4531 29.0288 18.669 29.0288 18.924V20.2077C29.0288 20.4132 29.0392 20.594 29.06 20.75C29.0834 20.9061 29.1172 21.0401 29.1614 21.1519C29.2083 21.2612 29.2629 21.3509 29.3253 21.4212C29.3904 21.4888 29.4645 21.5382 29.5477 21.5694C29.6336 21.6006 29.7272 21.6163 29.8287 21.6163C29.9535 21.6163 30.0641 21.5915 30.1603 21.5421C30.2592 21.4901 30.3424 21.4095 30.41 21.3002C30.4803 21.1883 30.5323 21.0427 30.5661 20.8632C30.5999 20.6837 30.6168 20.4652 30.6168 20.2077Z" fill="#1D1D1B"/>
</g>
<rect x="2.28764" y="2.28764" width="227.744" height="489.736" rx="10.845" stroke="#575757" stroke-width="3.42473"/>
<defs>
<clipPath id="clip0_751_2140">
<rect x="4" y="4" width="224.32" height="486.311" rx="9.13261" fill="white"/>
</clipPath>
</defs>
</svg>
