<svg width="237" height="500" viewBox="0 0 237 500" fill="none" xmlns="http://www.w3.org/2000/svg">
<g clip-path="url(#clip0_910_3560)">
<rect x="6" y="6.2793" width="224.96" height="487.7" rx="16" fill="#FFFCE7"/>
<path d="M-106.766 6.2793H360.9V66.0968C360.9 195.239 256.21 299.93 127.067 299.93V299.93C-2.07511 299.93 -106.766 195.239 -106.766 66.0968V6.2793Z" fill="#FFD101"/>
<path d="M189.527 -18.1956C199.24 52.6959 235.732 86.6212 291.142 94.4409C228.471 100.712 190.55 134.326 177.514 195.505C169.331 120.374 134.048 84.9211 75.8985 82.8687C134.12 75.7706 176.36 47.7728 189.527 -18.1956Z" fill="#FEB800"/>
<path d="M191.263 270.736C191.604 283.543 197.987 290.308 208.638 292.807C196.26 292.67 188.116 297.892 184.227 308.516C184.277 294.986 178.164 287.973 166.852 286.445C178.379 286.346 187.243 282.21 191.263 270.736Z" fill="#FEB800"/>
<path d="M54.6066 103.388C67.2008 162.672 100.225 189.055 147.683 192.203C94.9358 201.412 64.8546 232.177 57.5652 284.676C46.0072 221.715 13.9139 193.965 -35.5108 195.861C13.4122 186.23 47.5011 159.941 54.6066 103.388Z" fill="#FABB18"/>
<g clip-path="url(#clip1_910_3560)">
<path d="M103.368 106.451C103.634 117.43 108.616 123.23 116.93 125.373C107.268 125.255 100.911 129.732 97.8754 138.84C97.9148 127.241 93.1428 121.228 84.3125 119.919C93.3106 119.834 100.23 116.287 103.368 106.451Z" fill="#FEB800"/>
<path d="M123.842 117.506C117.906 151.443 103.245 166.883 88.1195 177.265L87.4651 176.514C87.3072 176.292 87.1395 176.073 86.9685 175.857C92.2436 170.717 94.1972 163.529 92.6909 156.195C91.3622 148.968 82.4957 139.905 70.2615 142.224C84.8307 143.543 89.1193 161.73 77.6349 169.297C69.6465 174.509 59.7408 171.037 56.1593 164.029C52.0681 157.308 54.8866 147.051 63.4571 143.377C64.5753 142.897 66.4499 142.054 67.5878 141.803C75.3624 140.398 78.1578 138.913 80.8382 135.595C83.4429 132.26 83.1864 129.54 82.4135 127.499C81.7788 125.817 80.9796 125.099 80.973 125.131C79.97 127.133 76.4214 131.921 69.3801 131.966C65.9006 132.006 62.2534 132.606 58.5108 134.318C45.2077 140.601 40.1365 156.374 46.5298 168.882C52.6864 180.926 67.9232 185.671 80.2923 180.338C80.4172 180.492 80.5422 180.645 80.6639 180.808C47.25 197.571 36.8872 227.472 51.532 241.469C60.2768 250.084 76.918 248.059 86.0739 235.31C98.6666 217.779 97.8049 199.798 94.605 184.734L94.503 184.616C110.648 171.935 123.862 153.314 123.842 117.506ZM61.5923 229.196C54.6169 222.087 59.7539 202.094 85.9687 190.103C91.0991 219.778 72.6097 239.104 61.5923 229.196Z" fill="black"/>
<path d="M119.636 236.391C119.721 239.883 121.294 241.728 123.921 242.41C120.869 242.372 118.86 243.797 117.901 246.694C117.914 243.004 116.407 241.092 113.617 240.675C116.46 240.648 118.645 239.52 119.636 236.391Z" fill="#FEB800"/>
</g>
<path d="M181.674 173.175H180.902V174.7H180.203V170.729H181.61C182.07 170.729 182.428 170.829 182.677 171.039C182.925 171.249 183.053 171.541 183.053 171.934C183.053 172.198 182.989 172.418 182.86 172.6C182.732 172.783 182.548 172.92 182.318 173.011L183.219 174.664V174.7H182.474L181.674 173.175ZM180.893 172.618H181.61C181.84 172.618 182.024 172.564 182.162 172.445C182.29 172.326 182.355 172.171 182.355 171.961C182.355 171.751 182.29 171.587 182.171 171.468C182.051 171.349 181.867 171.295 181.628 171.285H180.893V172.618Z" fill="black"/>
<path d="M112.968 197.455L113.345 195.236C112.03 196.542 110.614 197.19 109.088 197.19C107.874 197.19 106.881 196.752 106.118 195.885C105.355 195.008 104.969 193.94 104.969 192.68C104.969 191.53 105.171 190.379 105.566 189.238C105.962 188.097 106.605 187.092 107.488 186.234C108.371 185.376 109.41 184.938 110.587 184.938C111.451 184.938 112.177 185.193 112.757 185.714C113.336 186.234 113.74 186.754 113.97 187.293C114.2 186.855 114.448 186.535 114.697 186.344C114.945 186.152 115.276 186.051 115.681 186.051C116.361 186.051 116.692 186.599 116.692 187.695C116.692 188.617 116.563 190.06 116.315 192.023C116.067 193.986 115.819 195.419 115.589 196.323C115.644 196.286 115.993 196.04 116.618 195.592C117.244 195.145 117.823 194.743 118.356 194.387C118.89 194.031 119.23 193.858 119.386 193.858C119.699 193.858 119.855 193.976 119.855 194.205C119.855 194.396 119.276 194.962 118.136 195.912C116.986 196.862 116.048 197.574 115.313 198.058C113.888 202.796 111.929 205.161 109.465 205.161C108.601 205.161 107.929 204.924 107.479 204.44C107.028 203.956 106.799 203.371 106.799 202.687C106.799 202.093 107.019 201.5 107.451 200.915C107.883 200.331 108.454 199.82 109.143 199.372C109.842 198.934 110.495 198.56 111.111 198.249C111.727 197.939 112.343 197.674 112.968 197.446V197.455ZM110.421 194.177C110.982 194.177 111.497 193.785 111.957 192.981C112.416 192.187 112.747 191.256 112.941 190.206C112.711 190.324 112.499 190.379 112.306 190.379C112.058 190.379 111.736 190.242 111.341 189.959C110.945 189.685 110.633 189.539 110.403 189.539C110.053 189.539 109.768 189.85 109.548 190.461C109.327 191.073 109.217 191.749 109.217 192.479C109.217 193.611 109.621 194.177 110.43 194.177H110.421ZM112.619 199.208C110.798 200.13 109.897 200.833 109.897 201.335C109.897 201.509 109.952 201.664 110.072 201.792C110.191 201.92 110.32 201.993 110.476 201.993C110.936 201.993 111.359 201.71 111.736 201.144C112.113 200.578 112.407 199.929 112.619 199.199V199.208Z" fill="black"/>
<path d="M122.33 185.886C122.873 185.886 123.351 186.032 123.765 186.333C124.178 186.635 124.39 187.018 124.39 187.502C124.39 188.132 124.188 189.255 123.783 190.871C123.378 192.478 123.176 193.592 123.176 194.213C123.176 195.363 123.654 195.938 124.629 195.938C125.493 195.938 126.376 195.5 127.268 194.614C127.406 194.477 127.544 194.322 127.691 194.14C127.838 193.957 127.948 193.829 128.022 193.765C128.095 193.701 128.187 193.665 128.279 193.665C128.491 193.665 128.601 193.774 128.601 193.984C128.601 194.176 128.491 194.404 128.279 194.678C127.663 195.445 127.176 196.02 126.826 196.404C126.477 196.787 125.962 197.18 125.282 197.582C124.592 197.983 123.893 198.184 123.185 198.184C121.907 198.184 120.933 197.773 120.261 196.943C119.581 196.121 119.25 195.053 119.25 193.747C119.25 191.884 119.379 190.223 119.627 188.744C119.747 188.031 120.041 187.383 120.51 186.79C120.979 186.196 121.595 185.895 122.349 185.895L122.33 185.886ZM120.767 181.229C120.767 180.499 121.098 179.851 121.751 179.285C122.404 178.719 123.149 178.436 123.985 178.436C124.721 178.436 125.319 178.618 125.778 178.983C126.247 179.349 126.477 179.878 126.477 180.563C126.477 181.385 126.146 182.051 125.475 182.544C124.813 183.046 123.985 183.293 123.001 183.293C122.349 183.293 121.806 183.092 121.392 182.672C120.979 182.261 120.767 181.777 120.767 181.22V181.229Z" fill="black"/>
<path d="M127.542 200.303V199.207C127.505 198.44 127.496 197.527 127.524 196.459C127.551 195.391 127.579 194.25 127.597 193.035C127.616 191.821 127.708 190.561 127.873 189.255C128.039 187.95 128.223 186.672 128.425 185.43C128.627 184.179 128.94 183.001 129.354 181.887C129.767 180.773 130.245 179.806 130.77 178.966C131.303 178.135 131.965 177.468 132.765 176.984C133.565 176.491 134.447 176.254 135.413 176.254C136.305 176.254 136.994 176.5 137.5 177.003C138.006 177.505 138.254 178.253 138.254 179.249C138.254 180.308 137.978 181.184 137.427 181.896C136.875 182.609 136.332 182.965 135.79 182.965C135.523 182.965 135.238 182.928 134.935 182.846C134.631 182.773 134.392 182.727 134.199 182.727C133.565 182.727 132.903 184.197 132.213 187.146C131.524 190.095 131.073 192.935 130.834 195.674C131.661 195.172 132.82 194.724 134.3 194.323C135.781 193.921 137.059 193.72 138.135 193.72C138.466 193.72 138.631 193.857 138.631 194.122C138.631 194.158 137.666 194.606 135.735 195.455C133.804 196.304 132.838 196.879 132.838 197.162C132.838 197.299 133.022 197.582 133.39 198.03C133.758 198.468 134.126 199.016 134.493 199.673C134.861 200.321 135.045 200.969 135.045 201.599C135.045 202.695 134.687 203.608 133.969 204.348C133.252 205.087 132.415 205.452 131.45 205.452C130.429 205.452 129.519 204.978 128.728 204.028C127.938 203.079 127.542 201.837 127.542 200.303ZM132.636 200.96C132.636 200.696 132.572 200.422 132.434 200.139C132.296 199.856 132.167 199.636 132.029 199.463C131.891 199.29 131.671 199.043 131.367 198.733C131.055 198.413 130.852 198.203 130.76 198.084C130.76 199.737 130.816 200.924 130.935 201.663C131.045 202.403 131.275 202.768 131.597 202.768C131.919 202.768 132.176 202.595 132.36 202.239C132.544 201.882 132.636 201.453 132.636 200.96Z" fill="black"/>
<path d="M143.504 180.08C144.506 180.08 145.012 180.527 145.012 181.431C145.012 181.696 144.561 182.81 143.651 184.773C144.46 184.718 145.113 184.682 145.591 184.682C146.363 184.682 146.749 184.873 146.749 185.257C146.749 185.394 146.602 185.513 146.317 185.631C146.032 185.75 145.637 185.869 145.159 186.006C144.681 186.143 144.35 186.234 144.175 186.298C143.688 186.49 143.182 186.727 142.639 187.019L142.41 187.567C141.481 190.078 141.021 192.214 141.021 193.985C141.021 194.661 141.196 195.172 141.554 195.538C141.913 195.903 142.373 196.085 142.934 196.085C143.743 196.085 144.653 195.656 145.655 194.789C145.812 194.652 146.005 194.469 146.253 194.232C146.492 193.995 146.685 193.821 146.814 193.712C146.952 193.602 147.071 193.556 147.191 193.556C147.457 193.556 147.595 193.638 147.595 193.812C147.595 193.985 147.485 194.223 147.274 194.533C145.499 196.971 143.688 198.185 141.858 198.185C140.332 198.185 139.136 197.793 138.281 197.017C137.426 196.241 136.994 195.035 136.994 193.41C136.994 192.415 137.113 191.374 137.343 190.306C136.497 190.899 135.753 191.201 135.118 191.201C134.714 191.201 134.392 191.064 134.162 190.799C133.932 190.534 133.812 190.206 133.812 189.822C133.812 188.9 134.116 188.179 134.723 187.667C135.33 187.147 136.194 186.663 137.316 186.197C137.582 186.079 138.014 185.933 138.594 185.741L138.971 184.618C139.449 183.102 140.047 181.97 140.755 181.221C141.462 180.473 142.382 180.098 143.522 180.098L143.504 180.08Z" fill="black"/>
<path d="M150.11 193.628C150.11 194.449 150.386 195.107 150.947 195.582C151.507 196.056 152.298 196.303 153.319 196.303C154.165 196.303 155.011 196.084 155.838 195.655C156.666 195.226 157.337 194.787 157.833 194.358C158.33 193.929 158.624 193.71 158.698 193.71C158.946 193.71 159.075 193.81 159.075 194.002C159.075 194.194 158.9 194.523 158.541 194.979C158.183 195.436 157.723 195.919 157.153 196.413C156.583 196.915 155.856 197.344 154.983 197.718C154.1 198.092 153.218 198.275 152.335 198.275C150.478 198.275 149.062 197.764 148.087 196.75C147.112 195.737 146.625 194.45 146.625 192.897C146.625 191.053 147.213 189.373 148.39 187.848C149.567 186.324 151.066 185.557 152.877 185.557C153.898 185.557 154.707 185.94 155.277 186.689C155.856 187.447 156.151 188.314 156.151 189.291C156.151 190.706 155.765 191.957 154.992 193.034C154.22 194.112 153.438 194.641 152.648 194.641C152.031 194.641 151.489 194.541 151.02 194.34C150.56 194.139 150.248 193.893 150.091 193.61L150.11 193.628ZM152.142 189.282C151.673 189.282 151.232 189.647 150.809 190.377C150.386 191.108 150.174 191.884 150.174 192.706C150.79 192.532 151.36 192.176 151.884 191.628C152.408 191.08 152.666 190.523 152.666 189.948C152.666 189.51 152.491 189.291 152.142 189.291V189.282Z" fill="black"/>
<path d="M174.215 178.7C174.215 179.257 173.958 180.398 173.443 182.142C172.928 183.877 172.422 185.849 171.908 188.05C171.393 190.259 171.144 192.213 171.144 193.92C171.144 194.422 171.264 194.87 171.521 195.262C171.779 195.655 172.073 195.856 172.422 195.856C172.827 195.856 173.259 195.673 173.71 195.299C174.16 194.925 174.546 194.55 174.868 194.176C175.19 193.802 175.392 193.619 175.493 193.619C175.723 193.619 175.843 193.729 175.843 193.939C175.843 194.514 175.31 195.354 174.252 196.468C173.195 197.582 172.101 198.138 170.979 198.138C169.977 198.138 169.269 197.737 168.846 196.933C168.423 196.13 168.22 194.915 168.22 193.309C167.43 194.724 166.483 195.856 165.379 196.705C164.276 197.554 163.09 197.974 161.812 197.974C160.653 197.974 159.706 197.545 158.971 196.678C158.235 195.81 157.867 194.696 157.867 193.309C157.867 191.044 158.566 189.036 159.964 187.283C161.361 185.53 162.897 184.653 164.552 184.653C166.096 184.653 167.347 185.393 168.285 186.872C168.358 186.415 168.478 185.749 168.616 184.872C168.754 183.996 168.882 183.32 168.974 182.827C169.076 182.334 169.195 181.741 169.351 181.028C169.508 180.316 169.673 179.768 169.848 179.376C170.023 178.983 170.234 178.581 170.482 178.171C170.731 177.76 171.025 177.458 171.347 177.276C171.678 177.093 172.055 177.002 172.478 177.002C173.02 177.002 173.434 177.166 173.737 177.504C174.041 177.842 174.188 178.244 174.188 178.728L174.215 178.7ZM167.807 189.483C167.246 189.985 166.694 190.232 166.152 190.232C165.94 190.232 165.609 190.049 165.168 189.684C164.726 189.319 164.294 189.136 163.89 189.136C163.421 189.136 162.943 189.593 162.437 190.506C161.931 191.419 161.683 192.231 161.683 192.934C161.683 193.546 161.793 193.993 162.014 194.267C162.235 194.541 162.658 194.687 163.274 194.687C164.046 194.687 164.956 194.002 166.014 192.642C167.062 191.282 167.66 190.223 167.797 189.474L167.807 189.483Z" fill="black"/>
<path d="M123.287 218.371C123.867 218.371 124.317 218.672 124.63 219.266C124.952 219.859 125.08 220.544 125.025 221.311C124.814 223.612 124.097 225.867 122.883 228.067C123.287 228.524 123.811 228.761 124.446 228.761C124.759 228.761 125.117 228.679 125.531 228.506C125.945 228.332 126.184 228.25 126.239 228.25C126.331 228.25 126.414 228.277 126.487 228.323C126.551 228.369 126.579 228.433 126.561 228.506C126.542 228.77 126.23 229.072 125.632 229.4C125.034 229.729 124.474 229.893 123.949 229.893C123.232 229.893 122.625 229.702 122.129 229.318C120.639 231.5 119.058 232.596 117.375 232.596C116.465 232.596 115.766 232.377 115.279 231.948C114.782 231.519 114.35 230.88 113.964 230.03C112.474 232.048 110.994 233.053 109.532 233.053C108.64 233.053 107.932 232.532 107.399 231.5C106.866 230.469 106.544 229.327 106.415 228.077C106.286 226.826 106.167 225.694 106.056 224.653C105.946 223.612 105.79 223.101 105.597 223.101C105.459 223.101 105.33 223.082 105.201 223.055C105.073 223.028 104.962 222.964 104.852 222.881C104.742 222.799 104.705 222.671 104.723 222.525C104.778 221.777 105.137 221.11 105.799 220.526C106.452 219.941 107.215 219.649 108.089 219.649C109.633 219.649 110.47 220.471 110.608 222.124C110.626 222.37 110.654 223.247 110.691 224.744C110.727 226.241 110.819 227.447 110.948 228.35C111.086 229.263 111.297 229.72 111.583 229.72C112.125 229.72 112.677 229.108 113.238 227.876C112.907 226.744 112.805 225.557 112.916 224.306C113.035 223.101 113.431 222.087 114.102 221.284C114.782 220.48 115.619 220.078 116.621 220.078C117.357 220.078 117.872 220.334 118.184 220.855C118.497 221.375 118.607 222.051 118.534 222.9C118.396 224.205 117.725 225.456 116.502 226.67C116.428 227.456 116.584 228.25 116.98 229.063C117.375 229.866 117.798 230.268 118.239 230.268C119.15 230.268 120.042 229.483 120.934 227.912C120.143 226.397 119.839 224.662 120.032 222.708C120.152 221.503 120.501 220.48 121.09 219.64C121.678 218.809 122.405 218.389 123.278 218.389L123.287 218.371ZM116.851 222.744C116.584 222.744 116.41 223.238 116.327 224.214C116.327 224.351 116.318 224.498 116.299 224.662C116.281 224.826 116.263 224.954 116.253 225.054C116.244 225.155 116.235 225.21 116.235 225.228C116.741 224.269 117.007 223.648 117.044 223.356C117.063 223.238 117.063 223.11 117.026 222.964C116.989 222.818 116.934 222.744 116.842 222.744H116.851ZM122.092 223.484C122.019 224.041 121.991 224.689 122.037 225.438C122.543 224.077 122.828 223.009 122.901 222.242C122.975 221.53 122.956 221.174 122.846 221.174C122.497 221.174 122.248 221.941 122.092 223.475V223.484Z" fill="black"/>
<path d="M138.401 220.928C138.842 220.928 139.182 221.093 139.403 221.421C139.623 221.75 139.734 222.115 139.734 222.517C139.734 223.019 139.495 223.987 139.026 225.42C138.548 226.854 138.318 228.105 138.318 229.164C138.318 230.013 138.667 230.433 139.357 230.433C139.513 230.433 139.669 230.415 139.817 230.378C139.964 230.342 140.129 230.268 140.295 230.177C140.46 230.077 140.598 229.995 140.718 229.922C140.837 229.848 140.975 229.73 141.15 229.575C141.324 229.419 141.444 229.319 141.508 229.255C141.573 229.2 141.692 229.082 141.867 228.899C142.042 228.716 142.134 228.616 142.152 228.598C142.382 228.369 142.575 228.251 142.731 228.251C142.943 228.251 143.053 228.36 143.053 228.57C143.053 228.689 142.943 228.881 142.731 229.145C142.271 229.739 141.867 230.223 141.518 230.588C141.168 230.953 140.653 231.318 139.982 231.693C139.302 232.067 138.612 232.25 137.895 232.25C137.242 232.25 136.654 232.012 136.139 231.528C135.624 231.054 135.375 230.369 135.375 229.483C135.375 228.598 135.458 227.885 135.633 227.265C134.778 228.662 133.803 229.894 132.691 230.962C131.578 232.031 130.438 232.56 129.261 232.56C128.24 232.56 127.394 232.149 126.742 231.337C126.089 230.524 125.758 229.611 125.758 228.616C125.758 226.26 126.503 224.206 127.992 222.471C129.482 220.736 131.1 219.869 132.856 219.869C134.612 219.869 135.835 220.618 136.534 222.115C136.865 221.33 137.481 220.937 138.391 220.937L138.401 220.928ZM135.017 225.53C134.3 224.626 133.592 224.179 132.875 224.179C132.102 224.179 131.376 224.599 130.686 225.448C129.997 226.288 129.656 227.146 129.656 228.004C129.656 228.333 129.767 228.616 129.987 228.853C130.208 229.091 130.53 229.209 130.953 229.209C131.633 229.209 132.35 228.826 133.123 228.059C133.895 227.292 134.52 226.452 135.008 225.53H135.017Z" fill="black"/>
<path d="M147.538 211.059C148.255 211.059 148.742 211.259 149 211.652C149.257 212.045 149.395 212.702 149.395 213.624C149.395 214.318 148.862 216.692 147.805 220.746C146.738 224.8 146.214 227.53 146.214 228.926C146.214 229.465 146.278 229.858 146.416 230.123C146.554 230.378 146.811 230.515 147.198 230.515C147.814 230.515 148.421 230.333 149.009 229.967C149.597 229.602 150.076 229.237 150.425 228.863C150.784 228.488 150.995 228.306 151.078 228.306C151.216 228.306 151.28 228.37 151.28 228.507C151.28 228.817 151.05 229.301 150.6 229.976C150.149 230.652 149.487 231.3 148.614 231.949C147.749 232.588 146.867 232.907 145.975 232.907C144.871 232.907 143.989 232.506 143.308 231.702C142.628 230.899 142.297 229.83 142.297 228.507C142.297 223.193 142.757 218.701 143.685 215.012C143.952 213.935 144.476 213.012 145.239 212.236C146.002 211.46 146.765 211.068 147.538 211.068V211.059Z" fill="black"/>
<path d="M155.991 211.059C156.708 211.059 157.195 211.259 157.453 211.652C157.71 212.045 157.848 212.702 157.848 213.624C157.848 214.318 157.315 216.692 156.258 220.746C155.191 224.8 154.667 227.53 154.667 228.926C154.667 229.465 154.731 229.858 154.869 230.123C155.007 230.378 155.265 230.515 155.651 230.515C156.267 230.515 156.874 230.333 157.462 229.967C158.051 229.602 158.529 229.237 158.878 228.863C159.237 228.488 159.448 228.306 159.531 228.306C159.669 228.306 159.733 228.37 159.733 228.507C159.733 228.817 159.503 229.301 159.053 229.976C158.602 230.652 157.94 231.3 157.067 231.949C156.202 232.588 155.32 232.907 154.428 232.907C153.325 232.907 152.442 232.506 151.761 231.702C151.081 230.899 150.75 229.83 150.75 228.507C150.75 223.193 151.21 218.701 152.138 215.012C152.405 213.935 152.929 213.012 153.692 212.236C154.455 211.46 155.219 211.068 155.991 211.068V211.059Z" fill="black"/>
<path d="M162.485 228.149C162.485 228.971 162.761 229.628 163.322 230.103C163.882 230.578 164.673 230.824 165.694 230.824C166.54 230.824 167.386 230.605 168.213 230.176C169.041 229.747 169.712 229.309 170.208 228.88C170.705 228.451 170.999 228.231 171.073 228.231C171.321 228.231 171.45 228.332 171.45 228.524C171.45 228.715 171.275 229.044 170.916 229.501C170.558 229.957 170.098 230.441 169.528 230.934C168.958 231.436 168.231 231.865 167.358 232.24C166.475 232.614 165.593 232.797 164.71 232.797C162.853 232.797 161.437 232.285 160.462 231.272C159.487 230.258 159 228.971 159 227.419C159 225.575 159.588 223.895 160.765 222.37C161.942 220.845 163.441 220.078 165.252 220.078C166.273 220.078 167.082 220.462 167.652 221.21C168.231 221.968 168.526 222.835 168.526 223.812C168.526 225.228 168.14 226.478 167.367 227.556C166.595 228.633 165.813 229.163 165.023 229.163C164.406 229.163 163.864 229.062 163.395 228.861C162.935 228.661 162.623 228.414 162.466 228.131L162.485 228.149ZM164.508 223.803C164.039 223.803 163.597 224.168 163.174 224.899C162.751 225.629 162.54 226.405 162.54 227.227C163.156 227.054 163.726 226.698 164.25 226.15C164.774 225.602 165.032 225.045 165.032 224.47C165.032 224.032 164.857 223.812 164.508 223.812V223.803Z" fill="black"/>
<path d="M179.574 214.6C180.576 214.6 181.082 215.047 181.082 215.951C181.082 216.216 180.631 217.33 179.721 219.293C180.53 219.238 181.183 219.201 181.661 219.201C182.434 219.201 182.82 219.393 182.82 219.776C182.82 219.913 182.673 220.032 182.388 220.151C182.103 220.27 181.707 220.388 181.229 220.525C180.751 220.662 180.42 220.753 180.245 220.817C179.758 221.009 179.252 221.246 178.71 221.539L178.48 222.086C177.551 224.597 177.091 226.734 177.091 228.505C177.091 229.181 177.266 229.692 177.625 230.057C177.983 230.422 178.443 230.605 179.004 230.605C179.813 230.605 180.723 230.176 181.726 229.308C181.882 229.171 182.075 228.989 182.323 228.751C182.562 228.514 182.755 228.341 182.884 228.231C183.022 228.121 183.142 228.076 183.261 228.076C183.528 228.076 183.666 228.158 183.666 228.332C183.666 228.505 183.555 228.742 183.344 229.053C181.569 231.491 179.758 232.705 177.928 232.705C176.402 232.705 175.207 232.312 174.351 231.536C173.496 230.76 173.064 229.555 173.064 227.93C173.064 226.935 173.184 225.894 173.414 224.825C172.568 225.419 171.823 225.72 171.188 225.72C170.784 225.72 170.462 225.583 170.232 225.319C170.002 225.054 169.883 224.725 169.883 224.342C169.883 223.419 170.186 222.698 170.793 222.187C171.4 221.666 172.264 221.183 173.386 220.717C173.653 220.598 174.085 220.452 174.664 220.26L175.041 219.137C175.519 217.622 176.117 216.49 176.825 215.741C177.533 214.992 178.452 214.618 179.592 214.618L179.574 214.6Z" fill="black"/>
<path d="M204.643 171.707C204.755 176.364 206.854 178.824 210.355 179.733C206.286 179.683 203.608 181.582 202.33 185.445C202.346 180.525 200.336 177.975 196.617 177.419C200.407 177.383 203.321 175.879 204.643 171.707Z" fill="#FFFCE7"/>
<path d="M155.416 74.9688C155.528 79.6257 157.627 82.0857 161.129 82.9944C157.059 82.9445 154.382 84.8436 153.103 88.7068C153.12 83.7867 151.11 81.2366 147.391 80.6812C151.18 80.6451 154.095 79.1409 155.416 74.9688Z" fill="#FFD101"/>
<path d="M144.246 151.1C144.33 154.592 145.904 156.437 148.53 157.119C145.478 157.081 143.47 158.506 142.511 161.403C142.523 157.713 141.016 155.801 138.227 155.384C141.069 155.357 143.255 154.229 144.246 151.1Z" fill="black"/>
<path d="M150.597 144.062C151.971 142.878 152.991 141.267 153.583 139.142C154.123 141.452 155.048 143.233 156.326 144.537C157.49 145.723 158.93 146.5 160.599 146.927C158.68 147.367 157.082 148.166 155.817 149.335C154.516 150.539 153.583 152.12 153.011 154.066C152.523 151.618 151.638 149.741 150.364 148.416C149.263 147.27 147.887 146.555 146.266 146.236C147.926 145.8 149.391 145.101 150.597 144.062Z" stroke="#FFFCEF" stroke-width="0.572418"/>
<path d="M40.3118 436.909C42.5744 451.315 50.1456 458.081 61.467 459.453C48.7225 460.981 41.1305 467.982 38.7191 480.5C36.7512 465.224 29.4203 458.142 17.5638 457.956C29.3983 456.277 37.8929 450.403 40.3118 436.909Z" fill="#FEB800" fill-opacity="0.53"/>
<path d="M40.3118 436.909C42.5744 451.315 50.1456 458.081 61.467 459.453C48.7225 460.981 41.1305 467.982 38.7191 480.5C36.7512 465.224 29.4203 458.142 17.5638 457.956C29.3983 456.277 37.8929 450.403 40.3118 436.909Z" fill="white" fill-opacity="0.11"/>
<path d="M39.89 448.39C40.9606 455.207 44.5434 458.409 49.9009 459.058C43.87 459.781 40.2774 463.094 39.1363 469.018C38.205 461.789 34.7359 458.438 29.1254 458.35C34.7256 457.555 38.7453 454.776 39.89 448.39Z" fill="#FEB800"/>
<path d="M81.6394 336.122C81.2486 336.122 80.9311 336.03 80.6868 335.847C80.4426 335.652 80.2472 335.359 80.1007 334.968L76.4006 324.564C76.2418 324.1 76.2724 323.703 76.4922 323.373C76.7242 323.043 77.1211 322.878 77.6828 322.878C78.0736 322.878 78.3728 322.97 78.5803 323.153C78.8002 323.336 78.9772 323.623 79.1116 324.014L82.1339 333.008H81.3463L84.5335 324.032C84.68 323.642 84.8571 323.355 85.0647 323.171C85.2845 322.976 85.5715 322.878 85.9256 322.878C86.2675 322.878 86.5423 322.976 86.7499 323.171C86.9575 323.355 87.1346 323.648 87.2811 324.051L90.3218 333.008H89.6441L92.7214 324.014C92.8435 323.636 93.0145 323.355 93.2343 323.171C93.4541 322.976 93.7533 322.878 94.1318 322.878C94.6081 322.878 94.9561 323.043 95.1759 323.373C95.3957 323.703 95.4201 324.1 95.2492 324.564L91.5124 334.986C91.3781 335.365 91.1949 335.652 90.9629 335.847C90.7309 336.03 90.4134 336.122 90.0104 336.122C89.6196 336.122 89.3082 336.03 89.0762 335.847C88.8442 335.652 88.6549 335.359 88.5084 334.968L85.6142 326.78H86.0538L83.1231 334.986C82.9765 335.365 82.7872 335.652 82.5552 335.847C82.3354 336.03 82.0301 336.122 81.6394 336.122ZM100.628 336.159C99.5659 336.159 98.6501 335.969 97.8807 335.591C97.1236 335.2 96.5374 334.656 96.1223 333.96C95.7193 333.252 95.5178 332.422 95.5178 331.469C95.5178 330.541 95.7132 329.729 96.1039 329.033C96.4947 328.325 97.0381 327.775 97.7342 327.384C98.4425 326.982 99.2423 326.78 100.134 326.78C100.781 326.78 101.367 326.89 101.892 327.11C102.417 327.317 102.869 327.623 103.248 328.026C103.626 328.416 103.913 328.899 104.109 329.473C104.304 330.034 104.402 330.663 104.402 331.359C104.402 331.591 104.328 331.768 104.182 331.891C104.035 332 103.822 332.055 103.541 332.055H97.7891V330.627H102.405L102.112 330.883C102.112 330.382 102.039 329.967 101.892 329.638C101.746 329.296 101.532 329.039 101.251 328.868C100.982 328.697 100.647 328.612 100.244 328.612C99.7918 328.612 99.4072 328.716 99.0897 328.923C98.7722 329.131 98.5279 329.43 98.357 329.821C98.186 330.211 98.1005 330.682 98.1005 331.231V331.378C98.1005 332.306 98.3142 332.99 98.7416 333.429C99.1813 333.869 99.8285 334.089 100.683 334.089C100.976 334.089 101.312 334.052 101.691 333.979C102.069 333.905 102.423 333.789 102.753 333.631C103.034 333.496 103.284 333.454 103.504 333.503C103.724 333.539 103.895 333.637 104.017 333.796C104.139 333.954 104.206 334.138 104.219 334.345C104.243 334.553 104.2 334.76 104.09 334.968C103.98 335.163 103.797 335.328 103.541 335.462C103.126 335.694 102.655 335.865 102.13 335.975C101.617 336.097 101.117 336.159 100.628 336.159ZM109.253 336.159C108.166 336.159 107.354 335.859 106.816 335.261C106.279 334.65 106.01 333.747 106.01 332.55V324.289C106.01 323.825 106.127 323.477 106.359 323.245C106.603 323.001 106.951 322.878 107.403 322.878C107.842 322.878 108.178 323.001 108.41 323.245C108.654 323.477 108.776 323.825 108.776 324.289V332.44C108.776 332.941 108.88 333.313 109.088 333.557C109.308 333.789 109.595 333.905 109.949 333.905C110.046 333.905 110.138 333.899 110.223 333.887C110.309 333.875 110.401 333.869 110.498 333.869C110.694 333.844 110.828 333.905 110.901 334.052C110.987 334.186 111.029 334.461 111.029 334.876C111.029 335.243 110.956 335.524 110.81 335.719C110.663 335.902 110.437 336.024 110.132 336.085C110.01 336.097 109.869 336.11 109.711 336.122C109.552 336.146 109.399 336.159 109.253 336.159ZM116.399 336.159C115.422 336.159 114.567 335.969 113.834 335.591C113.114 335.2 112.558 334.65 112.167 333.942C111.777 333.234 111.581 332.397 111.581 331.433C111.581 330.712 111.691 330.065 111.911 329.491C112.131 328.917 112.448 328.429 112.863 328.026C113.291 327.623 113.804 327.317 114.402 327.11C115.001 326.89 115.666 326.78 116.399 326.78C116.777 326.78 117.18 326.829 117.608 326.927C118.035 327.012 118.456 327.165 118.872 327.384C119.116 327.494 119.281 327.653 119.366 327.861C119.464 328.056 119.5 328.264 119.476 328.484C119.452 328.691 119.372 328.88 119.238 329.051C119.116 329.21 118.957 329.32 118.762 329.381C118.566 329.43 118.346 329.393 118.102 329.271C117.87 329.137 117.626 329.039 117.37 328.978C117.125 328.917 116.893 328.887 116.674 328.887C116.307 328.887 115.984 328.948 115.703 329.07C115.422 329.18 115.184 329.344 114.988 329.564C114.805 329.772 114.659 330.034 114.549 330.352C114.451 330.669 114.402 331.036 114.402 331.451C114.402 332.257 114.598 332.892 114.988 333.356C115.391 333.808 115.953 334.034 116.674 334.034C116.893 334.034 117.125 334.009 117.37 333.96C117.614 333.899 117.858 333.802 118.102 333.667C118.346 333.545 118.566 333.515 118.762 333.576C118.957 333.637 119.11 333.753 119.22 333.924C119.342 334.083 119.409 334.272 119.421 334.492C119.446 334.699 119.409 334.907 119.311 335.114C119.226 335.31 119.067 335.462 118.835 335.572C118.42 335.78 118.005 335.927 117.589 336.012C117.174 336.11 116.777 336.159 116.399 336.159ZM124.912 336.159C123.947 336.159 123.105 335.969 122.384 335.591C121.676 335.212 121.127 334.669 120.736 333.96C120.345 333.252 120.15 332.416 120.15 331.451C120.15 330.73 120.26 330.083 120.479 329.509C120.699 328.935 121.017 328.447 121.432 328.044C121.859 327.629 122.366 327.317 122.952 327.11C123.538 326.89 124.192 326.78 124.912 326.78C125.877 326.78 126.713 326.969 127.422 327.348C128.142 327.726 128.698 328.264 129.089 328.96C129.492 329.656 129.693 330.486 129.693 331.451C129.693 332.184 129.577 332.837 129.345 333.411C129.125 333.985 128.808 334.479 128.392 334.895C127.977 335.31 127.471 335.627 126.872 335.847C126.286 336.055 125.633 336.159 124.912 336.159ZM124.912 334.089C125.315 334.089 125.663 333.991 125.956 333.796C126.249 333.6 126.481 333.313 126.652 332.935C126.823 332.544 126.909 332.049 126.909 331.451C126.909 330.56 126.726 329.906 126.359 329.491C125.993 329.064 125.511 328.85 124.912 328.85C124.521 328.85 124.173 328.941 123.868 329.125C123.575 329.308 123.343 329.595 123.172 329.986C123.013 330.364 122.934 330.853 122.934 331.451C122.934 332.342 123.117 333.008 123.483 333.448C123.85 333.875 124.326 334.089 124.912 334.089ZM132.805 336.122C132.353 336.122 132.005 336 131.76 335.756C131.528 335.511 131.412 335.163 131.412 334.711V328.209C131.412 327.757 131.528 327.415 131.76 327.183C132.005 326.939 132.341 326.817 132.768 326.817C133.208 326.817 133.543 326.939 133.775 327.183C134.007 327.415 134.123 327.757 134.123 328.209V329.381L133.922 328.648C134.166 328.087 134.545 327.635 135.058 327.293C135.57 326.951 136.175 326.78 136.871 326.78C137.567 326.78 138.147 326.945 138.611 327.275C139.075 327.604 139.405 328.111 139.6 328.795H139.344C139.613 328.172 140.022 327.684 140.571 327.33C141.133 326.963 141.774 326.78 142.494 326.78C143.191 326.78 143.758 326.92 144.198 327.201C144.65 327.47 144.986 327.885 145.205 328.447C145.425 328.996 145.535 329.699 145.535 330.553V334.711C145.535 335.163 145.413 335.511 145.169 335.756C144.937 336 144.601 336.122 144.161 336.122C143.709 336.122 143.361 336 143.117 335.756C142.885 335.511 142.769 335.163 142.769 334.711V330.645C142.769 330.047 142.672 329.613 142.476 329.344C142.293 329.064 141.975 328.923 141.524 328.923C140.999 328.923 140.589 329.106 140.296 329.473C140.003 329.839 139.857 330.358 139.857 331.03V334.711C139.857 335.163 139.735 335.511 139.49 335.756C139.258 336 138.923 336.122 138.483 336.122C138.043 336.122 137.701 336 137.457 335.756C137.213 335.511 137.091 335.163 137.091 334.711V330.645C137.091 330.047 136.993 329.613 136.798 329.344C136.615 329.064 136.297 328.923 135.845 328.923C135.32 328.923 134.911 329.106 134.618 329.473C134.325 329.839 134.178 330.358 134.178 331.03V334.711C134.178 335.652 133.72 336.122 132.805 336.122ZM152.325 336.159C151.262 336.159 150.347 335.969 149.577 335.591C148.82 335.2 148.234 334.656 147.819 333.96C147.416 333.252 147.214 332.422 147.214 331.469C147.214 330.541 147.41 329.729 147.8 329.033C148.191 328.325 148.735 327.775 149.431 327.384C150.139 326.982 150.939 326.78 151.83 326.78C152.478 326.78 153.064 326.89 153.589 327.11C154.114 327.317 154.566 327.623 154.944 328.026C155.323 328.416 155.61 328.899 155.805 329.473C156.001 330.034 156.098 330.663 156.098 331.359C156.098 331.591 156.025 331.768 155.878 331.891C155.732 332 155.518 332.055 155.237 332.055H149.486V330.627H154.102L153.809 330.883C153.809 330.382 153.735 329.967 153.589 329.638C153.442 329.296 153.229 329.039 152.948 328.868C152.679 328.697 152.343 328.612 151.94 328.612C151.488 328.612 151.104 328.716 150.786 328.923C150.469 329.131 150.224 329.43 150.054 329.821C149.883 330.211 149.797 330.682 149.797 331.231V331.378C149.797 332.306 150.011 332.99 150.438 333.429C150.878 333.869 151.525 334.089 152.38 334.089C152.673 334.089 153.009 334.052 153.387 333.979C153.766 333.905 154.12 333.789 154.45 333.631C154.731 333.496 154.981 333.454 155.201 333.503C155.421 333.539 155.591 333.637 155.714 333.796C155.836 333.954 155.903 334.138 155.915 334.345C155.939 334.553 155.897 334.76 155.787 334.968C155.677 335.163 155.494 335.328 155.237 335.462C154.822 335.694 154.352 335.865 153.827 335.975C153.314 336.097 152.813 336.159 152.325 336.159ZM159.044 331.982C158.763 331.982 158.544 331.897 158.385 331.726C158.226 331.555 158.128 331.304 158.092 330.975L157.506 324.71C157.444 324.161 157.548 323.721 157.817 323.391C158.086 323.049 158.495 322.878 159.044 322.878C159.569 322.878 159.966 323.049 160.235 323.391C160.503 323.721 160.607 324.161 160.546 324.71L159.96 330.975C159.923 331.304 159.826 331.555 159.667 331.726C159.52 331.897 159.313 331.982 159.044 331.982ZM159.044 336.049C158.556 336.049 158.165 335.902 157.872 335.609C157.591 335.316 157.451 334.937 157.451 334.473C157.451 334.021 157.591 333.655 157.872 333.374C158.165 333.081 158.556 332.935 159.044 332.935C159.533 332.935 159.911 333.081 160.18 333.374C160.461 333.655 160.601 334.021 160.601 334.473C160.601 334.937 160.461 335.316 160.18 335.609C159.911 335.902 159.533 336.049 159.044 336.049Z" fill="black"/>
<path d="M42.4994 360.625C42.1945 360.625 41.8961 360.599 41.6042 360.547C41.3122 360.495 41.0398 360.42 40.7868 360.323C40.5402 360.226 40.3164 360.102 40.1153 359.953C40.0375 359.895 39.9823 359.83 39.9499 359.759C39.9239 359.681 39.9174 359.606 39.9304 359.535C39.9499 359.457 39.9823 359.392 40.0277 359.34C40.0796 359.288 40.1413 359.259 40.2126 359.253C40.284 359.246 40.3618 359.269 40.4462 359.321C40.7381 359.528 41.0495 359.681 41.3804 359.778C41.7112 359.869 42.0842 359.914 42.4994 359.914C43.0833 359.914 43.5147 359.807 43.7937 359.593C44.0791 359.373 44.2218 359.084 44.2218 358.727C44.2218 358.435 44.118 358.208 43.9104 358.046C43.7093 357.877 43.3687 357.744 42.8887 357.647L41.8766 357.443C41.2668 357.313 40.8095 357.102 40.5046 356.81C40.2061 356.512 40.0569 356.116 40.0569 355.623C40.0569 355.318 40.1186 355.042 40.2418 354.796C40.3651 354.543 40.537 354.329 40.7576 354.153C40.9781 353.972 41.2409 353.832 41.5458 353.735C41.8507 353.638 42.188 353.589 42.5578 353.589C42.9665 353.589 43.346 353.647 43.6964 353.764C44.0532 353.875 44.3743 354.043 44.6597 354.27C44.7311 354.329 44.7798 354.397 44.8057 354.475C44.8317 354.546 44.8349 354.617 44.8154 354.689C44.796 354.754 44.7603 354.809 44.7084 354.854C44.663 354.9 44.6014 354.926 44.5235 354.932C44.4521 354.938 44.3711 354.913 44.2802 354.854C44.0207 354.66 43.7515 354.52 43.4725 354.436C43.1936 354.345 42.8854 354.299 42.5481 354.299C42.2043 354.299 41.9058 354.351 41.6528 354.455C41.4063 354.559 41.2117 354.711 41.069 354.913C40.9327 355.107 40.8646 355.334 40.8646 355.594C40.8646 355.905 40.9587 356.152 41.1468 356.333C41.3414 356.515 41.6561 356.648 42.0907 356.732L43.1028 356.946C43.758 357.083 44.2413 357.29 44.5527 357.569C44.8706 357.842 45.0295 358.215 45.0295 358.688C45.0295 358.974 44.9711 359.236 44.8544 359.476C44.7376 359.716 44.5689 359.924 44.3483 360.099C44.1278 360.268 43.8618 360.398 43.5504 360.488C43.239 360.579 42.8887 360.625 42.4994 360.625ZM48.2917 360.625C47.7922 360.625 47.3608 360.527 46.9975 360.333C46.6407 360.132 46.3617 359.849 46.1606 359.486C45.966 359.123 45.8687 358.688 45.8687 358.182C45.8687 357.689 45.966 357.261 46.1606 356.898C46.3552 356.528 46.6212 356.239 46.9586 356.032C47.3024 355.824 47.6981 355.72 48.1458 355.72C48.4636 355.72 48.7491 355.775 49.0021 355.886C49.2551 355.989 49.4692 356.142 49.6444 356.343C49.826 356.544 49.9622 356.787 50.0531 357.073C50.1504 357.358 50.199 357.679 50.199 358.036C50.199 358.14 50.1698 358.218 50.1114 358.27C50.0531 358.315 49.9687 358.338 49.8584 358.338H46.472V357.822H49.6735L49.5178 357.949C49.5178 357.598 49.4659 357.303 49.3621 357.063C49.2584 356.817 49.1059 356.628 48.9048 356.499C48.7102 356.369 48.4636 356.304 48.1652 356.304C47.8344 356.304 47.5522 356.382 47.3186 356.538C47.0916 356.687 46.9196 356.898 46.8029 357.17C46.6861 357.436 46.6277 357.748 46.6277 358.104V358.163C46.6277 358.76 46.7704 359.214 47.0559 359.525C47.3478 359.836 47.7598 359.992 48.2917 359.992C48.5123 359.992 48.7296 359.963 48.9437 359.905C49.1643 359.846 49.3784 359.749 49.586 359.613C49.6768 359.554 49.7579 359.528 49.8292 359.535C49.9071 359.535 49.9687 359.558 50.0141 359.603C50.0595 359.642 50.0887 359.694 50.1017 359.759C50.1212 359.817 50.1147 359.882 50.0823 359.953C50.0563 360.025 50.0012 360.086 49.9168 360.138C49.7027 360.294 49.4497 360.414 49.1578 360.498C48.8659 360.583 48.5772 360.625 48.2917 360.625ZM53.2373 360.625C52.8676 360.625 52.5562 360.56 52.3031 360.43C52.0566 360.294 51.8717 360.099 51.7485 359.846C51.6252 359.587 51.5636 359.272 51.5636 358.902V356.421H50.9116C50.8013 356.421 50.717 356.395 50.6586 356.343C50.6002 356.285 50.571 356.207 50.571 356.109C50.571 356.012 50.6002 355.938 50.6586 355.886C50.717 355.834 50.8013 355.808 50.9116 355.808H51.5636V354.689C51.5636 354.559 51.5993 354.462 51.6706 354.397C51.742 354.325 51.8393 354.29 51.9626 354.29C52.0858 354.29 52.1799 354.325 52.2448 354.397C52.3161 354.462 52.3518 354.559 52.3518 354.689V355.808H53.5779C53.6882 355.808 53.7725 355.834 53.8309 355.886C53.8893 355.938 53.9185 356.012 53.9185 356.109C53.9185 356.207 53.8893 356.285 53.8309 356.343C53.7725 356.395 53.6882 356.421 53.5779 356.421H52.3518V358.824C52.3518 359.194 52.4297 359.476 52.5854 359.671C52.741 359.859 52.9941 359.953 53.3444 359.953C53.4676 359.953 53.5714 359.94 53.6558 359.914C53.7466 359.888 53.8212 359.875 53.8796 359.875C53.938 359.869 53.9866 359.888 54.0256 359.934C54.0645 359.979 54.0839 360.057 54.0839 360.167C54.0839 360.245 54.0677 360.317 54.0353 360.381C54.0093 360.446 53.9607 360.492 53.8893 360.518C53.8115 360.544 53.7077 360.566 53.5779 360.586C53.4547 360.612 53.3411 360.625 53.2373 360.625ZM59.4402 360.605C59.3169 360.605 59.2196 360.57 59.1482 360.498C59.0769 360.42 59.0412 360.317 59.0412 360.187V354.368H56.8517C56.7349 354.368 56.6441 354.335 56.5792 354.27C56.5143 354.205 56.4819 354.121 56.4819 354.017C56.4819 353.907 56.5143 353.823 56.5792 353.764C56.6441 353.706 56.7349 353.677 56.8517 353.677H62.0384C62.1551 353.677 62.246 353.706 62.3108 353.764C62.3757 353.823 62.4082 353.907 62.4082 354.017C62.4082 354.128 62.3757 354.215 62.3108 354.28C62.246 354.338 62.1551 354.368 62.0384 354.368H59.8489V360.187C59.8489 360.317 59.8132 360.42 59.7418 360.498C59.677 360.57 59.5764 360.605 59.4402 360.605ZM63.8522 360.625C63.5278 360.625 63.2359 360.563 62.9764 360.44C62.7233 360.31 62.5222 360.135 62.373 359.914C62.2238 359.694 62.1492 359.447 62.1492 359.175C62.1492 358.824 62.2368 358.549 62.412 358.348C62.5936 358.146 62.8888 358.004 63.2975 357.919C63.7127 357.835 64.2771 357.793 64.9907 357.793H65.4286V358.309H65.0004C64.4749 358.309 64.0598 358.335 63.7548 358.387C63.4564 358.432 63.2456 358.513 63.1223 358.63C63.0056 358.747 62.9472 358.912 62.9472 359.126C62.9472 359.392 63.038 359.609 63.2196 359.778C63.4078 359.947 63.6608 360.031 63.9787 360.031C64.2382 360.031 64.4652 359.969 64.6598 359.846C64.861 359.723 65.0166 359.554 65.1269 359.34C65.2437 359.126 65.3021 358.88 65.3021 358.601V357.491C65.3021 357.089 65.221 356.8 65.0588 356.625C64.8966 356.444 64.6306 356.353 64.2609 356.353C64.0338 356.353 63.8067 356.382 63.5797 356.44C63.3526 356.499 63.1126 356.593 62.8596 356.723C62.7688 356.768 62.6909 356.784 62.626 356.771C62.5612 356.752 62.5093 356.716 62.4703 356.664C62.4314 356.612 62.4087 356.554 62.4022 356.489C62.3957 356.418 62.4087 356.349 62.4411 356.285C62.4801 356.22 62.5385 356.168 62.6163 356.129C62.9018 355.986 63.184 355.882 63.4629 355.818C63.7419 355.753 64.0079 355.72 64.2609 355.72C64.6696 355.72 65.0069 355.788 65.2729 355.925C65.5389 356.054 65.7368 356.255 65.8665 356.528C65.9962 356.794 66.0611 357.138 66.0611 357.559V360.197C66.0611 360.326 66.0287 360.427 65.9638 360.498C65.9054 360.57 65.8178 360.605 65.7011 360.605C65.5778 360.605 65.4837 360.57 65.4189 360.498C65.354 360.427 65.3216 360.326 65.3216 360.197V359.437H65.4091C65.3572 359.684 65.2567 359.895 65.1075 360.07C64.9647 360.245 64.7863 360.381 64.5723 360.479C64.3582 360.576 64.1181 360.625 63.8522 360.625ZM69.1193 360.625C68.8274 360.625 68.5322 360.589 68.2338 360.518C67.9419 360.446 67.6694 360.323 67.4164 360.148C67.3515 360.102 67.3061 360.051 67.2802 359.992C67.2542 359.927 67.2445 359.866 67.251 359.807C67.264 359.742 67.2899 359.687 67.3288 359.642C67.3742 359.596 67.4261 359.57 67.4845 359.564C67.5494 359.551 67.6208 359.564 67.6986 359.603C67.9516 359.759 68.1949 359.869 68.4284 359.934C68.6685 359.992 68.9053 360.021 69.1388 360.021C69.5086 360.021 69.7876 359.953 69.9757 359.817C70.1638 359.681 70.2579 359.496 70.2579 359.262C70.2579 359.081 70.1963 358.938 70.073 358.834C69.9497 358.724 69.7551 358.64 69.4891 358.581L68.6036 358.387C68.1949 358.302 67.89 358.156 67.6889 357.949C67.4943 357.741 67.3969 357.472 67.3969 357.141C67.3969 356.849 67.4715 356.599 67.6208 356.392C67.7765 356.178 67.9938 356.012 68.2727 355.895C68.5517 355.779 68.8761 355.72 69.2459 355.72C69.5313 355.72 69.8005 355.759 70.0535 355.837C70.313 355.908 70.5466 356.025 70.7542 356.187C70.8191 356.233 70.8612 356.288 70.8807 356.353C70.9066 356.411 70.9099 356.473 70.8904 356.538C70.8774 356.596 70.8482 356.648 70.8028 356.693C70.7574 356.732 70.7023 356.755 70.6374 356.761C70.5725 356.768 70.5044 356.748 70.433 356.703C70.2384 356.573 70.0406 356.479 69.8395 356.421C69.6383 356.356 69.4405 356.324 69.2459 356.324C68.8826 356.324 68.6068 356.395 68.4187 356.538C68.2306 356.68 68.1365 356.868 68.1365 357.102C68.1365 357.284 68.1949 357.433 68.3117 357.55C68.4284 357.666 68.6101 357.751 68.8566 357.803L69.7421 357.988C70.1638 358.078 70.4785 358.224 70.6861 358.425C70.9001 358.62 71.0072 358.886 71.0072 359.223C71.0072 359.652 70.8353 359.992 70.4914 360.245C70.1476 360.498 69.6902 360.625 69.1193 360.625ZM72.5977 360.605C72.4679 360.605 72.3706 360.57 72.3058 360.498C72.2409 360.427 72.2084 360.326 72.2084 360.197V354.008C72.2084 353.878 72.2409 353.78 72.3058 353.716C72.3706 353.644 72.4679 353.609 72.5977 353.609C72.7209 353.609 72.8183 353.644 72.8896 353.716C72.961 353.78 72.9967 353.878 72.9967 354.008V357.91H73.0161L75.011 356.002C75.1018 355.918 75.1797 355.853 75.2446 355.808C75.3159 355.762 75.41 355.74 75.5268 355.74C75.6306 355.74 75.7116 355.769 75.77 355.827C75.8284 355.879 75.8544 355.947 75.8479 356.032C75.8479 356.109 75.809 356.194 75.7311 356.285L73.6097 358.299V357.871L75.916 360.041C76.0068 360.132 76.0522 360.219 76.0522 360.304C76.0522 360.388 76.0198 360.459 75.9549 360.518C75.8965 360.576 75.8187 360.605 75.7214 360.605C75.6046 360.605 75.5105 360.583 75.4392 360.537C75.3678 360.485 75.2802 360.411 75.1764 360.313L73.0161 358.318H72.9967V360.197C72.9967 360.469 72.8637 360.605 72.5977 360.605ZM78.5844 360.625C78.2924 360.625 77.9973 360.589 77.6988 360.518C77.4069 360.446 77.1344 360.323 76.8814 360.148C76.8166 360.102 76.7711 360.051 76.7452 359.992C76.7192 359.927 76.7095 359.866 76.716 359.807C76.729 359.742 76.7549 359.687 76.7939 359.642C76.8393 359.596 76.8912 359.57 76.9495 359.564C77.0144 359.551 77.0858 359.564 77.1636 359.603C77.4166 359.759 77.6599 359.869 77.8935 359.934C78.1335 359.992 78.3703 360.021 78.6038 360.021C78.9736 360.021 79.2526 359.953 79.4407 359.817C79.6288 359.681 79.7229 359.496 79.7229 359.262C79.7229 359.081 79.6613 358.938 79.538 358.834C79.4148 358.724 79.2201 358.64 78.9542 358.581L78.0686 358.387C77.6599 358.302 77.355 358.156 77.1539 357.949C76.9593 357.741 76.862 357.472 76.862 357.141C76.862 356.849 76.9366 356.599 77.0858 356.392C77.2415 356.178 77.4588 356.012 77.7378 355.895C78.0167 355.779 78.3411 355.72 78.7109 355.72C78.9963 355.72 79.2656 355.759 79.5186 355.837C79.7781 355.908 80.0116 356.025 80.2192 356.187C80.2841 356.233 80.3262 356.288 80.3457 356.353C80.3717 356.411 80.3749 356.473 80.3554 356.538C80.3425 356.596 80.3133 356.648 80.2679 356.693C80.2224 356.732 80.1673 356.755 80.1024 356.761C80.0376 356.768 79.9694 356.748 79.8981 356.703C79.7035 356.573 79.5056 356.479 79.3045 356.421C79.1034 356.356 78.9055 356.324 78.7109 356.324C78.3476 356.324 78.0719 356.395 77.8837 356.538C77.6956 356.68 77.6015 356.868 77.6015 357.102C77.6015 357.284 77.6599 357.433 77.7767 357.55C77.8935 357.666 78.0751 357.751 78.3216 357.803L79.2072 357.988C79.6288 358.078 79.9435 358.224 80.1511 358.425C80.3652 358.62 80.4722 358.886 80.4722 359.223C80.4722 359.652 80.3003 359.992 79.9565 360.245C79.6126 360.498 79.1553 360.625 78.5844 360.625ZM82.093 361.462C82.0282 361.546 81.9601 361.595 81.8887 361.608C81.8173 361.621 81.7557 361.608 81.7038 361.569C81.6519 361.53 81.6227 361.475 81.6162 361.403C81.6162 361.332 81.6487 361.254 81.7135 361.17C81.8173 361.033 81.8887 360.894 81.9276 360.751C81.9665 360.615 81.986 360.488 81.986 360.372L82.0249 360.576C81.8563 360.576 81.72 360.527 81.6162 360.43C81.5189 360.326 81.4703 360.197 81.4703 360.041C81.4703 359.885 81.5157 359.759 81.6065 359.661C81.7038 359.558 81.8303 359.506 81.986 359.506C82.1547 359.506 82.2877 359.564 82.385 359.681C82.4823 359.791 82.5309 359.953 82.5309 360.167C82.5309 360.304 82.518 360.443 82.492 360.586C82.4661 360.735 82.4207 360.884 82.3558 361.033C82.2909 361.183 82.2033 361.325 82.093 361.462ZM86.8939 360.537C86.7512 360.537 86.6409 360.501 86.5631 360.43C86.4917 360.352 86.456 360.242 86.456 360.099V354.115C86.456 353.972 86.4917 353.865 86.5631 353.793C86.6409 353.716 86.7512 353.677 86.8939 353.677H90.5139C90.6242 353.677 90.7085 353.706 90.7669 353.764C90.8253 353.823 90.8545 353.904 90.8545 354.008C90.8545 354.118 90.8253 354.202 90.7669 354.261C90.7085 354.319 90.6242 354.348 90.5139 354.348H87.2345V356.723H90.3095C90.4198 356.723 90.5042 356.752 90.5625 356.81C90.6209 356.862 90.6501 356.943 90.6501 357.053C90.6501 357.164 90.6209 357.248 90.5625 357.306C90.5042 357.365 90.4198 357.394 90.3095 357.394H87.2345V359.866H90.5139C90.6242 359.866 90.7085 359.895 90.7669 359.953C90.8253 360.012 90.8545 360.093 90.8545 360.197C90.8545 360.307 90.8253 360.391 90.7669 360.45C90.7085 360.508 90.6242 360.537 90.5139 360.537H86.8939ZM93.4351 360.625C93.1107 360.625 92.8188 360.563 92.5593 360.44C92.3063 360.31 92.1052 360.135 91.956 359.914C91.8068 359.694 91.7322 359.447 91.7322 359.175C91.7322 358.824 91.8198 358.549 91.9949 358.348C92.1766 358.146 92.4717 358.004 92.8804 357.919C93.2956 357.835 93.86 357.793 94.5737 357.793H95.0116V358.309H94.5834C94.0579 358.309 93.6427 358.335 93.3378 358.387C93.0394 358.432 92.8285 358.513 92.7053 358.63C92.5885 358.747 92.5301 358.912 92.5301 359.126C92.5301 359.392 92.621 359.609 92.8026 359.778C92.9907 359.947 93.2437 360.031 93.5616 360.031C93.8211 360.031 94.0482 359.969 94.2428 359.846C94.4439 359.723 94.5996 359.554 94.7099 359.34C94.8267 359.126 94.8851 358.88 94.8851 358.601V357.491C94.8851 357.089 94.804 356.8 94.6418 356.625C94.4796 356.444 94.2136 356.353 93.8438 356.353C93.6168 356.353 93.3897 356.382 93.1626 356.44C92.9356 356.499 92.6956 356.593 92.4425 356.723C92.3517 356.768 92.2739 356.784 92.209 356.771C92.1441 356.752 92.0922 356.716 92.0533 356.664C92.0144 356.612 91.9917 356.554 91.9852 356.489C91.9787 356.418 91.9917 356.349 92.0241 356.285C92.063 356.22 92.1214 356.168 92.1993 356.129C92.4847 355.986 92.7669 355.882 93.0459 355.818C93.3248 355.753 93.5908 355.72 93.8438 355.72C94.2525 355.72 94.5899 355.788 94.8559 355.925C95.1218 356.054 95.3197 356.255 95.4495 356.528C95.5792 356.794 95.6441 357.138 95.6441 357.559V360.197C95.6441 360.326 95.6116 360.427 95.5468 360.498C95.4884 360.57 95.4008 360.605 95.284 360.605C95.1608 360.605 95.0667 360.57 95.0018 360.498C94.937 360.427 94.9045 360.326 94.9045 360.197V359.437H94.9921C94.9402 359.684 94.8396 359.895 94.6904 360.07C94.5477 360.245 94.3693 360.381 94.1552 360.479C93.9411 360.576 93.7011 360.625 93.4351 360.625ZM97.5054 360.605C97.3756 360.605 97.2751 360.57 97.2037 360.498C97.1388 360.427 97.1064 360.326 97.1064 360.197V356.139C97.1064 356.009 97.1388 355.912 97.2037 355.847C97.2686 355.775 97.3627 355.74 97.4859 355.74C97.6092 355.74 97.7033 355.775 97.7681 355.847C97.8395 355.912 97.8752 356.009 97.8752 356.139V356.927H97.7779C97.8817 356.544 98.0795 356.249 98.3715 356.041C98.6634 355.834 99.0234 355.723 99.4516 355.71C99.5489 355.704 99.6268 355.727 99.6852 355.779C99.7435 355.824 99.776 355.905 99.7825 356.022C99.789 356.132 99.763 356.22 99.7046 356.285C99.6462 356.349 99.5554 356.388 99.4321 356.401L99.2764 356.421C98.8353 356.46 98.4947 356.602 98.2547 356.849C98.0211 357.089 97.9044 357.42 97.9044 357.842V360.197C97.9044 360.326 97.8687 360.427 97.7973 360.498C97.7324 360.57 97.6351 360.605 97.5054 360.605ZM100.983 360.605C100.854 360.605 100.756 360.57 100.691 360.498C100.626 360.427 100.594 360.326 100.594 360.197V356.139C100.594 356.009 100.626 355.912 100.691 355.847C100.756 355.775 100.85 355.74 100.974 355.74C101.097 355.74 101.191 355.775 101.256 355.847C101.327 355.912 101.363 356.009 101.363 356.139V356.976L101.256 356.859C101.392 356.482 101.613 356.2 101.917 356.012C102.229 355.818 102.586 355.72 102.988 355.72C103.364 355.72 103.676 355.788 103.922 355.925C104.175 356.061 104.363 356.268 104.486 356.547C104.61 356.82 104.671 357.167 104.671 357.589V360.197C104.671 360.326 104.636 360.427 104.564 360.498C104.499 360.57 104.405 360.605 104.282 360.605C104.152 360.605 104.052 360.57 103.98 360.498C103.916 360.427 103.883 360.326 103.883 360.197V357.637C103.883 357.196 103.796 356.875 103.62 356.674C103.452 356.466 103.179 356.362 102.803 356.362C102.368 356.362 102.021 356.499 101.762 356.771C101.509 357.037 101.382 357.394 101.382 357.842V360.197C101.382 360.469 101.249 360.605 100.983 360.605ZM109.14 360.605C109.01 360.605 108.909 360.57 108.838 360.498C108.773 360.42 108.741 360.317 108.741 360.187V354.085C108.741 353.949 108.776 353.849 108.848 353.784C108.919 353.712 109.02 353.677 109.149 353.677H111.456C112.189 353.677 112.753 353.858 113.149 354.222C113.545 354.578 113.742 355.084 113.742 355.74C113.742 356.388 113.545 356.894 113.149 357.258C112.753 357.621 112.189 357.803 111.456 357.803H109.539V360.187C109.539 360.317 109.506 360.42 109.441 360.498C109.376 360.57 109.276 360.605 109.14 360.605ZM109.539 357.131H111.358C111.884 357.131 112.28 357.014 112.545 356.781C112.818 356.541 112.954 356.194 112.954 355.74C112.954 355.279 112.818 354.932 112.545 354.698C112.28 354.458 111.884 354.338 111.358 354.338H109.539V357.131ZM116.548 360.625C116.088 360.625 115.689 360.524 115.351 360.323C115.014 360.122 114.751 359.84 114.563 359.476C114.381 359.107 114.291 358.672 114.291 358.172C114.291 357.796 114.342 357.459 114.446 357.16C114.55 356.856 114.703 356.596 114.904 356.382C115.105 356.168 115.342 356.006 115.614 355.895C115.893 355.779 116.204 355.72 116.548 355.72C117.009 355.72 117.408 355.821 117.745 356.022C118.082 356.223 118.342 356.508 118.524 356.878C118.712 357.242 118.806 357.673 118.806 358.172C118.806 358.549 118.754 358.886 118.65 359.184C118.546 359.483 118.394 359.742 118.193 359.963C117.992 360.177 117.752 360.342 117.473 360.459C117.2 360.57 116.892 360.625 116.548 360.625ZM116.548 359.992C116.84 359.992 117.096 359.921 117.317 359.778C117.538 359.635 117.706 359.428 117.823 359.155C117.946 358.883 118.008 358.555 118.008 358.172C118.008 357.582 117.875 357.131 117.609 356.82C117.349 356.508 116.996 356.353 116.548 356.353C116.25 356.353 115.99 356.424 115.77 356.567C115.556 356.703 115.387 356.907 115.264 357.18C115.147 357.446 115.089 357.777 115.089 358.172C115.089 358.756 115.222 359.207 115.487 359.525C115.753 359.836 116.107 359.992 116.548 359.992ZM120.379 360.586C120.249 360.586 120.152 360.55 120.087 360.479C120.022 360.401 119.99 360.294 119.99 360.158V356.178C119.99 356.041 120.022 355.938 120.087 355.866C120.152 355.795 120.249 355.759 120.379 355.759C120.502 355.759 120.6 355.795 120.671 355.866C120.742 355.938 120.778 356.041 120.778 356.178V360.158C120.778 360.294 120.742 360.401 120.671 360.479C120.606 360.55 120.509 360.586 120.379 360.586ZM120.379 354.669C120.217 354.669 120.09 354.627 119.999 354.543C119.909 354.452 119.863 354.332 119.863 354.183C119.863 354.027 119.909 353.91 119.999 353.832C120.09 353.748 120.217 353.706 120.379 353.706C120.548 353.706 120.674 353.748 120.758 353.832C120.849 353.91 120.895 354.027 120.895 354.183C120.895 354.332 120.849 354.452 120.758 354.543C120.674 354.627 120.548 354.669 120.379 354.669ZM122.641 360.605C122.511 360.605 122.414 360.57 122.349 360.498C122.284 360.427 122.251 360.326 122.251 360.197V356.139C122.251 356.009 122.284 355.912 122.349 355.847C122.414 355.775 122.508 355.74 122.631 355.74C122.754 355.74 122.848 355.775 122.913 355.847C122.985 355.912 123.02 356.009 123.02 356.139V356.976L122.913 356.859C123.049 356.482 123.27 356.2 123.575 356.012C123.886 355.818 124.243 355.72 124.645 355.72C125.022 355.72 125.333 355.788 125.579 355.925C125.833 356.061 126.021 356.268 126.144 356.547C126.267 356.82 126.329 357.167 126.329 357.589V360.197C126.329 360.326 126.293 360.427 126.222 360.498C126.157 360.57 126.063 360.605 125.94 360.605C125.81 360.605 125.709 360.57 125.638 360.498C125.573 360.427 125.541 360.326 125.541 360.197V357.637C125.541 357.196 125.453 356.875 125.278 356.674C125.109 356.466 124.837 356.362 124.46 356.362C124.026 356.362 123.679 356.499 123.419 356.771C123.166 357.037 123.04 357.394 123.04 357.842V360.197C123.04 360.469 122.907 360.605 122.641 360.605ZM129.68 360.625C129.31 360.625 128.999 360.56 128.746 360.43C128.499 360.294 128.314 360.099 128.191 359.846C128.068 359.587 128.006 359.272 128.006 358.902V356.421H127.354C127.244 356.421 127.159 356.395 127.101 356.343C127.043 356.285 127.013 356.207 127.013 356.109C127.013 356.012 127.043 355.938 127.101 355.886C127.159 355.834 127.244 355.808 127.354 355.808H128.006V354.689C128.006 354.559 128.042 354.462 128.113 354.397C128.184 354.325 128.282 354.29 128.405 354.29C128.528 354.29 128.622 354.325 128.687 354.397C128.759 354.462 128.794 354.559 128.794 354.689V355.808H130.02C130.131 355.808 130.215 355.834 130.273 355.886C130.332 355.938 130.361 356.012 130.361 356.109C130.361 356.207 130.332 356.285 130.273 356.343C130.215 356.395 130.131 356.421 130.02 356.421H128.794V358.824C128.794 359.194 128.872 359.476 129.028 359.671C129.184 359.859 129.437 359.953 129.787 359.953C129.91 359.953 130.014 359.94 130.098 359.914C130.189 359.888 130.264 359.875 130.322 359.875C130.38 359.869 130.429 359.888 130.468 359.934C130.507 359.979 130.526 360.057 130.526 360.167C130.526 360.245 130.51 360.317 130.478 360.381C130.452 360.446 130.403 360.492 130.332 360.518C130.254 360.544 130.15 360.566 130.02 360.586C129.897 360.612 129.784 360.625 129.68 360.625ZM132.78 360.625C132.488 360.625 132.193 360.589 131.895 360.518C131.603 360.446 131.33 360.323 131.077 360.148C131.012 360.102 130.967 360.051 130.941 359.992C130.915 359.927 130.905 359.866 130.912 359.807C130.925 359.742 130.951 359.687 130.99 359.642C131.035 359.596 131.087 359.57 131.145 359.564C131.21 359.551 131.282 359.564 131.359 359.603C131.612 359.759 131.856 359.869 132.089 359.934C132.329 359.992 132.566 360.021 132.8 360.021C133.169 360.021 133.448 359.953 133.637 359.817C133.825 359.681 133.919 359.496 133.919 359.262C133.919 359.081 133.857 358.938 133.734 358.834C133.611 358.724 133.416 358.64 133.15 358.581L132.264 358.387C131.856 358.302 131.551 358.156 131.35 357.949C131.155 357.741 131.058 357.472 131.058 357.141C131.058 356.849 131.132 356.599 131.282 356.392C131.437 356.178 131.655 356.012 131.934 355.895C132.213 355.779 132.537 355.72 132.907 355.72C133.192 355.72 133.461 355.759 133.714 355.837C133.974 355.908 134.207 356.025 134.415 356.187C134.48 356.233 134.522 356.288 134.542 356.353C134.567 356.411 134.571 356.473 134.551 356.538C134.538 356.596 134.509 356.648 134.464 356.693C134.418 356.732 134.363 356.755 134.298 356.761C134.233 356.768 134.165 356.748 134.094 356.703C133.899 356.573 133.701 356.479 133.5 356.421C133.299 356.356 133.101 356.324 132.907 356.324C132.543 356.324 132.268 356.395 132.08 356.538C131.891 356.68 131.797 356.868 131.797 357.102C131.797 357.284 131.856 357.433 131.973 357.55C132.089 357.666 132.271 357.751 132.517 357.803L133.403 357.988C133.825 358.078 134.139 358.224 134.347 358.425C134.561 358.62 134.668 358.886 134.668 359.223C134.668 359.652 134.496 359.992 134.152 360.245C133.808 360.498 133.351 360.625 132.78 360.625ZM136.289 361.462C136.224 361.546 136.156 361.595 136.085 361.608C136.013 361.621 135.952 361.608 135.9 361.569C135.848 361.53 135.819 361.475 135.812 361.403C135.812 361.332 135.845 361.254 135.909 361.17C136.013 361.033 136.085 360.894 136.123 360.751C136.162 360.615 136.182 360.488 136.182 360.372L136.221 360.576C136.052 360.576 135.916 360.527 135.812 360.43C135.715 360.326 135.666 360.197 135.666 360.041C135.666 359.885 135.712 359.759 135.802 359.661C135.9 359.558 136.026 359.506 136.182 359.506C136.351 359.506 136.484 359.564 136.581 359.681C136.678 359.791 136.727 359.953 136.727 360.167C136.727 360.304 136.714 360.443 136.688 360.586C136.662 360.735 136.617 360.884 136.552 361.033C136.487 361.183 136.399 361.325 136.289 361.462ZM142.034 360.625C141.709 360.625 141.417 360.563 141.158 360.44C140.905 360.31 140.704 360.135 140.555 359.914C140.405 359.694 140.331 359.447 140.331 359.175C140.331 358.824 140.418 358.549 140.593 358.348C140.775 358.146 141.07 358.004 141.479 357.919C141.894 357.835 142.459 357.793 143.172 357.793H143.61V358.309H143.182C142.656 358.309 142.241 358.335 141.936 358.387C141.638 358.432 141.427 358.513 141.304 358.63C141.187 358.747 141.129 358.912 141.129 359.126C141.129 359.392 141.219 359.609 141.401 359.778C141.589 359.947 141.842 360.031 142.16 360.031C142.42 360.031 142.647 359.969 142.841 359.846C143.042 359.723 143.198 359.554 143.308 359.34C143.425 359.126 143.484 358.88 143.484 358.601V357.491C143.484 357.089 143.403 356.8 143.24 356.625C143.078 356.444 142.812 356.353 142.442 356.353C142.215 356.353 141.988 356.382 141.761 356.44C141.534 356.499 141.294 356.593 141.041 356.723C140.95 356.768 140.872 356.784 140.808 356.771C140.743 356.752 140.691 356.716 140.652 356.664C140.613 356.612 140.59 356.554 140.584 356.489C140.577 356.418 140.59 356.349 140.623 356.285C140.662 356.22 140.72 356.168 140.798 356.129C141.083 355.986 141.365 355.882 141.644 355.818C141.923 355.753 142.189 355.72 142.442 355.72C142.851 355.72 143.188 355.788 143.454 355.925C143.72 356.054 143.918 356.255 144.048 356.528C144.178 356.794 144.243 357.138 144.243 357.559V360.197C144.243 360.326 144.21 360.427 144.145 360.498C144.087 360.57 143.999 360.605 143.883 360.605C143.759 360.605 143.665 360.57 143.6 360.498C143.535 360.427 143.503 360.326 143.503 360.197V359.437H143.591C143.539 359.684 143.438 359.895 143.289 360.07C143.146 360.245 142.968 360.381 142.754 360.479C142.54 360.576 142.3 360.625 142.034 360.625ZM146.094 360.605C145.964 360.605 145.867 360.57 145.802 360.498C145.737 360.427 145.705 360.326 145.705 360.197V356.139C145.705 356.009 145.737 355.912 145.802 355.847C145.867 355.775 145.961 355.74 146.084 355.74C146.208 355.74 146.302 355.775 146.367 355.847C146.438 355.912 146.474 356.009 146.474 356.139V356.976L146.367 356.859C146.503 356.482 146.723 356.2 147.028 356.012C147.34 355.818 147.697 355.72 148.099 355.72C148.475 355.72 148.786 355.788 149.033 355.925C149.286 356.061 149.474 356.268 149.597 356.547C149.721 356.82 149.782 357.167 149.782 357.589V360.197C149.782 360.326 149.747 360.427 149.675 360.498C149.61 360.57 149.516 360.605 149.393 360.605C149.263 360.605 149.163 360.57 149.091 360.498C149.027 360.427 148.994 360.326 148.994 360.197V357.637C148.994 357.196 148.906 356.875 148.731 356.674C148.563 356.466 148.29 356.362 147.914 356.362C147.479 356.362 147.132 356.499 146.873 356.771C146.62 357.037 146.493 357.394 146.493 357.842V360.197C146.493 360.469 146.36 360.605 146.094 360.605ZM153.036 360.625C152.614 360.625 152.245 360.524 151.927 360.323C151.615 360.122 151.372 359.84 151.197 359.476C151.028 359.107 150.944 358.672 150.944 358.172C150.944 357.666 151.028 357.232 151.197 356.868C151.372 356.499 151.615 356.216 151.927 356.022C152.245 355.821 152.614 355.72 153.036 355.72C153.464 355.72 153.831 355.827 154.136 356.041C154.44 356.255 154.645 356.544 154.749 356.907H154.642V354.008C154.642 353.878 154.674 353.78 154.739 353.716C154.81 353.644 154.911 353.609 155.041 353.609C155.164 353.609 155.258 353.644 155.323 353.716C155.394 353.78 155.43 353.878 155.43 354.008V360.197C155.43 360.326 155.397 360.427 155.333 360.498C155.268 360.57 155.17 360.605 155.041 360.605C154.917 360.605 154.82 360.57 154.749 360.498C154.684 360.427 154.651 360.326 154.651 360.197V359.272L154.758 359.408C154.655 359.778 154.447 360.073 154.136 360.294C153.831 360.514 153.464 360.625 153.036 360.625ZM153.201 359.992C153.493 359.992 153.75 359.921 153.97 359.778C154.191 359.635 154.359 359.428 154.476 359.155C154.599 358.883 154.661 358.555 154.661 358.172C154.661 357.582 154.528 357.131 154.262 356.82C154.003 356.508 153.649 356.353 153.201 356.353C152.903 356.353 152.643 356.424 152.423 356.567C152.209 356.703 152.04 356.907 151.917 357.18C151.8 357.446 151.742 357.777 151.742 358.172C151.742 358.756 151.875 359.207 152.141 359.525C152.407 359.836 152.76 359.992 153.201 359.992ZM159.924 360.605C159.794 360.605 159.694 360.57 159.622 360.498C159.557 360.42 159.525 360.317 159.525 360.187V354.027C159.525 353.891 159.557 353.787 159.622 353.716C159.694 353.644 159.794 353.609 159.924 353.609C160.054 353.609 160.151 353.644 160.216 353.716C160.287 353.787 160.323 353.891 160.323 354.027V356.713H164.439V354.027C164.439 353.891 164.472 353.787 164.536 353.716C164.608 353.644 164.708 353.609 164.838 353.609C164.968 353.609 165.065 353.644 165.13 353.716C165.201 353.787 165.237 353.891 165.237 354.027V360.187C165.237 360.317 165.201 360.42 165.13 360.498C165.065 360.57 164.968 360.605 164.838 360.605C164.708 360.605 164.608 360.57 164.536 360.498C164.472 360.42 164.439 360.317 164.439 360.187V357.404H160.323V360.187C160.323 360.317 160.29 360.42 160.226 360.498C160.161 360.57 160.06 360.605 159.924 360.605ZM168.31 360.625C167.985 360.625 167.693 360.563 167.434 360.44C167.181 360.31 166.98 360.135 166.83 359.914C166.681 359.694 166.607 359.447 166.607 359.175C166.607 358.824 166.694 358.549 166.869 358.348C167.051 358.146 167.346 358.004 167.755 357.919C168.17 357.835 168.734 357.793 169.448 357.793H169.886V358.309H169.458C168.932 358.309 168.517 358.335 168.212 358.387C167.914 358.432 167.703 358.513 167.58 358.63C167.463 358.747 167.405 358.912 167.405 359.126C167.405 359.392 167.495 359.609 167.677 359.778C167.865 359.947 168.118 360.031 168.436 360.031C168.696 360.031 168.923 359.969 169.117 359.846C169.318 359.723 169.474 359.554 169.584 359.34C169.701 359.126 169.76 358.88 169.76 358.601V357.491C169.76 357.089 169.678 356.8 169.516 356.625C169.354 356.444 169.088 356.353 168.718 356.353C168.491 356.353 168.264 356.382 168.037 356.44C167.81 356.499 167.57 356.593 167.317 356.723C167.226 356.768 167.148 356.784 167.083 356.771C167.019 356.752 166.967 356.716 166.928 356.664C166.889 356.612 166.866 356.554 166.86 356.489C166.853 356.418 166.866 356.349 166.899 356.285C166.937 356.22 166.996 356.168 167.074 356.129C167.359 355.986 167.641 355.882 167.92 355.818C168.199 355.753 168.465 355.72 168.718 355.72C169.127 355.72 169.464 355.788 169.73 355.925C169.996 356.054 170.194 356.255 170.324 356.528C170.454 356.794 170.519 357.138 170.519 357.559V360.197C170.519 360.326 170.486 360.427 170.421 360.498C170.363 360.57 170.275 360.605 170.158 360.605C170.035 360.605 169.941 360.57 169.876 360.498C169.811 360.427 169.779 360.326 169.779 360.197V359.437H169.867C169.815 359.684 169.714 359.895 169.565 360.07C169.422 360.245 169.244 360.381 169.03 360.479C168.816 360.576 168.576 360.625 168.31 360.625ZM173.695 360.605C173.584 360.605 173.487 360.576 173.403 360.518C173.318 360.453 173.247 360.355 173.189 360.226L171.505 356.294C171.46 356.197 171.444 356.106 171.457 356.022C171.47 355.938 171.508 355.869 171.573 355.818C171.638 355.766 171.729 355.74 171.846 355.74C171.95 355.74 172.031 355.762 172.089 355.808C172.147 355.853 172.199 355.934 172.245 356.051L173.841 359.953H173.578L175.203 356.051C175.248 355.934 175.3 355.853 175.359 355.808C175.417 355.762 175.501 355.74 175.612 355.74C175.716 355.74 175.793 355.766 175.845 355.818C175.904 355.869 175.936 355.938 175.943 356.022C175.956 356.1 175.943 356.187 175.904 356.285L174.201 360.226C174.155 360.355 174.087 360.453 173.996 360.518C173.912 360.576 173.811 360.605 173.695 360.605ZM179.006 360.625C178.506 360.625 178.075 360.527 177.712 360.333C177.355 360.132 177.076 359.849 176.875 359.486C176.68 359.123 176.583 358.688 176.583 358.182C176.583 357.689 176.68 357.261 176.875 356.898C177.07 356.528 177.336 356.239 177.673 356.032C178.017 355.824 178.412 355.72 178.86 355.72C179.178 355.72 179.463 355.775 179.716 355.886C179.969 355.989 180.183 356.142 180.359 356.343C180.54 356.544 180.677 356.787 180.767 357.073C180.865 357.358 180.913 357.679 180.913 358.036C180.913 358.14 180.884 358.218 180.826 358.27C180.767 358.315 180.683 358.338 180.573 358.338H177.186V357.822H180.388L180.232 357.949C180.232 357.598 180.18 357.303 180.076 357.063C179.973 356.817 179.82 356.628 179.619 356.499C179.424 356.369 179.178 356.304 178.88 356.304C178.549 356.304 178.266 356.382 178.033 356.538C177.806 356.687 177.634 356.898 177.517 357.17C177.4 357.436 177.342 357.748 177.342 358.104V358.163C177.342 358.76 177.485 359.214 177.77 359.525C178.062 359.836 178.474 359.992 179.006 359.992C179.227 359.992 179.444 359.963 179.658 359.905C179.879 359.846 180.093 359.749 180.3 359.613C180.391 359.554 180.472 359.528 180.544 359.535C180.621 359.535 180.683 359.558 180.728 359.603C180.774 359.642 180.803 359.694 180.816 359.759C180.835 359.817 180.829 359.882 180.797 359.953C180.771 360.025 180.715 360.086 180.631 360.138C180.417 360.294 180.164 360.414 179.872 360.498C179.58 360.583 179.291 360.625 179.006 360.625ZM185.098 360.605C184.962 360.605 184.855 360.57 184.777 360.498C184.706 360.42 184.67 360.31 184.67 360.167V354.115C184.67 353.972 184.706 353.865 184.777 353.793C184.855 353.716 184.965 353.677 185.108 353.677H188.64C188.75 353.677 188.835 353.706 188.893 353.764C188.952 353.823 188.981 353.904 188.981 354.008C188.981 354.118 188.952 354.202 188.893 354.261C188.835 354.319 188.75 354.348 188.64 354.348H185.468V356.742H188.436C188.546 356.742 188.63 356.771 188.689 356.83C188.754 356.888 188.786 356.969 188.786 357.073C188.786 357.183 188.754 357.267 188.689 357.326C188.63 357.384 188.546 357.413 188.436 357.413H185.468V360.167C185.468 360.459 185.345 360.605 185.098 360.605ZM191.463 360.625C191.081 360.625 190.763 360.557 190.51 360.42C190.263 360.278 190.075 360.067 189.945 359.788C189.822 359.509 189.76 359.162 189.76 358.747V356.139C189.76 356.002 189.793 355.902 189.858 355.837C189.929 355.772 190.026 355.74 190.15 355.74C190.279 355.74 190.377 355.772 190.442 355.837C190.513 355.902 190.549 356.002 190.549 356.139V358.737C190.549 359.152 190.633 359.463 190.802 359.671C190.977 359.872 191.249 359.973 191.619 359.973C192.021 359.973 192.349 359.836 192.602 359.564C192.855 359.292 192.981 358.935 192.981 358.494V356.139C192.981 356.002 193.014 355.902 193.079 355.837C193.15 355.772 193.251 355.74 193.38 355.74C193.504 355.74 193.598 355.772 193.663 355.837C193.734 355.902 193.77 356.002 193.77 356.139V360.197C193.77 360.469 193.643 360.605 193.39 360.605C193.267 360.605 193.169 360.57 193.098 360.498C193.033 360.427 193.001 360.326 193.001 360.197V359.311L193.127 359.447C192.998 359.83 192.783 360.122 192.485 360.323C192.193 360.524 191.853 360.625 191.463 360.625ZM195.634 360.605C195.504 360.605 195.406 360.57 195.342 360.498C195.277 360.427 195.244 360.326 195.244 360.197V356.139C195.244 356.009 195.277 355.912 195.342 355.847C195.406 355.775 195.501 355.74 195.624 355.74C195.747 355.74 195.841 355.775 195.906 355.847C195.977 355.912 196.013 356.009 196.013 356.139V356.976L195.906 356.859C196.042 356.482 196.263 356.2 196.568 356.012C196.879 355.818 197.236 355.72 197.638 355.72C198.014 355.72 198.326 355.788 198.572 355.925C198.825 356.061 199.013 356.268 199.137 356.547C199.26 356.82 199.322 357.167 199.322 357.589V360.197C199.322 360.326 199.286 360.427 199.215 360.498C199.15 360.57 199.056 360.605 198.932 360.605C198.803 360.605 198.702 360.57 198.631 360.498C198.566 360.427 198.533 360.326 198.533 360.197V357.637C198.533 357.196 198.446 356.875 198.271 356.674C198.102 356.466 197.83 356.362 197.453 356.362C197.019 356.362 196.672 356.499 196.412 356.771C196.159 357.037 196.033 357.394 196.033 357.842V360.197C196.033 360.469 195.9 360.605 195.634 360.605ZM100.736 378.605C100.612 378.605 100.515 378.57 100.444 378.498C100.372 378.42 100.337 378.317 100.337 378.187V372.368H98.1471C98.0304 372.368 97.9395 372.335 97.8747 372.27C97.8098 372.205 97.7774 372.121 97.7774 372.017C97.7774 371.907 97.8098 371.823 97.8747 371.764C97.9395 371.706 98.0304 371.677 98.1471 371.677H103.334C103.451 371.677 103.541 371.706 103.606 371.764C103.671 371.823 103.704 371.907 103.704 372.017C103.704 372.128 103.671 372.215 103.606 372.28C103.541 372.338 103.451 372.368 103.334 372.368H101.144V378.187C101.144 378.317 101.109 378.42 101.037 378.498C100.972 378.57 100.872 378.605 100.736 378.605ZM105.624 378.625C105.164 378.625 104.765 378.524 104.428 378.323C104.09 378.122 103.827 377.84 103.639 377.476C103.458 377.107 103.367 376.672 103.367 376.172C103.367 375.796 103.419 375.459 103.523 375.16C103.626 374.856 103.779 374.596 103.98 374.382C104.181 374.168 104.418 374.006 104.69 373.895C104.969 373.779 105.281 373.72 105.624 373.72C106.085 373.72 106.484 373.821 106.821 374.022C107.159 374.223 107.418 374.508 107.6 374.878C107.788 375.242 107.882 375.673 107.882 376.172C107.882 376.549 107.83 376.886 107.726 377.184C107.623 377.483 107.47 377.742 107.269 377.963C107.068 378.177 106.828 378.342 106.549 378.459C106.276 378.57 105.968 378.625 105.624 378.625ZM105.624 377.992C105.916 377.992 106.173 377.921 106.393 377.778C106.614 377.635 106.782 377.428 106.899 377.155C107.022 376.883 107.084 376.555 107.084 376.172C107.084 375.582 106.951 375.131 106.685 374.82C106.426 374.508 106.072 374.353 105.624 374.353C105.326 374.353 105.067 374.424 104.846 374.567C104.632 374.703 104.463 374.907 104.34 375.18C104.223 375.446 104.165 375.777 104.165 376.172C104.165 376.756 104.298 377.207 104.564 377.525C104.83 377.836 105.183 377.992 105.624 377.992ZM111.158 380.376C110.814 380.376 110.477 380.334 110.146 380.25C109.822 380.172 109.527 380.045 109.261 379.87C109.183 379.825 109.131 379.77 109.105 379.705C109.085 379.64 109.082 379.575 109.095 379.51C109.108 379.452 109.137 379.397 109.183 379.345C109.228 379.299 109.28 379.27 109.338 379.257C109.403 379.244 109.468 379.254 109.533 379.286C109.819 379.462 110.091 379.582 110.35 379.646C110.61 379.711 110.866 379.744 111.119 379.744C111.58 379.744 111.927 379.621 112.16 379.374C112.401 379.127 112.521 378.771 112.521 378.304V377.204H112.618C112.521 377.58 112.313 377.879 111.995 378.099C111.684 378.32 111.317 378.43 110.895 378.43C110.461 378.43 110.085 378.333 109.767 378.138C109.449 377.937 109.202 377.658 109.027 377.301C108.858 376.944 108.774 376.533 108.774 376.065C108.774 375.715 108.823 375.397 108.92 375.112C109.017 374.82 109.157 374.573 109.338 374.372C109.527 374.165 109.75 374.006 110.01 373.895C110.276 373.779 110.571 373.72 110.895 373.72C111.324 373.72 111.693 373.83 112.005 374.051C112.316 374.265 112.517 374.557 112.608 374.927L112.511 375.044V374.139C112.511 374.009 112.543 373.912 112.608 373.847C112.679 373.775 112.777 373.74 112.9 373.74C113.03 373.74 113.127 373.775 113.192 373.847C113.257 373.912 113.289 374.009 113.289 374.139V378.197C113.289 378.917 113.108 379.458 112.744 379.822C112.388 380.191 111.859 380.376 111.158 380.376ZM111.041 377.788C111.346 377.788 111.609 377.72 111.83 377.583C112.05 377.441 112.219 377.24 112.336 376.98C112.459 376.721 112.521 376.416 112.521 376.065C112.521 375.54 112.388 375.125 112.122 374.82C111.856 374.508 111.496 374.353 111.041 374.353C110.743 374.353 110.483 374.424 110.263 374.567C110.042 374.703 109.87 374.901 109.747 375.16C109.63 375.413 109.572 375.715 109.572 376.065C109.572 376.591 109.705 377.009 109.971 377.321C110.237 377.632 110.594 377.788 111.041 377.788ZM116.899 378.625C116.399 378.625 115.968 378.527 115.605 378.333C115.248 378.132 114.969 377.849 114.768 377.486C114.573 377.123 114.476 376.688 114.476 376.182C114.476 375.689 114.573 375.261 114.768 374.898C114.962 374.528 115.228 374.239 115.566 374.032C115.91 373.824 116.305 373.72 116.753 373.72C117.071 373.72 117.356 373.775 117.609 373.886C117.862 373.989 118.076 374.142 118.252 374.343C118.433 374.544 118.569 374.787 118.66 375.073C118.758 375.358 118.806 375.679 118.806 376.036C118.806 376.14 118.777 376.218 118.719 376.27C118.66 376.315 118.576 376.338 118.466 376.338H115.079V375.822H118.281L118.125 375.949C118.125 375.598 118.073 375.303 117.969 375.063C117.866 374.817 117.713 374.628 117.512 374.499C117.317 374.369 117.071 374.304 116.772 374.304C116.442 374.304 116.159 374.382 115.926 374.538C115.699 374.687 115.527 374.898 115.41 375.17C115.293 375.436 115.235 375.748 115.235 376.104V376.163C115.235 376.76 115.378 377.214 115.663 377.525C115.955 377.836 116.367 377.992 116.899 377.992C117.119 377.992 117.337 377.963 117.551 377.905C117.771 377.846 117.986 377.749 118.193 377.613C118.284 377.554 118.365 377.528 118.436 377.535C118.514 377.535 118.576 377.558 118.621 377.603C118.667 377.642 118.696 377.694 118.709 377.759C118.728 377.817 118.722 377.882 118.689 377.953C118.663 378.025 118.608 378.086 118.524 378.138C118.31 378.294 118.057 378.414 117.765 378.498C117.473 378.583 117.184 378.625 116.899 378.625ZM121.845 378.625C121.475 378.625 121.163 378.56 120.91 378.43C120.664 378.294 120.479 378.099 120.356 377.846C120.232 377.587 120.171 377.272 120.171 376.902V374.421H119.519C119.409 374.421 119.324 374.395 119.266 374.343C119.207 374.285 119.178 374.207 119.178 374.109C119.178 374.012 119.207 373.938 119.266 373.886C119.324 373.834 119.409 373.808 119.519 373.808H120.171V372.689C120.171 372.559 120.206 372.462 120.278 372.397C120.349 372.325 120.446 372.29 120.57 372.29C120.693 372.29 120.787 372.325 120.852 372.397C120.923 372.462 120.959 372.559 120.959 372.689V373.808H122.185C122.295 373.808 122.38 373.834 122.438 373.886C122.497 373.938 122.526 374.012 122.526 374.109C122.526 374.207 122.497 374.285 122.438 374.343C122.38 374.395 122.295 374.421 122.185 374.421H120.959V376.824C120.959 377.194 121.037 377.476 121.193 377.671C121.348 377.859 121.601 377.953 121.952 377.953C122.075 377.953 122.179 377.94 122.263 377.914C122.354 377.888 122.428 377.875 122.487 377.875C122.545 377.869 122.594 377.888 122.633 377.934C122.672 377.979 122.691 378.057 122.691 378.167C122.691 378.245 122.675 378.317 122.642 378.381C122.617 378.446 122.568 378.492 122.497 378.518C122.419 378.544 122.315 378.566 122.185 378.586C122.062 378.612 121.948 378.625 121.845 378.625ZM123.795 378.605C123.666 378.605 123.568 378.57 123.503 378.498C123.439 378.427 123.406 378.326 123.406 378.197V372.008C123.406 371.878 123.439 371.78 123.503 371.716C123.568 371.644 123.666 371.609 123.795 371.609C123.919 371.609 124.016 371.644 124.087 371.716C124.159 371.78 124.194 371.878 124.194 372.008V374.859H124.068C124.204 374.482 124.425 374.2 124.729 374.012C125.041 373.818 125.398 373.72 125.8 373.72C126.176 373.72 126.488 373.788 126.734 373.925C126.987 374.061 127.175 374.268 127.299 374.547C127.422 374.82 127.483 375.167 127.483 375.589V378.197C127.483 378.326 127.448 378.427 127.376 378.498C127.311 378.57 127.217 378.605 127.094 378.605C126.964 378.605 126.864 378.57 126.792 378.498C126.728 378.427 126.695 378.326 126.695 378.197V375.637C126.695 375.196 126.608 374.875 126.432 374.674C126.264 374.466 125.991 374.362 125.615 374.362C125.18 374.362 124.833 374.499 124.574 374.771C124.321 375.037 124.194 375.394 124.194 375.842V378.197C124.194 378.469 124.061 378.605 123.795 378.605ZM131.068 378.625C130.568 378.625 130.137 378.527 129.774 378.333C129.417 378.132 129.138 377.849 128.937 377.486C128.742 377.123 128.645 376.688 128.645 376.182C128.645 375.689 128.742 375.261 128.937 374.898C129.131 374.528 129.397 374.239 129.735 374.032C130.079 373.824 130.474 373.72 130.922 373.72C131.24 373.72 131.525 373.775 131.778 373.886C132.031 373.989 132.245 374.142 132.421 374.343C132.602 374.544 132.738 374.787 132.829 375.073C132.927 375.358 132.975 375.679 132.975 376.036C132.975 376.14 132.946 376.218 132.888 376.27C132.829 376.315 132.745 376.338 132.635 376.338H129.248V375.822H132.45L132.294 375.949C132.294 375.598 132.242 375.303 132.138 375.063C132.035 374.817 131.882 374.628 131.681 374.499C131.486 374.369 131.24 374.304 130.941 374.304C130.611 374.304 130.328 374.382 130.095 374.538C129.868 374.687 129.696 374.898 129.579 375.17C129.462 375.436 129.404 375.748 129.404 376.104V376.163C129.404 376.76 129.547 377.214 129.832 377.525C130.124 377.836 130.536 377.992 131.068 377.992C131.289 377.992 131.506 377.963 131.72 377.905C131.941 377.846 132.155 377.749 132.362 377.613C132.453 377.554 132.534 377.528 132.605 377.535C132.683 377.535 132.745 377.558 132.79 377.603C132.836 377.642 132.865 377.694 132.878 377.759C132.897 377.817 132.891 377.882 132.858 377.953C132.833 378.025 132.777 378.086 132.693 378.138C132.479 378.294 132.226 378.414 131.934 378.498C131.642 378.583 131.353 378.625 131.068 378.625ZM134.515 378.605C134.385 378.605 134.285 378.57 134.213 378.498C134.148 378.427 134.116 378.326 134.116 378.197V374.139C134.116 374.009 134.148 373.912 134.213 373.847C134.278 373.775 134.372 373.74 134.496 373.74C134.619 373.74 134.713 373.775 134.778 373.847C134.849 373.912 134.885 374.009 134.885 374.139V374.927H134.787C134.891 374.544 135.089 374.249 135.381 374.041C135.673 373.834 136.033 373.723 136.461 373.71C136.559 373.704 136.636 373.727 136.695 373.779C136.753 373.824 136.786 373.905 136.792 374.022C136.799 374.132 136.773 374.22 136.714 374.285C136.656 374.349 136.565 374.388 136.442 374.401L136.286 374.421C135.845 374.46 135.504 374.602 135.264 374.849C135.031 375.089 134.914 375.42 134.914 375.842V378.197C134.914 378.326 134.878 378.427 134.807 378.498C134.742 378.57 134.645 378.605 134.515 378.605ZM138.059 376.795C137.981 376.795 137.916 376.769 137.865 376.717C137.819 376.665 137.793 376.588 137.787 376.484L137.592 372.124C137.586 371.969 137.621 371.845 137.699 371.755C137.783 371.657 137.903 371.609 138.059 371.609C138.208 371.609 138.322 371.657 138.4 371.755C138.478 371.845 138.513 371.969 138.507 372.124L138.312 376.484C138.312 376.588 138.289 376.665 138.244 376.717C138.199 376.769 138.137 376.795 138.059 376.795ZM138.059 378.576C137.897 378.576 137.767 378.527 137.67 378.43C137.573 378.326 137.524 378.197 137.524 378.041C137.524 377.885 137.573 377.759 137.67 377.661C137.767 377.558 137.897 377.506 138.059 377.506C138.221 377.506 138.348 377.558 138.439 377.661C138.536 377.759 138.585 377.885 138.585 378.041C138.585 378.197 138.536 378.326 138.439 378.43C138.348 378.527 138.221 378.576 138.059 378.576Z" fill="#595959"/>
<rect x="15.1562" y="398.273" width="206.643" height="28.6209" rx="14.3105" fill="black"/>
<path d="M108.629 416.698C108.293 416.698 107.957 416.672 107.621 416.618C107.286 416.573 106.969 416.5 106.671 416.401C106.374 416.294 106.106 416.164 105.87 416.012C105.733 415.92 105.637 415.809 105.584 415.68C105.53 415.55 105.511 415.424 105.526 415.302C105.549 415.172 105.599 415.061 105.675 414.97C105.759 414.871 105.862 414.809 105.984 414.787C106.106 414.764 106.24 414.798 106.385 414.89C106.721 415.088 107.076 415.233 107.45 415.325C107.824 415.416 108.217 415.462 108.629 415.462C109.232 415.462 109.671 415.363 109.946 415.164C110.22 414.958 110.358 414.695 110.358 414.374C110.358 414.107 110.258 413.897 110.06 413.745C109.869 413.592 109.537 413.466 109.064 413.367L107.805 413.104C107.08 412.951 106.538 412.695 106.179 412.337C105.828 411.97 105.652 411.489 105.652 410.894C105.652 410.52 105.729 410.181 105.881 409.875C106.034 409.57 106.248 409.307 106.522 409.085C106.805 408.864 107.137 408.696 107.518 408.582C107.908 408.459 108.335 408.398 108.801 408.398C109.259 408.398 109.694 408.456 110.106 408.57C110.518 408.685 110.888 408.853 111.216 409.074C111.338 409.158 111.419 409.261 111.457 409.383C111.502 409.505 111.514 409.627 111.491 409.749C111.468 409.864 111.415 409.963 111.331 410.047C111.247 410.131 111.14 410.181 111.01 410.196C110.888 410.211 110.747 410.173 110.587 410.081C110.304 409.921 110.018 409.807 109.728 409.738C109.438 409.669 109.125 409.635 108.789 409.635C108.438 409.635 108.137 409.684 107.885 409.784C107.633 409.883 107.438 410.024 107.301 410.207C107.171 410.383 107.106 410.593 107.106 410.837C107.106 411.112 107.198 411.333 107.381 411.501C107.564 411.661 107.877 411.787 108.32 411.879L109.568 412.142C110.323 412.302 110.884 412.554 111.251 412.898C111.625 413.241 111.812 413.699 111.812 414.271C111.812 414.638 111.735 414.97 111.583 415.267C111.438 415.565 111.224 415.821 110.942 416.034C110.667 416.248 110.335 416.412 109.946 416.527C109.556 416.641 109.117 416.698 108.629 416.698ZM115.44 416.698C114.944 416.698 114.528 416.615 114.193 416.447C113.864 416.279 113.62 416.034 113.46 415.714C113.3 415.386 113.219 414.981 113.219 414.5V412.062H112.624C112.441 412.062 112.3 412.016 112.201 411.924C112.101 411.825 112.052 411.692 112.052 411.524C112.052 411.348 112.101 411.215 112.201 411.123C112.3 411.032 112.441 410.986 112.624 410.986H113.219V409.944C113.219 409.707 113.281 409.528 113.403 409.406C113.532 409.284 113.712 409.223 113.941 409.223C114.17 409.223 114.345 409.284 114.467 409.406C114.589 409.528 114.651 409.707 114.651 409.944V410.986H115.864C116.047 410.986 116.188 411.032 116.288 411.123C116.387 411.215 116.436 411.348 116.436 411.524C116.436 411.692 116.387 411.825 116.288 411.924C116.188 412.016 116.047 412.062 115.864 412.062H114.651V414.42C114.651 414.787 114.731 415.061 114.891 415.245C115.051 415.428 115.311 415.519 115.669 415.519C115.799 415.519 115.914 415.508 116.013 415.485C116.112 415.462 116.2 415.447 116.276 415.439C116.368 415.432 116.444 415.462 116.505 415.531C116.566 415.592 116.597 415.722 116.597 415.92C116.597 416.073 116.57 416.21 116.517 416.332C116.471 416.447 116.383 416.527 116.253 416.573C116.154 416.603 116.024 416.63 115.864 416.653C115.704 416.683 115.563 416.698 115.44 416.698ZM119.113 416.698C118.708 416.698 118.346 416.622 118.025 416.47C117.712 416.309 117.464 416.096 117.281 415.828C117.106 415.561 117.018 415.26 117.018 414.924C117.018 414.512 117.125 414.187 117.338 413.951C117.552 413.707 117.899 413.531 118.38 413.424C118.861 413.317 119.506 413.264 120.315 413.264H120.887V414.088H120.327C119.853 414.088 119.476 414.111 119.193 414.157C118.911 414.203 118.708 414.283 118.586 414.397C118.472 414.504 118.415 414.657 118.415 414.855C118.415 415.107 118.502 415.313 118.678 415.473C118.853 415.634 119.098 415.714 119.411 415.714C119.662 415.714 119.884 415.657 120.075 415.542C120.273 415.42 120.43 415.256 120.544 415.05C120.659 414.844 120.716 414.607 120.716 414.34V413.024C120.716 412.642 120.632 412.367 120.464 412.199C120.296 412.031 120.014 411.947 119.617 411.947C119.395 411.947 119.155 411.974 118.895 412.028C118.644 412.081 118.376 412.173 118.094 412.302C117.949 412.371 117.819 412.39 117.705 412.36C117.598 412.329 117.514 412.268 117.453 412.176C117.392 412.077 117.361 411.97 117.361 411.856C117.361 411.741 117.392 411.631 117.453 411.524C117.514 411.409 117.617 411.325 117.762 411.272C118.113 411.127 118.449 411.024 118.77 410.963C119.098 410.902 119.395 410.871 119.662 410.871C120.212 410.871 120.662 410.955 121.013 411.123C121.372 411.291 121.639 411.547 121.815 411.89C121.99 412.226 122.078 412.661 122.078 413.195V415.943C122.078 416.179 122.021 416.363 121.906 416.492C121.792 416.615 121.628 416.676 121.414 416.676C121.2 416.676 121.032 416.615 120.91 416.492C120.796 416.363 120.739 416.179 120.739 415.943V415.393H120.83C120.777 415.66 120.67 415.893 120.51 416.092C120.357 416.283 120.162 416.431 119.926 416.538C119.689 416.645 119.418 416.698 119.113 416.698ZM124.263 416.676C124.027 416.676 123.844 416.615 123.714 416.492C123.592 416.363 123.531 416.179 123.531 415.943V411.615C123.531 411.379 123.592 411.199 123.714 411.077C123.836 410.955 124.008 410.894 124.229 410.894C124.45 410.894 124.622 410.955 124.744 411.077C124.866 411.199 124.927 411.379 124.927 411.615V412.337H124.813C124.92 411.879 125.13 411.531 125.442 411.295C125.755 411.058 126.171 410.917 126.69 410.871C126.851 410.856 126.977 410.898 127.068 410.997C127.167 411.089 127.225 411.234 127.24 411.432C127.255 411.623 127.209 411.779 127.103 411.902C127.003 412.016 126.851 412.085 126.645 412.108L126.393 412.131C125.927 412.176 125.576 412.321 125.339 412.566C125.103 412.802 124.985 413.138 124.985 413.573V415.943C124.985 416.179 124.924 416.363 124.801 416.492C124.679 416.615 124.5 416.676 124.263 416.676ZM130.902 416.698C130.406 416.698 129.99 416.615 129.655 416.447C129.326 416.279 129.082 416.034 128.922 415.714C128.762 415.386 128.681 414.981 128.681 414.5V412.062H128.086C127.903 412.062 127.762 412.016 127.663 411.924C127.563 411.825 127.514 411.692 127.514 411.524C127.514 411.348 127.563 411.215 127.663 411.123C127.762 411.032 127.903 410.986 128.086 410.986H128.681V409.944C128.681 409.707 128.743 409.528 128.865 409.406C128.994 409.284 129.174 409.223 129.403 409.223C129.632 409.223 129.807 409.284 129.929 409.406C130.051 409.528 130.113 409.707 130.113 409.944V410.986H131.326C131.509 410.986 131.65 411.032 131.75 411.123C131.849 411.215 131.898 411.348 131.898 411.524C131.898 411.692 131.849 411.825 131.75 411.924C131.65 412.016 131.509 412.062 131.326 412.062H130.113V414.42C130.113 414.787 130.193 415.061 130.353 415.245C130.513 415.428 130.773 415.519 131.131 415.519C131.261 415.519 131.376 415.508 131.475 415.485C131.574 415.462 131.662 415.447 131.738 415.439C131.83 415.432 131.906 415.462 131.967 415.531C132.028 415.592 132.059 415.722 132.059 415.92C132.059 416.073 132.032 416.21 131.979 416.332C131.933 416.447 131.845 416.527 131.715 416.573C131.616 416.603 131.486 416.63 131.326 416.653C131.166 416.683 131.025 416.698 130.902 416.698Z" fill="white"/>
<path fill-rule="evenodd" clip-rule="evenodd" d="M191.252 18.8711H190.646C190.311 18.8711 190.04 19.1594 190.04 19.5151V25.0961C190.04 25.4518 190.311 25.7401 190.646 25.7401H191.252C191.587 25.7401 191.858 25.4518 191.858 25.0961V19.5151C191.858 19.1594 191.587 18.8711 191.252 18.8711ZM187.818 20.3737H188.424C188.758 20.3737 189.03 20.662 189.03 21.0177V25.0961C189.03 25.4518 188.758 25.7401 188.424 25.7401H187.818C187.483 25.7401 187.212 25.4518 187.212 25.0961V21.0177C187.212 20.662 187.483 20.3737 187.818 20.3737ZM185.595 21.8763H184.989C184.654 21.8763 184.383 22.1646 184.383 22.5203V25.0961C184.383 25.4518 184.654 25.7401 184.989 25.7401H185.595C185.93 25.7401 186.201 25.4518 186.201 25.0961V22.5203C186.201 22.1646 185.93 21.8763 185.595 21.8763ZM182.767 23.1642H182.161C181.826 23.1642 181.555 23.4525 181.555 23.8082V25.0961C181.555 25.4518 181.826 25.7401 182.161 25.7401H182.767C183.102 25.7401 183.373 25.4518 183.373 25.0961V23.8082C183.373 23.4525 183.102 23.1642 182.767 23.1642Z" fill="#170E2B"/>
<path fill-rule="evenodd" clip-rule="evenodd" d="M199.869 20.2977C201.198 20.2977 202.476 20.8311 203.439 21.7875C203.511 21.8613 203.627 21.8604 203.698 21.7854L204.392 21.0546C204.428 21.0165 204.448 20.965 204.448 20.9114C204.447 20.8578 204.427 20.8065 204.39 20.7689C201.862 18.2385 197.875 18.2385 195.347 20.7689C195.31 20.8065 195.289 20.8577 195.289 20.9114C195.289 20.965 195.309 21.0165 195.345 21.0546L196.038 21.7854C196.11 21.8605 196.226 21.8614 196.298 21.7875C197.261 20.831 198.54 20.2976 199.869 20.2977ZM199.869 22.6753C200.599 22.6753 201.303 22.9588 201.844 23.4707C201.917 23.5433 202.033 23.5418 202.104 23.4671L202.796 22.7363C202.833 22.698 202.853 22.646 202.853 22.5919C202.852 22.5379 202.831 22.4863 202.794 22.4488C201.145 20.8474 198.593 20.8474 196.945 22.4488C196.908 22.4863 196.887 22.5379 196.886 22.592C196.886 22.646 196.906 22.698 196.943 22.7363L197.635 23.4671C197.706 23.5418 197.821 23.5433 197.895 23.4707C198.436 22.9591 199.139 22.6757 199.869 22.6753ZM201.256 24.2751C201.257 24.3293 201.236 24.3815 201.199 24.4195L200.002 25.6821C199.966 25.7192 199.919 25.7401 199.869 25.7401C199.819 25.7401 199.771 25.7192 199.736 25.6821L198.538 24.4195C198.501 24.3815 198.48 24.3292 198.481 24.275C198.483 24.2208 198.505 24.1695 198.544 24.1332C199.309 23.4574 200.429 23.4574 201.194 24.1332C201.232 24.1695 201.255 24.2209 201.256 24.2751Z" fill="#170E2B"/>
<path opacity="0.4" fill-rule="evenodd" clip-rule="evenodd" d="M209.409 19.4435H218.78C219.307 19.4435 219.734 19.8706 219.734 20.3975V24.2137C219.734 24.7406 219.307 25.1677 218.78 25.1677H209.409C208.882 25.1677 208.455 24.7406 208.455 24.2137V20.3975C208.455 19.8706 208.882 19.4435 209.409 19.4435ZM207.883 20.3975C207.883 19.5545 208.566 18.8711 209.409 18.8711H218.78C219.623 18.8711 220.306 19.5545 220.306 20.3975V24.2137C220.306 25.0567 219.623 25.7401 218.78 25.7401H209.409C208.566 25.7401 207.883 25.0567 207.883 24.2137V20.3975ZM221.621 22.3056C221.621 22.8348 221.325 23.3124 220.871 23.5178V21.0934C221.325 21.2987 221.621 21.7764 221.621 22.3056Z" fill="#170E2B"/>
<rect x="209.016" y="20.084" width="10.1646" height="4.44466" rx="0.763225" fill="#170E2B"/>
<path d="M16.5052 19.0096V24.7266H15.5622V20.1288L14.1652 20.6022V19.8236L16.3917 19.0096H16.5052ZM22.3123 23.9753V24.7266H18.4932V24.0809L20.348 22.0579C20.5514 21.8283 20.7119 21.6301 20.8293 21.4631C20.9467 21.2962 21.0288 21.1462 21.0758 21.0131C21.1254 20.8775 21.1501 20.7457 21.1501 20.6179C21.1501 20.4379 21.1162 20.2801 21.0484 20.1444C20.9832 20.0062 20.8867 19.8979 20.7588 19.8196C20.631 19.7388 20.4758 19.6983 20.2932 19.6983C20.0819 19.6983 19.9045 19.744 19.761 19.8353C19.6175 19.9266 19.5093 20.0531 19.4362 20.2149C19.3632 20.374 19.3267 20.5566 19.3267 20.7627H18.3836C18.3836 20.4314 18.4593 20.1288 18.6106 19.8549C18.7619 19.5783 18.981 19.3592 19.268 19.1975C19.5549 19.0331 19.9006 18.951 20.3049 18.951C20.6858 18.951 21.0093 19.0149 21.2754 19.1427C21.5414 19.2705 21.7436 19.4518 21.8819 19.6866C22.0227 19.9214 22.0932 20.1992 22.0932 20.5201C22.0932 20.6975 22.0645 20.8735 22.0071 21.0483C21.9497 21.2231 21.8675 21.3979 21.7606 21.5727C21.6562 21.7448 21.5323 21.9183 21.3888 22.0931C21.2454 22.2653 21.0875 22.4401 20.9154 22.6174L19.6828 23.9753H22.3123ZM23.1225 24.257C23.1225 24.1109 23.172 23.9883 23.2712 23.8892C23.3703 23.7874 23.5047 23.7366 23.6742 23.7366C23.8464 23.7366 23.9807 23.7874 24.0773 23.8892C24.1764 23.9883 24.226 24.1109 24.226 24.257C24.226 24.4031 24.1764 24.5257 24.0773 24.6248C23.9807 24.724 23.8464 24.7735 23.6742 24.7735C23.5047 24.7735 23.3703 24.724 23.2712 24.6248C23.172 24.5257 23.1225 24.4031 23.1225 24.257ZM23.1264 20.9231C23.1264 20.777 23.176 20.6544 23.2751 20.5553C23.3742 20.4535 23.5086 20.4027 23.6781 20.4027C23.8503 20.4027 23.9847 20.4535 24.0812 20.5553C24.1803 20.6544 24.2299 20.777 24.2299 20.9231C24.2299 21.0692 24.1803 21.1918 24.0812 21.2909C23.9847 21.3901 23.8503 21.4396 23.6781 21.4396C23.5086 21.4396 23.3742 21.3901 23.2751 21.2909C23.176 21.1918 23.1264 21.0692 23.1264 20.9231ZM26.2844 21.4514H26.8479C27.067 21.4514 27.2483 21.4135 27.3918 21.3379C27.5379 21.2622 27.6461 21.1579 27.7166 21.0248C27.787 20.8918 27.8222 20.7392 27.8222 20.567C27.8222 20.387 27.7896 20.2331 27.7244 20.1053C27.6618 19.9749 27.5652 19.8744 27.4348 19.804C27.307 19.7336 27.1439 19.6983 26.9457 19.6983C26.7787 19.6983 26.6274 19.7322 26.4918 19.8001C26.3587 19.8653 26.2531 19.9592 26.1748 20.0818C26.0966 20.2018 26.0574 20.3453 26.0574 20.5122H25.1105C25.1105 20.2096 25.19 19.9409 25.3492 19.7062C25.5083 19.4714 25.7248 19.2875 25.9987 19.1544C26.2753 19.0188 26.5857 18.951 26.93 18.951C27.2979 18.951 27.6187 19.0123 27.8926 19.1349C28.1692 19.2549 28.3844 19.4349 28.5383 19.6749C28.6922 19.9149 28.7692 20.2122 28.7692 20.567C28.7692 20.7288 28.7313 20.8931 28.6557 21.0601C28.58 21.227 28.4679 21.3796 28.3192 21.5179C28.1705 21.6535 27.9852 21.7644 27.7635 21.8505C27.5418 21.934 27.2848 21.9757 26.9926 21.9757H26.2844V21.4514ZM26.2844 22.187V21.6705H26.9926C27.3266 21.6705 27.6109 21.7096 27.8457 21.7879C28.0831 21.8661 28.2761 21.9744 28.4248 22.1127C28.5735 22.2483 28.6818 22.4035 28.7496 22.5783C28.82 22.7531 28.8552 22.9383 28.8552 23.134C28.8552 23.4 28.807 23.6374 28.7105 23.8461C28.6165 24.0522 28.4822 24.227 28.3074 24.3705C28.1326 24.514 27.9279 24.6222 27.6931 24.6953C27.4609 24.7683 27.2079 24.8048 26.9339 24.8048C26.6887 24.8048 26.454 24.7709 26.2296 24.7031C26.0053 24.6353 25.8044 24.5348 25.627 24.4018C25.4496 24.2661 25.3087 24.0979 25.2044 23.897C25.1027 23.6935 25.0518 23.4587 25.0518 23.1927H25.9948C25.9948 23.3622 26.034 23.5122 26.1122 23.6427C26.1931 23.7705 26.3053 23.8709 26.4487 23.944C26.5948 24.017 26.7618 24.0535 26.9496 24.0535C27.1479 24.0535 27.3187 24.0183 27.4622 23.9479C27.6057 23.8774 27.7152 23.7731 27.7909 23.6348C27.8692 23.4966 27.9083 23.3296 27.9083 23.134C27.9083 22.9122 27.8652 22.7322 27.7792 22.594C27.6931 22.4557 27.5705 22.354 27.4113 22.2888C27.2522 22.2209 27.0644 22.187 26.8479 22.187H26.2844ZM33.4532 21.4005V22.3318C33.4532 22.7779 33.4089 23.1587 33.3202 23.4744C33.2341 23.7874 33.1089 24.0418 32.9445 24.2374C32.7802 24.4331 32.5832 24.5766 32.3537 24.6679C32.1267 24.7592 31.8724 24.8048 31.5906 24.8048C31.3663 24.8048 31.1576 24.7761 30.9645 24.7187C30.7741 24.6613 30.6019 24.5713 30.448 24.4487C30.2941 24.3261 30.1624 24.1683 30.0528 23.9753C29.9459 23.7796 29.8624 23.5461 29.8024 23.2748C29.745 23.0035 29.7163 22.6892 29.7163 22.3318V21.4005C29.7163 20.9518 29.7606 20.5735 29.8493 20.2657C29.938 19.9553 30.0646 19.7036 30.2289 19.5105C30.3932 19.3149 30.5889 19.1727 30.8158 19.084C31.0454 18.9953 31.3011 18.951 31.5828 18.951C31.8098 18.951 32.0185 18.9796 32.2089 19.037C32.4019 19.0918 32.5741 19.1792 32.7254 19.2992C32.8793 19.4192 33.0097 19.5757 33.1167 19.7688C33.2263 19.9592 33.3097 20.1901 33.3671 20.4614C33.4245 20.7301 33.4532 21.0431 33.4532 21.4005ZM32.5102 22.4648V21.2596C32.5102 21.0327 32.4971 20.8331 32.4711 20.6609C32.445 20.4862 32.4058 20.3388 32.3537 20.2188C32.3041 20.0962 32.2415 19.997 32.1658 19.9214C32.0902 19.8431 32.0041 19.787 31.9076 19.7531C31.8111 19.7166 31.7028 19.6983 31.5828 19.6983C31.4367 19.6983 31.3063 19.727 31.1915 19.7844C31.0767 19.8392 30.9802 19.9279 30.9019 20.0505C30.8237 20.1731 30.7637 20.3349 30.7219 20.5357C30.6828 20.734 30.6632 20.9753 30.6632 21.2596V22.4648C30.6632 22.6944 30.6763 22.8966 30.7024 23.0714C30.7285 23.2461 30.7676 23.3961 30.8198 23.5214C30.8719 23.644 30.9345 23.7457 31.0076 23.8266C31.0832 23.9048 31.1693 23.9622 31.2658 23.9987C31.365 24.0353 31.4732 24.0535 31.5906 24.0535C31.7393 24.0535 31.8711 24.0248 31.9858 23.9674C32.1006 23.91 32.1971 23.8187 32.2754 23.6935C32.3537 23.5657 32.4124 23.4 32.4515 23.1966C32.4906 22.9931 32.5102 22.7492 32.5102 22.4648Z" fill="#170E2B"/>
</g>
<rect x="3" y="3.2793" width="230.96" height="493.7" rx="19" stroke="#575757" stroke-width="6"/>
<defs>
<clipPath id="clip0_910_3560">
<rect x="6" y="6.2793" width="224.96" height="487.7" rx="16" fill="white"/>
</clipPath>
<clipPath id="clip1_910_3560">
<rect width="86.8168" height="140.243" fill="white" transform="translate(43.7812 106.451)"/>
</clipPath>
</defs>
</svg>
